<svg xmlns="http://www.w3.org/2000/svg" xmlns:xlink="http://www.w3.org/1999/xlink" contentStyleType="text/css" height="1286px" preserveAspectRatio="none" style="width:1295px;height:1286px;background:#FFFFFF;" version="1.1" viewBox="0 0 1295 1286" width="1295px" zoomAndPan="magnify"><defs/><g><line style="stroke:#181818;stroke-width:0.5;stroke-dasharray:5.0,5.0;" x1="22.7793" x2="22.7793" y1="83.6211" y2="899.8965"/><line style="stroke:#A80036;stroke-width:1.0;stroke-dasharray:1.0,4.0;" x1="22.7793" x2="22.7793" y1="899.8965" y2="942.5273"/><line style="stroke:#181818;stroke-width:0.5;stroke-dasharray:5.0,5.0;" x1="22.7793" x2="22.7793" y1="942.5273" y2="1202.8555"/><line style="stroke:#181818;stroke-width:0.5;stroke-dasharray:5.0,5.0;" x1="118.2583" x2="118.2583" y1="83.6211" y2="899.8965"/><line style="stroke:#A80036;stroke-width:1.0;stroke-dasharray:1.0,4.0;" x1="118.2583" x2="118.2583" y1="899.8965" y2="942.5273"/><line style="stroke:#181818;stroke-width:0.5;stroke-dasharray:5.0,5.0;" x1="118.2583" x2="118.2583" y1="942.5273" y2="1202.8555"/><rect fill="#FFFFFF" height="784.9844" style="stroke:#FFFFFF;stroke-width:1.0;" width="10" x="113.2583" y="114.9121"/><line style="stroke:#181818;stroke-width:1.0;" x1="113.2583" x2="113.2583" y1="114.9121" y2="899.8965"/><line style="stroke:#181818;stroke-width:1.0;" x1="123.2583" x2="123.2583" y1="114.9121" y2="899.8965"/><line style="stroke:#181818;stroke-width:1.0;" x1="113.2583" x2="123.2583" y1="114.9121" y2="114.9121"/><rect fill="#FFFFFF" height="242.3281" style="stroke:#FFFFFF;stroke-width:1.0;" width="10" x="113.2583" y="942.5273"/><line style="stroke:#181818;stroke-width:1.0;" x1="113.2583" x2="113.2583" y1="942.5273" y2="1184.8555"/><line style="stroke:#181818;stroke-width:1.0;" x1="123.2583" x2="123.2583" y1="942.5273" y2="1184.8555"/><line style="stroke:#181818;stroke-width:1.0;" x1="113.2583" x2="123.2583" y1="1184.8555" y2="1184.8555"/><line style="stroke:#181818;stroke-width:0.5;stroke-dasharray:5.0,5.0;" x1="249.1255" x2="249.1255" y1="83.6211" y2="899.8965"/><line style="stroke:#A80036;stroke-width:1.0;stroke-dasharray:1.0,4.0;" x1="249.1255" x2="249.1255" y1="899.8965" y2="942.5273"/><line style="stroke:#181818;stroke-width:0.5;stroke-dasharray:5.0,5.0;" x1="249.1255" x2="249.1255" y1="942.5273" y2="1202.8555"/><rect fill="#FFFFFF" height="62.582" style="stroke:#181818;stroke-width:1.0;" width="10" x="244.1255" y="240.0762"/><line style="stroke:#181818;stroke-width:0.5;stroke-dasharray:5.0,5.0;" x1="380.7227" x2="380.7227" y1="83.6211" y2="899.8965"/><line style="stroke:#A80036;stroke-width:1.0;stroke-dasharray:1.0,4.0;" x1="380.7227" x2="380.7227" y1="899.8965" y2="942.5273"/><line style="stroke:#181818;stroke-width:0.5;stroke-dasharray:5.0,5.0;" x1="380.7227" x2="380.7227" y1="942.5273" y2="1202.8555"/><rect fill="#FFFFFF" height="597.2383" style="stroke:#FFFFFF;stroke-width:1.0;" width="10" x="375.7227" y="302.6582"/><line style="stroke:#181818;stroke-width:1.0;" x1="375.7227" x2="375.7227" y1="302.6582" y2="899.8965"/><line style="stroke:#181818;stroke-width:1.0;" x1="385.7227" x2="385.7227" y1="302.6582" y2="899.8965"/><line style="stroke:#181818;stroke-width:1.0;" x1="375.7227" x2="385.7227" y1="302.6582" y2="302.6582"/><rect fill="#FFFFFF" height="54.582" style="stroke:#FFFFFF;stroke-width:1.0;" width="10" x="375.7227" y="942.5273"/><line style="stroke:#181818;stroke-width:1.0;" x1="375.7227" x2="375.7227" y1="942.5273" y2="997.1094"/><line style="stroke:#181818;stroke-width:1.0;" x1="385.7227" x2="385.7227" y1="942.5273" y2="997.1094"/><line style="stroke:#181818;stroke-width:1.0;" x1="375.7227" x2="385.7227" y1="997.1094" y2="997.1094"/><line style="stroke:#181818;stroke-width:0.5;stroke-dasharray:5.0,5.0;" x1="604.2378" x2="604.2378" y1="83.6211" y2="899.8965"/><line style="stroke:#A80036;stroke-width:1.0;stroke-dasharray:1.0,4.0;" x1="604.2378" x2="604.2378" y1="899.8965" y2="942.5273"/><line style="stroke:#181818;stroke-width:0.5;stroke-dasharray:5.0,5.0;" x1="604.2378" x2="604.2378" y1="942.5273" y2="1202.8555"/><rect fill="#FFFFFF" height="219.0371" style="stroke:#181818;stroke-width:1.0;" width="10" x="599.2378" y="672.8594"/><line style="stroke:#181818;stroke-width:0.5;stroke-dasharray:5.0,5.0;" x1="732.1201" x2="732.1201" y1="83.6211" y2="899.8965"/><line style="stroke:#A80036;stroke-width:1.0;stroke-dasharray:1.0,4.0;" x1="732.1201" x2="732.1201" y1="899.8965" y2="942.5273"/><line style="stroke:#181818;stroke-width:0.5;stroke-dasharray:5.0,5.0;" x1="732.1201" x2="732.1201" y1="942.5273" y2="1202.8555"/><rect fill="#FFFFFF" height="156.4551" style="stroke:#181818;stroke-width:1.0;" width="10" x="727.1201" y="997.1094"/><line style="stroke:#181818;stroke-width:0.5;stroke-dasharray:5.0,5.0;" x1="865.0645" x2="865.0645" y1="83.6211" y2="899.8965"/><line style="stroke:#A80036;stroke-width:1.0;stroke-dasharray:1.0,4.0;" x1="865.0645" x2="865.0645" y1="899.8965" y2="942.5273"/><line style="stroke:#181818;stroke-width:0.5;stroke-dasharray:5.0,5.0;" x1="865.0645" x2="865.0645" y1="942.5273" y2="1202.8555"/><rect fill="#FFFFFF" height="597.2383" style="stroke:#FFFFFF;stroke-width:1.0;" width="10" x="860.0645" y="302.6582"/><line style="stroke:#181818;stroke-width:1.0;" x1="860.0645" x2="860.0645" y1="302.6582" y2="899.8965"/><line style="stroke:#181818;stroke-width:1.0;" x1="870.0645" x2="870.0645" y1="302.6582" y2="899.8965"/><line style="stroke:#181818;stroke-width:1.0;" x1="860.0645" x2="870.0645" y1="302.6582" y2="302.6582"/><rect fill="#FFFFFF" height="67.582" style="stroke:#FFFFFF;stroke-width:1.0;" width="10" x="860.0645" y="942.5273"/><line style="stroke:#181818;stroke-width:1.0;" x1="860.0645" x2="860.0645" y1="942.5273" y2="1010.1094"/><line style="stroke:#181818;stroke-width:1.0;" x1="870.0645" x2="870.0645" y1="942.5273" y2="1010.1094"/><line style="stroke:#181818;stroke-width:1.0;" x1="860.0645" x2="870.0645" y1="1010.1094" y2="1010.1094"/><line style="stroke:#181818;stroke-width:0.5;stroke-dasharray:5.0,5.0;" x1="984.3848" x2="984.3848" y1="83.6211" y2="899.8965"/><line style="stroke:#A80036;stroke-width:1.0;stroke-dasharray:1.0,4.0;" x1="984.3848" x2="984.3848" y1="899.8965" y2="942.5273"/><line style="stroke:#181818;stroke-width:0.5;stroke-dasharray:5.0,5.0;" x1="984.3848" x2="984.3848" y1="942.5273" y2="1202.8555"/><rect fill="#FFFFFF" height="776.9844" style="stroke:#FFFFFF;stroke-width:1.0;" width="10" x="979.3848" y="122.9121"/><line style="stroke:#181818;stroke-width:1.0;" x1="979.3848" x2="979.3848" y1="122.9121" y2="899.8965"/><line style="stroke:#181818;stroke-width:1.0;" x1="989.3848" x2="989.3848" y1="122.9121" y2="899.8965"/><line style="stroke:#181818;stroke-width:1.0;" x1="979.3848" x2="989.3848" y1="122.9121" y2="122.9121"/><rect fill="#FFFFFF" height="224.0371" style="stroke:#FFFFFF;stroke-width:1.0;" width="10" x="979.3848" y="942.5273"/><line style="stroke:#181818;stroke-width:1.0;" x1="979.3848" x2="979.3848" y1="942.5273" y2="1166.5645"/><line style="stroke:#181818;stroke-width:1.0;" x1="989.3848" x2="989.3848" y1="942.5273" y2="1166.5645"/><line style="stroke:#181818;stroke-width:1.0;" x1="979.3848" x2="989.3848" y1="1166.5645" y2="1166.5645"/><line style="stroke:#181818;stroke-width:0.5;stroke-dasharray:5.0,5.0;" x1="1107.9741" x2="1107.9741" y1="83.6211" y2="899.8965"/><line style="stroke:#A80036;stroke-width:1.0;stroke-dasharray:1.0,4.0;" x1="1107.9741" x2="1107.9741" y1="899.8965" y2="942.5273"/><line style="stroke:#181818;stroke-width:0.5;stroke-dasharray:5.0,5.0;" x1="1107.9741" x2="1107.9741" y1="942.5273" y2="1202.8555"/><rect fill="#FFFFFF" height="776.9844" style="stroke:#FFFFFF;stroke-width:1.0;" width="10" x="1102.9741" y="122.9121"/><line style="stroke:#181818;stroke-width:1.0;" x1="1102.9741" x2="1102.9741" y1="122.9121" y2="899.8965"/><line style="stroke:#181818;stroke-width:1.0;" x1="1112.9741" x2="1112.9741" y1="122.9121" y2="899.8965"/><line style="stroke:#181818;stroke-width:1.0;" x1="1102.9741" x2="1112.9741" y1="122.9121" y2="122.9121"/><rect fill="#FFFFFF" height="224.0371" style="stroke:#FFFFFF;stroke-width:1.0;" width="10" x="1102.9741" y="942.5273"/><line style="stroke:#181818;stroke-width:1.0;" x1="1102.9741" x2="1102.9741" y1="942.5273" y2="1166.5645"/><line style="stroke:#181818;stroke-width:1.0;" x1="1112.9741" x2="1112.9741" y1="942.5273" y2="1166.5645"/><line style="stroke:#181818;stroke-width:1.0;" x1="1102.9741" x2="1112.9741" y1="1166.5645" y2="1166.5645"/><line style="stroke:#181818;stroke-width:0.5;stroke-dasharray:5.0,5.0;" x1="1246.7295" x2="1246.7295" y1="83.6211" y2="899.8965"/><line style="stroke:#A80036;stroke-width:1.0;stroke-dasharray:1.0,4.0;" x1="1246.7295" x2="1246.7295" y1="899.8965" y2="942.5273"/><line style="stroke:#181818;stroke-width:0.5;stroke-dasharray:5.0,5.0;" x1="1246.7295" x2="1246.7295" y1="942.5273" y2="1202.8555"/><rect fill="#FFFFFF" height="776.9844" style="stroke:#FFFFFF;stroke-width:1.0;" width="10" x="1241.7295" y="122.9121"/><line style="stroke:#181818;stroke-width:1.0;" x1="1241.7295" x2="1241.7295" y1="122.9121" y2="899.8965"/><line style="stroke:#181818;stroke-width:1.0;" x1="1251.7295" x2="1251.7295" y1="122.9121" y2="899.8965"/><line style="stroke:#181818;stroke-width:1.0;" x1="1241.7295" x2="1251.7295" y1="122.9121" y2="122.9121"/><rect fill="#FFFFFF" height="224.0371" style="stroke:#FFFFFF;stroke-width:1.0;" width="10" x="1241.7295" y="942.5273"/><line style="stroke:#181818;stroke-width:1.0;" x1="1241.7295" x2="1241.7295" y1="942.5273" y2="1166.5645"/><line style="stroke:#181818;stroke-width:1.0;" x1="1251.7295" x2="1251.7295" y1="942.5273" y2="1166.5645"/><line style="stroke:#181818;stroke-width:1.0;" x1="1241.7295" x2="1251.7295" y1="1166.5645" y2="1166.5645"/><text fill="#000000" font-family="sans-serif" font-size="14" lengthAdjust="spacing" textLength="29.5586" x="5" y="80.1074">User</text><ellipse cx="22.7793" cy="13.5" fill="#E2E2F0" rx="8" ry="8" style="stroke:#181818;stroke-width:0.5;"/><path d="M22.7793,21.5 L22.7793,48.5 M9.7793,29.5 L35.7793,29.5 M22.7793,48.5 L9.7793,63.5 M22.7793,48.5 L35.7793,63.5 " fill="none" style="stroke:#181818;stroke-width:0.5;"/><rect fill="#E2E2F0" height="32.6211" rx="2.5" ry="2.5" style="stroke:#181818;stroke-width:0.5;" width="44.3447" x="96.0859" y="50"/><text fill="#000000" font-family="sans-serif" font-size="14" lengthAdjust="spacing" textLength="30.3447" x="103.0859" y="72.1074">Main</text><rect fill="#E2E2F0" height="32.6211" rx="2.5" ry="2.5" style="stroke:#181818;stroke-width:0.5;" width="84.8066" x="206.7222" y="50"/><text fill="#000000" font-family="sans-serif" font-size="14" lengthAdjust="spacing" textLength="70.8066" x="213.7222" y="72.1074">TitleScreen</text><rect fill="#E2E2F0" height="32.6211" rx="2.5" ry="2.5" style="stroke:#181818;stroke-width:0.5;" width="85.5928" x="337.9263" y="50"/><text fill="#000000" font-family="sans-serif" font-size="14" lengthAdjust="spacing" textLength="71.5928" x="344.9263" y="72.1074">MapScreen</text><rect fill="#E2E2F0" height="32.6211" rx="2.5" ry="2.5" style="stroke:#181818;stroke-width:0.5;" width="108.9443" x="549.7656" y="50"/><text fill="#000000" font-family="sans-serif" font-size="14" lengthAdjust="spacing" textLength="94.9443" x="556.7656" y="72.1074">SettingsScreen</text><rect fill="#E2E2F0" height="32.6211" rx="2.5" ry="2.5" style="stroke:#181818;stroke-width:0.5;" width="126.8203" x="668.71" y="50"/><text fill="#000000" font-family="sans-serif" font-size="14" lengthAdjust="spacing" textLength="112.8203" x="675.71" y="72.1074">GameOverScreen</text><rect fill="#E2E2F0" height="32.6211" rx="2.5" ry="2.5" style="stroke:#181818;stroke-width:0.5;" width="119.0684" x="805.5303" y="50"/><text fill="#000000" font-family="sans-serif" font-size="14" lengthAdjust="spacing" textLength="105.0684" x="812.5303" y="72.1074">BuildingManager</text><rect fill="#E2E2F0" height="32.6211" rx="2.5" ry="2.5" style="stroke:#181818;stroke-width:0.5;" width="99.5723" x="934.5986" y="50"/><text fill="#000000" font-family="sans-serif" font-size="14" lengthAdjust="spacing" textLength="85.5723" x="941.5986" y="72.1074">InGameTimer</text><rect fill="#E2E2F0" height="32.6211" rx="2.5" ry="2.5" style="stroke:#181818;stroke-width:0.5;" width="127.6064" x="1044.1709" y="50"/><text fill="#000000" font-family="sans-serif" font-size="14" lengthAdjust="spacing" textLength="113.6064" x="1051.1709" y="72.1074">GamePreferences</text><rect fill="#E2E2F0" height="32.6211" rx="2.5" ry="2.5" style="stroke:#181818;stroke-width:0.5;" width="84.8203" x="1204.3193" y="50"/><text fill="#000000" font-family="sans-serif" font-size="14" lengthAdjust="spacing" textLength="70.8203" x="1211.3193" y="72.1074">Soundtrack</text><text fill="#000000" font-family="sans-serif" font-size="14" lengthAdjust="spacing" textLength="29.5586" x="5" y="1277.9629">User</text><ellipse cx="22.7793" cy="1211.3555" fill="#E2E2F0" rx="8" ry="8" style="stroke:#181818;stroke-width:0.5;"/><path d="M22.7793,1219.3555 L22.7793,1246.3555 M9.7793,1227.3555 L35.7793,1227.3555 M22.7793,1246.3555 L9.7793,1261.3555 M22.7793,1246.3555 L35.7793,1261.3555 " fill="none" style="stroke:#181818;stroke-width:0.5;"/><rect fill="#E2E2F0" height="32.6211" rx="2.5" ry="2.5" style="stroke:#181818;stroke-width:0.5;" width="44.3447" x="96.0859" y="1202.8555"/><text fill="#000000" font-family="sans-serif" font-size="14" lengthAdjust="spacing" textLength="30.3447" x="103.0859" y="1224.9629">Main</text><rect fill="#E2E2F0" height="32.6211" rx="2.5" ry="2.5" style="stroke:#181818;stroke-width:0.5;" width="84.8066" x="206.7222" y="1202.8555"/><text fill="#000000" font-family="sans-serif" font-size="14" lengthAdjust="spacing" textLength="70.8066" x="213.7222" y="1224.9629">TitleScreen</text><rect fill="#E2E2F0" height="32.6211" rx="2.5" ry="2.5" style="stroke:#181818;stroke-width:0.5;" width="85.5928" x="337.9263" y="1202.8555"/><text fill="#000000" font-family="sans-serif" font-size="14" lengthAdjust="spacing" textLength="71.5928" x="344.9263" y="1224.9629">MapScreen</text><rect fill="#E2E2F0" height="32.6211" rx="2.5" ry="2.5" style="stroke:#181818;stroke-width:0.5;" width="108.9443" x="549.7656" y="1202.8555"/><text fill="#000000" font-family="sans-serif" font-size="14" lengthAdjust="spacing" textLength="94.9443" x="556.7656" y="1224.9629">SettingsScreen</text><rect fill="#E2E2F0" height="32.6211" rx="2.5" ry="2.5" style="stroke:#181818;stroke-width:0.5;" width="126.8203" x="668.71" y="1202.8555"/><text fill="#000000" font-family="sans-serif" font-size="14" lengthAdjust="spacing" textLength="112.8203" x="675.71" y="1224.9629">GameOverScreen</text><rect fill="#E2E2F0" height="32.6211" rx="2.5" ry="2.5" style="stroke:#181818;stroke-width:0.5;" width="119.0684" x="805.5303" y="1202.8555"/><text fill="#000000" font-family="sans-serif" font-size="14" lengthAdjust="spacing" textLength="105.0684" x="812.5303" y="1224.9629">BuildingManager</text><rect fill="#E2E2F0" height="32.6211" rx="2.5" ry="2.5" style="stroke:#181818;stroke-width:0.5;" width="99.5723" x="934.5986" y="1202.8555"/><text fill="#000000" font-family="sans-serif" font-size="14" lengthAdjust="spacing" textLength="85.5723" x="941.5986" y="1224.9629">InGameTimer</text><rect fill="#E2E2F0" height="32.6211" rx="2.5" ry="2.5" style="stroke:#181818;stroke-width:0.5;" width="127.6064" x="1044.1709" y="1202.8555"/><text fill="#000000" font-family="sans-serif" font-size="14" lengthAdjust="spacing" textLength="113.6064" x="1051.1709" y="1224.9629">GamePreferences</text><rect fill="#E2E2F0" height="32.6211" rx="2.5" ry="2.5" style="stroke:#181818;stroke-width:0.5;" width="84.8203" x="1204.3193" y="1202.8555"/><text fill="#000000" font-family="sans-serif" font-size="14" lengthAdjust="spacing" textLength="70.8203" x="1211.3193" y="1224.9629">Soundtrack</text><polygon fill="#181818" points="101.2583,110.9121,111.2583,114.9121,101.2583,118.9121,105.2583,114.9121" style="stroke:#181818;stroke-width:1.0;"/><line style="stroke:#181818;stroke-width:1.0;" x1="22.7793" x2="107.2583" y1="114.9121" y2="114.9121"/><text fill="#000000" font-family="sans-serif" font-size="13" lengthAdjust="spacing" textLength="61.4136" x="29.7793" y="109.6494">start game</text><polygon fill="#181818" points="1229.7295,142.2031,1239.7295,146.2031,1229.7295,150.2031,1233.7295,146.2031" style="stroke:#181818;stroke-width:1.0;"/><line style="stroke:#181818;stroke-width:1.0;" x1="123.2583" x2="1235.7295" y1="146.2031" y2="146.2031"/><text fill="#000000" font-family="sans-serif" font-size="13" lengthAdjust="spacing" textLength="32.5063" x="130.2583" y="140.9404">play()</text><polygon fill="#181818" points="1123.9741,173.4941,1113.9741,177.4941,1123.9741,181.4941,1119.9741,177.4941" style="stroke:#181818;stroke-width:1.0;"/><polygon fill="#181818" points="1229.7295,173.4941,1239.7295,177.4941,1229.7295,181.4941,1233.7295,177.4941" style="stroke:#181818;stroke-width:1.0;"/><line style="stroke:#181818;stroke-width:1.0;" x1="1117.9741" x2="1235.7295" y1="177.4941" y2="177.4941"/><text fill="#000000" font-family="sans-serif" font-size="13" lengthAdjust="spacing" textLength="104.7554" x="1129.9741" y="172.2314">getMusicVolume()</text><polygon fill="#181818" points="33.7793,204.7852,23.7793,208.7852,33.7793,212.7852,29.7793,208.7852" style="stroke:#181818;stroke-width:1.0;"/><line style="stroke:#181818;stroke-width:1.0;" x1="27.7793" x2="1240.7295" y1="208.7852" y2="208.7852"/><text fill="#000000" font-family="sans-serif" font-size="13" lengthAdjust="spacing" textLength="91.0508" x="39.7793" y="203.5225">play soundtrack</text><polygon fill="#181818" points="232.1255,236.0762,242.1255,240.0762,232.1255,244.0762,236.1255,240.0762" style="stroke:#181818;stroke-width:1.0;"/><line style="stroke:#181818;stroke-width:1.0;" x1="123.2583" x2="238.1255" y1="240.0762" y2="240.0762"/><text fill="#000000" font-family="sans-serif" font-size="13" lengthAdjust="spacing" textLength="101.8672" x="130.2583" y="234.8135">new TitleScreen()</text><polygon fill="#181818" points="33.7793,267.3672,23.7793,271.3672,33.7793,275.3672,29.7793,271.3672" style="stroke:#181818;stroke-width:1.0;"/><line style="stroke:#181818;stroke-width:1.0;" x1="27.7793" x2="243.1255" y1="271.3672" y2="271.3672"/><text fill="#000000" font-family="sans-serif" font-size="13" lengthAdjust="spacing" textLength="39.0063" x="39.7793" y="266.1045">show()</text><polygon fill="#181818" points="232.1255,298.6582,242.1255,302.6582,232.1255,306.6582,236.1255,302.6582" style="stroke:#181818;stroke-width:1.0;"/><line style="stroke:#181818;stroke-width:1.0;" x1="22.7793" x2="238.1255" y1="302.6582" y2="302.6582"/><text fill="#000000" font-family="sans-serif" font-size="13" lengthAdjust="spacing" textLength="25.2891" x="29.7793" y="297.3955">Play</text><polygon fill="#181818" points="363.7227,298.6582,373.7227,302.6582,363.7227,306.6582,367.7227,302.6582" style="stroke:#181818;stroke-width:1.0;"/><line style="stroke:#181818;stroke-width:1.0;" x1="254.1255" x2="369.7227" y1="302.6582" y2="302.6582"/><text fill="#000000" font-family="sans-serif" font-size="13" lengthAdjust="spacing" textLength="102.5972" x="261.1255" y="297.3955">new MapScreen()</text><polygon fill="#181818" points="848.0645,298.6582,858.0645,302.6582,848.0645,306.6582,852.0645,302.6582" style="stroke:#181818;stroke-width:1.0;"/><line style="stroke:#181818;stroke-width:1.0;" x1="385.7227" x2="854.0645" y1="302.6582" y2="302.6582"/><text fill="#000000" font-family="sans-serif" font-size="13" lengthAdjust="spacing" textLength="133.6816" x="392.7227" y="297.3955">new BuildingManager()</text><polygon fill="#181818" points="33.7793,329.9492,23.7793,333.9492,33.7793,337.9492,29.7793,333.9492" style="stroke:#181818;stroke-width:1.0;"/><line style="stroke:#181818;stroke-width:1.0;" x1="27.7793" x2="374.7227" y1="333.9492" y2="333.9492"/><text fill="#000000" font-family="sans-serif" font-size="13" lengthAdjust="spacing" textLength="39.0063" x="39.7793" y="328.6865">show()</text><polygon fill="#181818" points="363.7227,361.2402,373.7227,365.2402,363.7227,369.2402,367.7227,365.2402" style="stroke:#181818;stroke-width:1.0;"/><line style="stroke:#181818;stroke-width:1.0;" x1="22.7793" x2="369.7227" y1="365.2402" y2="365.2402"/><text fill="#000000" font-family="sans-serif" font-size="13" lengthAdjust="spacing" textLength="36.8608" x="29.7793" y="359.9775">Pause</text><polygon fill="#181818" points="967.3848,361.2402,977.3848,365.2402,967.3848,369.2402,971.3848,365.2402" style="stroke:#181818;stroke-width:1.0;"/><line style="stroke:#181818;stroke-width:1.0;" x1="385.7227" x2="973.3848" y1="365.2402" y2="365.2402"/><text fill="#000000" font-family="sans-serif" font-size="13" lengthAdjust="spacing" textLength="89.5781" x="392.7227" y="359.9775">userStopTime()</text><line style="stroke:#181818;stroke-width:1.0;" x1="385.7227" x2="427.7227" y1="396.5313" y2="396.5313"/><line style="stroke:#181818;stroke-width:1.0;" x1="427.7227" x2="427.7227" y1="396.5313" y2="409.5313"/><line style="stroke:#181818;stroke-width:1.0;" x1="386.7227" x2="427.7227" y1="409.5313" y2="409.5313"/><polygon fill="#181818" points="396.7227,405.5313,386.7227,409.5313,396.7227,413.5313,392.7227,409.5313" style="stroke:#181818;stroke-width:1.0;"/><text fill="#000000" font-family="sans-serif" font-size="13" lengthAdjust="spacing" textLength="204.5151" x="392.7227" y="391.2686">change Pause icon to Resume icon</text><polygon fill="#181818" points="363.7227,436.8223,373.7227,440.8223,363.7227,444.8223,367.7227,440.8223" style="stroke:#181818;stroke-width:1.0;"/><line style="stroke:#181818;stroke-width:1.0;" x1="22.7793" x2="369.7227" y1="440.8223" y2="440.8223"/><text fill="#000000" font-family="sans-serif" font-size="13" lengthAdjust="spacing" textLength="90.3462" x="29.7793" y="435.5596">choose building</text><polygon fill="#181818" points="848.0645,436.8223,858.0645,440.8223,848.0645,444.8223,852.0645,440.8223" style="stroke:#181818;stroke-width:1.0;"/><line style="stroke:#181818;stroke-width:1.0;" x1="385.7227" x2="854.0645" y1="440.8223" y2="440.8223"/><text fill="#000000" font-family="sans-serif" font-size="13" lengthAdjust="spacing" textLength="101.8735" x="392.7227" y="435.5596">tryPlaceBuilding()</text><polygon fill="#181818" points="33.7793,468.1133,23.7793,472.1133,33.7793,476.1133,29.7793,472.1133" style="stroke:#181818;stroke-width:1.0;"/><line style="stroke:#181818;stroke-width:1.0;" x1="27.7793" x2="859.0645" y1="472.1133" y2="472.1133"/><text fill="#000000" font-family="sans-serif" font-size="13" lengthAdjust="spacing" textLength="122.1289" x="39.7793" y="466.8506">location choice mode</text><polygon fill="#181818" points="848.0645,499.4043,858.0645,503.4043,848.0645,507.4043,852.0645,503.4043" style="stroke:#181818;stroke-width:1.0;"/><line style="stroke:#181818;stroke-width:1.0;" x1="22.7793" x2="854.0645" y1="503.4043" y2="503.4043"/><text fill="#000000" font-family="sans-serif" font-size="13" lengthAdjust="spacing" textLength="90.3398" x="29.7793" y="498.1416">choose location</text><polygon fill="#181818" points="33.7793,530.6953,23.7793,534.6953,33.7793,538.6953,29.7793,534.6953" style="stroke:#181818;stroke-width:1.0;"/><line style="stroke:#181818;stroke-width:1.0;" x1="27.7793" x2="859.0645" y1="534.6953" y2="534.6953"/><text fill="#000000" font-family="sans-serif" font-size="13" lengthAdjust="spacing" textLength="86.0044" x="39.7793" y="529.4326">render building</text><polygon fill="#181818" points="363.7227,561.9863,373.7227,565.9863,363.7227,569.9863,367.7227,565.9863" style="stroke:#181818;stroke-width:1.0;"/><line style="stroke:#181818;stroke-width:1.0;" x1="22.7793" x2="369.7227" y1="565.9863" y2="565.9863"/><text fill="#000000" font-family="sans-serif" font-size="13" lengthAdjust="spacing" textLength="48.4072" x="29.7793" y="560.7236">Resume</text><polygon fill="#181818" points="967.3848,561.9863,977.3848,565.9863,967.3848,569.9863,971.3848,565.9863" style="stroke:#181818;stroke-width:1.0;"/><line style="stroke:#181818;stroke-width:1.0;" x1="385.7227" x2="973.3848" y1="565.9863" y2="565.9863"/><text fill="#000000" font-family="sans-serif" font-size="13" lengthAdjust="spacing" textLength="90.2891" x="392.7227" y="560.7236">userStartTime()</text><line style="stroke:#181818;stroke-width:1.0;" x1="385.7227" x2="427.7227" y1="597.2773" y2="597.2773"/><line style="stroke:#181818;stroke-width:1.0;" x1="427.7227" x2="427.7227" y1="597.2773" y2="610.2773"/><line style="stroke:#181818;stroke-width:1.0;" x1="386.7227" x2="427.7227" y1="610.2773" y2="610.2773"/><polygon fill="#181818" points="396.7227,606.2773,386.7227,610.2773,396.7227,614.2773,392.7227,610.2773" style="stroke:#181818;stroke-width:1.0;"/><text fill="#000000" font-family="sans-serif" font-size="13" lengthAdjust="spacing" textLength="204.5151" x="392.7227" y="592.0146">change Resume icon to Pause icon</text><polygon fill="#181818" points="363.7227,637.5684,373.7227,641.5684,363.7227,645.5684,367.7227,641.5684" style="stroke:#181818;stroke-width:1.0;"/><line style="stroke:#181818;stroke-width:1.0;" x1="22.7793" x2="369.7227" y1="641.5684" y2="641.5684"/><text fill="#000000" font-family="sans-serif" font-size="13" lengthAdjust="spacing" textLength="46.9727" x="29.7793" y="636.3057">Settings</text><polygon fill="#181818" points="967.3848,637.5684,977.3848,641.5684,967.3848,645.5684,971.3848,641.5684" style="stroke:#181818;stroke-width:1.0;"/><line style="stroke:#181818;stroke-width:1.0;" x1="385.7227" x2="973.3848" y1="641.5684" y2="641.5684"/><text fill="#000000" font-family="sans-serif" font-size="13" lengthAdjust="spacing" textLength="105.46" x="392.7227" y="636.3057">systemStopTime()</text><polygon fill="#181818" points="587.2378,668.8594,597.2378,672.8594,587.2378,676.8594,591.2378,672.8594" style="stroke:#181818;stroke-width:1.0;"/><line style="stroke:#181818;stroke-width:1.0;" x1="385.7227" x2="593.2378" y1="672.8594" y2="672.8594"/><text fill="#000000" font-family="sans-serif" font-size="13" lengthAdjust="spacing" textLength="124.2808" x="392.7227" y="667.5967">new SettingsScreen()</text><polygon fill="#181818" points="33.7793,700.1504,23.7793,704.1504,33.7793,708.1504,29.7793,704.1504" style="stroke:#181818;stroke-width:1.0;"/><line style="stroke:#181818;stroke-width:1.0;" x1="27.7793" x2="598.2378" y1="704.1504" y2="704.1504"/><text fill="#000000" font-family="sans-serif" font-size="13" lengthAdjust="spacing" textLength="39.0063" x="39.7793" y="698.8877">show()</text><polygon fill="#181818" points="587.2378,731.4414,597.2378,735.4414,587.2378,739.4414,591.2378,735.4414" style="stroke:#181818;stroke-width:1.0;"/><line style="stroke:#181818;stroke-width:1.0;" x1="22.7793" x2="593.2378" y1="735.4414" y2="735.4414"/><text fill="#000000" font-family="sans-serif" font-size="13" lengthAdjust="spacing" textLength="128.6162" x="29.7793" y="730.1787">Change music volume</text><polygon fill="#181818" points="1090.9741,731.4414,1100.9741,735.4414,1090.9741,739.4414,1094.9741,735.4414" style="stroke:#181818;stroke-width:1.0;"/><line style="stroke:#181818;stroke-width:1.0;" x1="609.2378" x2="1096.9741" y1="735.4414" y2="735.4414"/><text fill="#000000" font-family="sans-serif" font-size="13" lengthAdjust="spacing" textLength="104.0254" x="616.2378" y="730.1787">setMusicVolume()</text><polygon fill="#181818" points="1229.7295,762.7324,1239.7295,766.7324,1229.7295,770.7324,1233.7295,766.7324" style="stroke:#181818;stroke-width:1.0;"/><line style="stroke:#181818;stroke-width:1.0;" x1="609.2378" x2="1235.7295" y1="766.7324" y2="766.7324"/><text fill="#000000" font-family="sans-serif" font-size="13" lengthAdjust="spacing" textLength="32.5063" x="616.2378" y="761.4697">play()</text><polygon fill="#181818" points="1123.9741,794.0234,1113.9741,798.0234,1123.9741,802.0234,1119.9741,798.0234" style="stroke:#181818;stroke-width:1.0;"/><line style="stroke:#181818;stroke-width:1.0;" x1="1117.9741" x2="1240.7295" y1="798.0234" y2="798.0234"/><text fill="#000000" font-family="sans-serif" font-size="13" lengthAdjust="spacing" textLength="104.7554" x="1129.9741" y="792.7607">getMusicVolume()</text><polygon fill="#181818" points="33.7793,825.3145,23.7793,829.3145,33.7793,833.3145,29.7793,829.3145" style="stroke:#181818;stroke-width:1.0;"/><line style="stroke:#181818;stroke-width:1.0;" x1="27.7793" x2="1240.7295" y1="829.3145" y2="829.3145"/><text fill="#000000" font-family="sans-serif" font-size="13" lengthAdjust="spacing" textLength="190.7598" x="39.7793" y="824.0518">play soundtrack with new volume</text><polygon fill="#181818" points="587.2378,856.6055,597.2378,860.6055,587.2378,864.6055,591.2378,860.6055" style="stroke:#181818;stroke-width:1.0;"/><line style="stroke:#181818;stroke-width:1.0;" x1="22.7793" x2="593.2378" y1="860.6055" y2="860.6055"/><text fill="#000000" font-family="sans-serif" font-size="13" lengthAdjust="spacing" textLength="28.9009" x="29.7793" y="855.3428">Back</text><polygon fill="#181818" points="396.7227,887.8965,386.7227,891.8965,396.7227,895.8965,392.7227,891.8965" style="stroke:#181818;stroke-width:1.0;"/><line style="stroke:#181818;stroke-width:1.0;" x1="390.7227" x2="598.2378" y1="891.8965" y2="891.8965"/><text fill="#000000" font-family="sans-serif" font-size="13" lengthAdjust="spacing" textLength="157.5171" x="402.7227" y="886.6338">setScreen(previousScreen)</text><text fill="#000000" font-family="sans-serif" font-size="11" lengthAdjust="spacing" textLength="72.1445" x="598.6821" y="925.7666">3 minutes later</text><polygon fill="#181818" points="396.7227,961.8184,386.7227,965.8184,396.7227,969.8184,392.7227,965.8184" style="stroke:#181818;stroke-width:1.0;"/><line style="stroke:#181818;stroke-width:1.0;" x1="390.7227" x2="978.3848" y1="965.8184" y2="965.8184"/><text fill="#000000" font-family="sans-serif" font-size="13" lengthAdjust="spacing" textLength="70.8081" x="402.7227" y="960.5557">time expired</text><polygon fill="#181818" points="715.1201,993.1094,725.1201,997.1094,715.1201,1001.1094,719.1201,997.1094" style="stroke:#181818;stroke-width:1.0;"/><line style="stroke:#181818;stroke-width:1.0;" x1="385.7227" x2="721.1201" y1="997.1094" y2="997.1094"/><text fill="#000000" font-family="sans-serif" font-size="13" lengthAdjust="spacing" textLength="140.8799" x="392.7227" y="991.8467">new GameOverScreen()</text><polygon fill="#181818" points="1229.7295,1024.4004,1239.7295,1028.4004,1229.7295,1032.4004,1233.7295,1028.4004" style="stroke:#181818;stroke-width:1.0;"/><line style="stroke:#181818;stroke-width:1.0;" x1="737.1201" x2="1235.7295" y1="1028.4004" y2="1028.4004"/><text fill="#000000" font-family="sans-serif" font-size="13" lengthAdjust="spacing" textLength="44.0781" x="744.1201" y="1023.1377">pause()</text><polygon fill="#181818" points="33.7793,1055.6914,23.7793,1059.6914,33.7793,1063.6914,29.7793,1059.6914" style="stroke:#181818;stroke-width:1.0;"/><line style="stroke:#181818;stroke-width:1.0;" x1="27.7793" x2="1240.7295" y1="1059.6914" y2="1059.6914"/><text fill="#000000" font-family="sans-serif" font-size="13" lengthAdjust="spacing" textLength="102.6226" x="39.7793" y="1054.4287">pause soundtrack</text><polygon fill="#181818" points="33.7793,1086.9824,23.7793,1090.9824,33.7793,1094.9824,29.7793,1090.9824" style="stroke:#181818;stroke-width:1.0;"/><line style="stroke:#181818;stroke-width:1.0;" x1="27.7793" x2="726.1201" y1="1090.9824" y2="1090.9824"/><text fill="#000000" font-family="sans-serif" font-size="13" lengthAdjust="spacing" textLength="39.0063" x="39.7793" y="1085.7197">show()</text><polygon fill="#181818" points="715.1201,1118.2734,725.1201,1122.2734,715.1201,1126.2734,719.1201,1122.2734" style="stroke:#181818;stroke-width:1.0;"/><line style="stroke:#181818;stroke-width:1.0;" x1="22.7793" x2="721.1201" y1="1122.2734" y2="1122.2734"/><text fill="#000000" font-family="sans-serif" font-size="13" lengthAdjust="spacing" textLength="23.8418" x="29.7793" y="1117.0107">Quit</text><polygon fill="#181818" points="134.2583,1149.5645,124.2583,1153.5645,134.2583,1157.5645,130.2583,1153.5645" style="stroke:#181818;stroke-width:1.0;"/><line style="stroke:#181818;stroke-width:1.0;" x1="128.2583" x2="726.1201" y1="1153.5645" y2="1153.5645"/><text fill="#000000" font-family="sans-serif" font-size="13" lengthAdjust="spacing" textLength="28.8882" x="140.2583" y="1148.3018">exit()</text><polygon fill="#181818" points="33.7793,1180.8555,23.7793,1184.8555,33.7793,1188.8555,29.7793,1184.8555" style="stroke:#181818;stroke-width:1.0;"/><line style="stroke:#181818;stroke-width:1.0;" x1="27.7793" x2="112.2583" y1="1184.8555" y2="1184.8555"/><text fill="#000000" font-family="sans-serif" font-size="13" lengthAdjust="spacing" textLength="66.479" x="39.7793" y="1179.5928">close game</text><!--SRC=[hLPVJzim47_FfxYzeFQ1YZ8qK3HDKs53i5KmMdWtpj5QI-p8SShOfzyvJLCdiGD8wrDp_-ztvxi3sFu-v9gjCWO6rLymkiIePW3ZHccuBr0tf9nf8xZ8cJGmPq9w6KjXKbnmZIW3Yla0Tu762Bag1aGkMOOt6zG38hDIf0cPcJF9Le44hgGrj1HPW6-vjngVKAFaMFYZLQLCZ6RyTyEsWC7XbmgV60f3qh0YKowkOiCCjX5ig1wJ3SyNSiCCnMlTs83sXY66F6Klet4Zu_0-asZ75CclqCpBGl07bPOP-ZL9iKf-QnsAVYAxK9mM8Mc9pox5CTxavkifryZUTR5Mpuw5NJNQ7cyfFbyzkervq7NIYDHXDz-EomD7YbGwhLWhTgY-d4CzdE0WB2tdmw2usTooii1G3axVaIW9weLHkVrshBOqNDDypUGAjnv0S2N1ABZ3WXgf-XoCYw-L8hN76eotespq2vMPuuxZHDeLtWELAiwCe0Z9hU08cKgm5rxVLntaJliDZkXX9VIdbvOFWYrKxwaDpPnt5iSfXwtElbQ3aUs6zTjYW-AbC9YzrZhj3L2_bpRHzrm2YwDZxTKtqVD-lWKeizCFDjNuSzBjc-_FpY8uEtlA-sawDAB__uI6Ps7M5T2T38EmpDovta_4xHBAlovRhd4ZL5dBZNqZBL36oMJo4J8XIqF9fYIeYT9mtJxhE3T41FoJ2us9lz_QvqJTRssYhzy2LuYJId-VECpGTEz4qzlRzc6-MjpgzNhsRz_uy6FeGVEh56R0MhNVOu9Rc96tkhu3nc67JfYEo33iY_3TKMVBKpkjMqTPgspEMVQLvdIPfL54kqIQ-_bF8D-5tH3JoV7HySdaTBHWzchDuUWKfiVnz2oUdi9iiGJB7aUZ-TNIbaBJDab4ORHuBEsE64VNRCFWhfIsGsEuoL5UN_pO4U2Rt0YjP8RIHDSFyxt0fvF3cR0UDKK23_Fe0fzOcHhIuCfsL0pto- -7Pz5FcbibzHRLGqRd10fjn1WkP_y0]--></g></svg>