<svg xmlns="http://www.w3.org/2000/svg" xmlns:xlink="http://www.w3.org/1999/xlink" contentStyleType="text/css" height="2053px" preserveAspectRatio="none" style="width:3512px;height:2053px;background:#FFFFFF;" version="1.1" viewBox="0 0 3512 2053" width="3512px" zoomAndPan="magnify"><defs/><g><!--cluster building--><g id="cluster_building"><path d="M464.5,6.0137 L519.9277,6.0137 A3.75,3.75 0 0 1 522.4277,8.5137 L529.4277,30.6348 L2924.5,30.6348 A2.5,2.5 0 0 1 2927,33.1348 L2927,1878.0137 A2.5,2.5 0 0 1 2924.5,1880.5137 L464.5,1880.5137 A2.5,2.5 0 0 1 462,1878.0137 L462,8.5137 A2.5,2.5 0 0 1 464.5,6.0137 " fill="none" style="stroke:#000000;stroke-width:1.5;"/><line style="stroke:#000000;stroke-width:1.5;" x1="462" x2="529.4277" y1="30.6348" y2="30.6348"/><text fill="#000000" font-family="sans-serif" font-size="14" font-weight="bold" lengthAdjust="spacing" textLength="54.4277" x="466" y="23.1211">building</text></g><!--cluster factory--><g id="cluster_factory"><path d="M1062.5,659.0137 L1110.1826,659.0137 A3.75,3.75 0 0 1 1112.6826,661.5137 L1119.6826,683.6348 L1779.5,683.6348 A2.5,2.5 0 0 1 1782,686.1348 L1782,1154.5137 A2.5,2.5 0 0 1 1779.5,1157.0137 L1062.5,1157.0137 A2.5,2.5 0 0 1 1060,1154.5137 L1060,661.5137 A2.5,2.5 0 0 1 1062.5,659.0137 " fill="none" style="stroke:#000000;stroke-width:1.5;"/><line style="stroke:#000000;stroke-width:1.5;" x1="1060" x2="1119.6826" y1="683.6348" y2="683.6348"/><text fill="#000000" font-family="sans-serif" font-size="14" font-weight="bold" lengthAdjust="spacing" textLength="46.6826" x="1064" y="676.1211">factory</text></g><!--cluster impl--><g id="cluster_impl"><path d="M1808.5,686.5137 L1838.2793,686.5137 A3.75,3.75 0 0 1 1840.7793,689.0137 L1847.7793,711.1348 L2900.5,711.1348 A2.5,2.5 0 0 1 2903,713.6348 L2903,804.0137 A2.5,2.5 0 0 1 2900.5,806.5137 L1808.5,806.5137 A2.5,2.5 0 0 1 1806,804.0137 L1806,689.0137 A2.5,2.5 0 0 1 1808.5,686.5137 " fill="none" style="stroke:#000000;stroke-width:1.5;"/><line style="stroke:#000000;stroke-width:1.5;" x1="1806" x2="1847.7793" y1="711.1348" y2="711.1348"/><text fill="#000000" font-family="sans-serif" font-size="14" font-weight="bold" lengthAdjust="spacing" textLength="28.7793" x="1810" y="703.6211">impl</text></g><!--cluster setting--><g id="cluster_setting"><path d="M160.5,1019.0137 L207.3896,1019.0137 A3.75,3.75 0 0 1 209.8896,1021.5137 L216.8896,1043.6348 L283.5,1043.6348 A2.5,2.5 0 0 1 286,1046.1348 L286,1117.5137 A2.5,2.5 0 0 1 283.5,1120.0137 L160.5,1120.0137 A2.5,2.5 0 0 1 158,1117.5137 L158,1021.5137 A2.5,2.5 0 0 1 160.5,1019.0137 " fill="none" style="stroke:#000000;stroke-width:1.5;"/><line style="stroke:#000000;stroke-width:1.5;" x1="158" x2="216.8896" y1="1043.6348" y2="1043.6348"/><text fill="#000000" font-family="sans-serif" font-size="14" font-weight="bold" lengthAdjust="spacing" textLength="45.8896" x="162" y="1036.1211">setting</text></g><!--cluster currency--><g id="cluster_currency"><path d="M8.5,1453.5137 L68.6445,1453.5137 A3.75,3.75 0 0 1 71.1445,1456.0137 L78.1445,1478.1348 L435.5,1478.1348 A2.5,2.5 0 0 1 438,1480.6348 L438,2044.0137 A2.5,2.5 0 0 1 435.5,2046.5137 L8.5,2046.5137 A2.5,2.5 0 0 1 6,2044.0137 L6,1456.0137 A2.5,2.5 0 0 1 8.5,1453.5137 " fill="none" style="stroke:#000000;stroke-width:1.5;"/><line style="stroke:#000000;stroke-width:1.5;" x1="6" x2="78.1445" y1="1478.1348" y2="1478.1348"/><text fill="#000000" font-family="sans-serif" font-size="14" font-weight="bold" lengthAdjust="spacing" textLength="59.1445" x="10" y="1470.6211">currency</text></g><!--cluster timer--><g id="cluster_timer"><path d="M2953.5,1500.0137 L2988.7344,1500.0137 A3.75,3.75 0 0 1 2991.2344,1502.5137 L2998.2344,1524.6348 L3502.5,1524.6348 A2.5,2.5 0 0 1 3505,1527.1348 L3505,1691.5137 A2.5,2.5 0 0 1 3502.5,1694.0137 L2953.5,1694.0137 A2.5,2.5 0 0 1 2951,1691.5137 L2951,1502.5137 A2.5,2.5 0 0 1 2953.5,1500.0137 " fill="none" style="stroke:#000000;stroke-width:1.5;"/><line style="stroke:#000000;stroke-width:1.5;" x1="2951" x2="2998.2344" y1="1524.6348" y2="1524.6348"/><text fill="#000000" font-family="sans-serif" font-size="14" font-weight="bold" lengthAdjust="spacing" textLength="34.2344" x="2955" y="1517.1211">timer</text></g><!--class AbstractBuilding--><g id="elem_AbstractBuilding"><rect codeLine="37" fill="#F1F1F1" height="383.1797" id="AbstractBuilding" rx="2.5" ry="2.5" style="stroke:#181818;stroke-width:0.5;" width="483.5908" x="1893" y="888.5137"/><ellipse cx="2079.9629" cy="904.5137" fill="#A9DCDF" rx="11" ry="11" style="stroke:#181818;stroke-width:1.0;"/><path d="M2082.1504,906.2793 L2078.0098,906.2793 L2077.5879,907.3105 L2078.0098,907.3105 Q2078.6191,907.3105 2078.8848,907.5449 Q2079.1504,907.7793 2079.1504,908.1699 Q2079.1504,908.5449 2078.8848,908.7793 Q2078.6191,909.0137 2078.0098,909.0137 L2075.7129,909.0137 Q2075.1035,909.0137 2074.8535,908.7793 Q2074.5879,908.5449 2074.5879,908.1543 Q2074.5879,907.7793 2074.8691,907.5449 Q2075.1348,907.2949 2075.7598,907.3105 L2078.4316,900.6543 L2077.3223,900.6543 Q2076.7129,900.6543 2076.4473,900.4199 Q2076.1816,900.1855 2076.1816,899.7949 Q2076.1816,899.4199 2076.4473,899.1855 Q2076.7129,898.9512 2077.3223,898.9512 L2080.9941,898.9512 L2084.3848,907.3105 Q2084.9785,907.3105 2085.166,907.4512 Q2085.5566,907.7168 2085.5566,908.1699 Q2085.5566,908.5449 2085.291,908.7793 Q2085.041,909.0137 2084.4316,909.0137 L2082.1348,909.0137 Q2081.5254,909.0137 2081.2598,908.7793 Q2080.9941,908.5449 2080.9941,908.1543 Q2080.9941,907.7793 2081.2598,907.5449 Q2081.5254,907.3105 2082.1348,907.3105 L2082.5566,907.3105 L2082.1504,906.2793 Z M2081.4316,904.5762 L2080.0723,901.2012 L2078.6973,904.5762 L2081.4316,904.5762 Z " fill="#000000"/><text fill="#000000" font-family="sans-serif" font-size="14" font-style="italic" lengthAdjust="spacing" textLength="101.165" x="2100.4629" y="910.3105">AbstractBuilding</text><line style="stroke:#181818;stroke-width:0.5;" x1="1894" x2="2375.5908" y1="920.5137" y2="920.5137"/><rect fill="none" height="6" style="stroke:#C82930;stroke-width:1.0;" width="6" x="1901" y="932.3242"/><text fill="#000000" font-family="sans-serif" font-size="14" lengthAdjust="spacing" textLength="171.9922" x="1913" y="939.6211">buildingType : BuildingType</text><rect fill="none" height="6" style="stroke:#C82930;stroke-width:1.0;" width="6" x="1901" y="950.9453"/><text fill="#000000" font-family="sans-serif" font-size="14" lengthAdjust="spacing" textLength="82.4756" x="1913" y="958.2422">sprite : Sprite</text><rect fill="none" height="6" style="stroke:#C82930;stroke-width:1.0;" width="6" x="1901" y="969.5664"/><text fill="#000000" font-family="sans-serif" font-size="14" lengthAdjust="spacing" textLength="181.2891" x="1913" y="976.8633">buildingTimer : BuildingTimer</text><rect fill="none" height="6" style="stroke:#C82930;stroke-width:1.0;" width="6" x="1901" y="988.1875"/><text fill="#000000" font-family="sans-serif" font-size="14" lengthAdjust="spacing" textLength="100.3926" x="1913" y="995.4844">isBuilt : Boolean</text><rect fill="none" height="6" style="stroke:#C82930;stroke-width:1.0;" width="6" x="1901" y="1006.8086"/><text fill="#000000" font-family="sans-serif" font-size="14" lengthAdjust="spacing" textLength="132.3027" x="1913" y="1014.1055">buildingCost : Integer</text><rect fill="none" height="6" style="stroke:#C82930;stroke-width:1.0;" width="6" x="1901" y="1025.4297"/><text fill="#000000" font-family="sans-serif" font-size="14" lengthAdjust="spacing" textLength="175.0957" x="1913" y="1032.7266">currencyGenerated : Integer</text><line style="stroke:#181818;stroke-width:0.5;" x1="1894" x2="2375.5908" y1="1040.2402" y2="1040.2402"/><ellipse cx="1904" cy="1055.0508" fill="#84BE84" rx="3" ry="3" style="stroke:#038048;stroke-width:1.0;"/><text fill="#000000" font-family="sans-serif" font-size="14" lengthAdjust="spacing" textLength="457.5908" x="1913" y="1059.3477">AbstractBuilding(buildingType:BuildingType, buildingSprite:BuildingSprite)</text><ellipse cx="1904" cy="1073.6719" fill="#84BE84" rx="3" ry="3" style="stroke:#038048;stroke-width:1.0;"/><text fill="#000000" font-family="sans-serif" font-size="14" lengthAdjust="spacing" textLength="203.875" x="1913" y="1077.9688">getAttributeString() : List&lt;String&gt;</text><ellipse cx="1904" cy="1092.293" fill="#84BE84" rx="3" ry="3" style="stroke:#038048;stroke-width:1.0;"/><text fill="#000000" font-family="sans-serif" font-size="14" lengthAdjust="spacing" textLength="162.6406" x="1913" y="1096.5898">getBuildingCost() : Integer</text><ellipse cx="1904" cy="1110.9141" fill="#84BE84" rx="3" ry="3" style="stroke:#038048;stroke-width:1.0;"/><text fill="#000000" font-family="sans-serif" font-size="14" lengthAdjust="spacing" textLength="206.9922" x="1913" y="1115.2109">getCurrencyGenerated() : Integer</text><ellipse cx="1904" cy="1129.5352" fill="#84BE84" rx="3" ry="3" style="stroke:#038048;stroke-width:1.0;"/><text fill="#000000" font-family="sans-serif" font-size="14" lengthAdjust="spacing" textLength="202.3301" x="1913" y="1133.832">getBuildingType() : BuildingType</text><ellipse cx="1904" cy="1148.1563" fill="#84BE84" rx="3" ry="3" style="stroke:#038048;stroke-width:1.0;"/><text fill="#000000" font-family="sans-serif" font-size="14" lengthAdjust="spacing" textLength="113.5996" x="1913" y="1152.4531">getSprite() : Sprite</text><ellipse cx="1904" cy="1166.7773" fill="#84BE84" rx="3" ry="3" style="stroke:#038048;stroke-width:1.0;"/><text fill="#000000" font-family="sans-serif" font-size="14" lengthAdjust="spacing" textLength="100.3789" x="1913" y="1171.0742">getInfo() : String</text><ellipse cx="1904" cy="1185.3984" fill="#84BE84" rx="3" ry="3" style="stroke:#038048;stroke-width:1.0;"/><text fill="#000000" font-family="sans-serif" font-size="14" lengthAdjust="spacing" textLength="221.7715" x="1913" y="1189.6953">setMapPosition(x:Integer, y:Integer)</text><ellipse cx="1904" cy="1204.0195" fill="#84BE84" rx="3" ry="3" style="stroke:#038048;stroke-width:1.0;"/><text fill="#000000" font-family="sans-serif" font-size="14" lengthAdjust="spacing" textLength="165.7441" x="1913" y="1208.3164">getMapPosition() : Vector2</text><ellipse cx="1904" cy="1222.6406" fill="#84BE84" rx="3" ry="3" style="stroke:#038048;stroke-width:1.0;"/><text fill="#000000" font-family="sans-serif" font-size="14" lengthAdjust="spacing" textLength="308.9502" x="1913" y="1226.9375">distanceBetween(other:AbstractBuilding) : Double</text><ellipse cx="1904" cy="1241.2617" fill="#84BE84" rx="3" ry="3" style="stroke:#038048;stroke-width:1.0;"/><text fill="#000000" font-family="sans-serif" font-size="14" lengthAdjust="spacing" textLength="187.5303" x="1913" y="1245.5586">draw(batch:SpriteBatch) : void</text><ellipse cx="1904" cy="1259.8828" fill="#84BE84" rx="3" ry="3" style="stroke:#038048;stroke-width:1.0;"/><text fill="#000000" font-family="sans-serif" font-size="14" lengthAdjust="spacing" textLength="211.627" x="1913" y="1264.1797">getBuildingTimer() : BuildingTimer</text></g><!--class BuildingAttribute--><g id="elem_BuildingAttribute"><rect codeLine="57" fill="#F1F1F1" height="178.3477" id="BuildingAttribute" rx="2.5" ry="2.5" style="stroke:#181818;stroke-width:0.5;" width="212.7578" x="2121.5" y="238.5137"/><ellipse cx="2172.6533" cy="254.5137" fill="#EB937F" rx="11" ry="11" style="stroke:#181818;stroke-width:1.0;"/><path d="M2171.5127,255.3105 L2171.5127,257.8105 L2175.8408,257.8105 L2175.8408,256.8887 Q2175.8408,256.2793 2176.0752,256.0137 Q2176.3252,255.748 2176.7002,255.748 Q2177.0752,255.748 2177.3096,256.0137 Q2177.5439,256.2793 2177.5439,256.8887 L2177.5439,259.5137 L2169.5439,259.5137 Q2168.9189,259.5137 2168.6533,259.2793 Q2168.4033,259.0449 2168.4033,258.6543 Q2168.4033,258.2793 2168.6689,258.0449 Q2168.9346,257.8105 2169.5439,257.8105 L2169.8096,257.8105 L2169.8096,251.1543 L2169.5439,251.1543 Q2168.9189,251.1543 2168.6533,250.9199 Q2168.4033,250.6855 2168.4033,250.2949 Q2168.4033,249.9199 2168.6533,249.6855 Q2168.9189,249.4512 2169.5439,249.4512 L2177.1689,249.4512 L2177.1689,252.0449 Q2177.1689,252.6543 2176.9346,252.9199 Q2176.7158,253.1699 2176.3252,253.1699 Q2175.9502,253.1699 2175.7158,252.9199 Q2175.4814,252.6543 2175.4814,252.0449 L2175.4814,251.1543 L2171.5127,251.1543 L2171.5127,253.6074 L2172.9971,253.6074 Q2172.9971,252.9512 2173.1221,252.7637 Q2173.3877,252.3574 2173.8564,252.3574 Q2174.2314,252.3574 2174.4658,252.623 Q2174.7002,252.873 2174.7002,253.4824 L2174.7002,255.4512 Q2174.7002,255.998 2174.5752,256.1855 Q2174.3096,256.5762 2173.8564,256.5762 Q2173.3877,256.5762 2173.1221,256.1699 Q2172.9971,255.9824 2172.9971,255.3105 L2171.5127,255.3105 Z " fill="#000000"/><text fill="#000000" font-family="sans-serif" font-size="14" lengthAdjust="spacing" textLength="101.9512" x="2193.1533" y="260.3105">BuildingAttribute</text><line style="stroke:#181818;stroke-width:0.5;" x1="2122.5" x2="2333.2578" y1="270.5137" y2="270.5137"/><text fill="#000000" font-family="sans-serif" font-size="14" lengthAdjust="spacing" textLength="82.4482" x="2141.5" y="289.6211">EDUCATION</text><text fill="#000000" font-family="sans-serif" font-size="14" lengthAdjust="spacing" textLength="127.5518" x="2141.5" y="308.2422">ACCOMMODATION</text><text fill="#000000" font-family="sans-serif" font-size="14" lengthAdjust="spacing" textLength="59.9102" x="2141.5" y="326.8633">LEISURE</text><text fill="#000000" font-family="sans-serif" font-size="14" lengthAdjust="spacing" textLength="98" x="2141.5" y="345.4844">FOOD_COURT</text><rect fill="none" height="6" style="stroke:#C82930;stroke-width:1.0;" width="6" x="2129.5" y="356.8086"/><text fill="#000000" font-family="sans-serif" font-size="14" lengthAdjust="spacing" textLength="83.2617" x="2141.5" y="364.1055">name : String</text><line style="stroke:#181818;stroke-width:0.5;" x1="2122.5" x2="2333.2578" y1="371.6191" y2="371.6191"/><ellipse cx="2132.5" cy="386.4297" fill="#84BE84" rx="3" ry="3" style="stroke:#038048;stroke-width:1.0;"/><text fill="#000000" font-family="sans-serif" font-size="14" lengthAdjust="spacing" textLength="186.7578" x="2141.5" y="390.7266">BuildingAttribute(name:String)</text><ellipse cx="2132.5" cy="405.0508" fill="#84BE84" rx="3" ry="3" style="stroke:#038048;stroke-width:1.0;"/><text fill="#000000" font-family="sans-serif" font-size="14" lengthAdjust="spacing" textLength="114.3721" x="2141.5" y="409.3477">getName() : String</text></g><!--class BuildingManager--><g id="elem_BuildingManager"><rect codeLine="66" fill="#F1F1F1" height="569.3906" id="BuildingManager" rx="2.5" ry="2.5" style="stroke:#181818;stroke-width:0.5;" width="699.1621" x="812.5" y="43.0137"/><ellipse cx="1105.2969" cy="59.0137" fill="#ADD1B2" rx="11" ry="11" style="stroke:#181818;stroke-width:1.0;"/><path d="M1108.0625,54.8887 Q1108.2188,54.6699 1108.4063,54.5605 Q1108.5938,54.4512 1108.8125,54.4512 Q1109.1875,54.4512 1109.4219,54.7168 Q1109.6563,54.9668 1109.6563,55.5762 L1109.6563,57.0293 Q1109.6563,57.6387 1109.4219,57.9043 Q1109.1875,58.1699 1108.8125,58.1699 Q1108.4688,58.1699 1108.2656,57.9668 Q1108.0625,57.7793 1107.9531,57.2637 Q1107.9063,56.9043 1107.7188,56.7168 Q1107.3906,56.3418 1106.7813,56.123 Q1106.1719,55.9043 1105.5469,55.9043 Q1104.7813,55.9043 1104.1406,56.2324 Q1103.5156,56.5605 1103.0156,57.3105 Q1102.5313,58.0605 1102.5313,59.0918 L1102.5313,60.1855 Q1102.5313,61.4199 1103.4219,62.248 Q1104.3125,63.0605 1105.9063,63.0605 Q1106.8438,63.0605 1107.5,62.8105 Q1107.8906,62.6543 1108.3125,62.2168 Q1108.5781,61.9512 1108.7188,61.873 Q1108.875,61.7949 1109.0781,61.7949 Q1109.4063,61.7949 1109.6563,62.0605 Q1109.9219,62.3105 1109.9219,62.6543 Q1109.9219,62.998 1109.5781,63.4043 Q1109.0781,63.9824 1108.2813,64.3105 Q1107.2031,64.7637 1105.9063,64.7637 Q1104.3906,64.7637 1103.1875,64.1387 Q1102.2031,63.6387 1101.5156,62.5762 Q1100.8281,61.498 1100.8281,60.2168 L1100.8281,59.0605 Q1100.8281,57.7324 1101.4375,56.5918 Q1102.0625,55.4355 1103.1563,54.8262 Q1104.25,54.2012 1105.4844,54.2012 Q1106.2188,54.2012 1106.8594,54.373 Q1107.5156,54.5293 1108.0625,54.8887 Z " fill="#000000"/><text fill="#000000" font-family="sans-serif" font-size="14" lengthAdjust="spacing" textLength="105.0684" x="1125.7969" y="64.8105">BuildingManager</text><line style="stroke:#181818;stroke-width:0.5;" x1="813.5" x2="1510.6621" y1="75.0137" y2="75.0137"/><rect fill="none" height="6" style="stroke:#C82930;stroke-width:1.0;" width="6" x="820.5" y="86.8242"/><text fill="#000000" font-family="sans-serif" font-size="14" lengthAdjust="spacing" textLength="176.6543" x="832.5" y="94.1211">renderer : IBuildingRenderer</text><rect fill="none" height="6" style="stroke:#C82930;stroke-width:1.0;" width="6" x="820.5" y="105.4453"/><text fill="#000000" font-family="sans-serif" font-size="14" lengthAdjust="spacing" textLength="306.6191" x="832.5" y="112.7422">placementManager : IBuildingPlacementManager</text><rect fill="none" height="6" style="stroke:#C82930;stroke-width:1.0;" width="6" x="820.5" y="124.0664"/><text fill="#000000" font-family="sans-serif" font-size="14" lengthAdjust="spacing" textLength="185.2402" x="832.5" y="131.3633">isChoosingLocation : Boolean</text><rect fill="none" height="6" style="stroke:#C82930;stroke-width:1.0;" width="6" x="820.5" y="142.6875"/><text fill="#000000" font-family="sans-serif" font-size="14" lengthAdjust="spacing" textLength="248.2607" x="832.5" y="149.9844">buildingToBePlacedType : BuildingType</text><rect fill="none" height="6" style="stroke:#C82930;stroke-width:1.0;" width="6" x="820.5" y="161.3086"/><text fill="#000000" font-family="sans-serif" font-size="14" lengthAdjust="spacing" textLength="126.834" x="832.5" y="168.6055">currentRow : Integer</text><rect fill="none" height="6" style="stroke:#C82930;stroke-width:1.0;" width="6" x="820.5" y="179.9297"/><text fill="#000000" font-family="sans-serif" font-size="14" lengthAdjust="spacing" textLength="147.0684" x="832.5" y="187.2266">currentColumn : Integer</text><rect fill="none" height="6" style="stroke:#C82930;stroke-width:1.0;" width="6" x="820.5" y="198.5508"/><text fill="#000000" font-family="sans-serif" font-size="14" lengthAdjust="spacing" textLength="175.123" x="832.5" y="205.8477">buildingState : BuildingState</text><rect fill="none" height="6" style="stroke:#C82930;stroke-width:1.0;" width="6" x="820.5" y="217.1719"/><text fill="#000000" font-family="sans-serif" font-size="14" lengthAdjust="spacing" textLength="189.0752" x="832.5" y="224.4688">camera : OrthographicCamera</text><rect fill="none" height="6" style="stroke:#C82930;stroke-width:1.0;" width="6" x="820.5" y="235.793"/><text fill="#000000" font-family="sans-serif" font-size="14" lengthAdjust="spacing" textLength="264.585" x="832.5" y="243.0898">satisfactionManager : SatisfactionManager</text><rect fill="none" height="6" style="stroke:#C82930;stroke-width:1.0;" width="6" x="820.5" y="254.4141"/><text fill="#000000" font-family="sans-serif" font-size="14" lengthAdjust="spacing" textLength="184.4404" x="832.5" y="261.7109">eventManger : EventManager</text><rect fill="none" height="6" style="stroke:#C82930;stroke-width:1.0;" width="6" x="820.5" y="273.0352"/><text fill="#000000" font-family="sans-serif" font-size="14" lengthAdjust="spacing" textLength="308.9707" x="832.5" y="280.332">buildingCounts : HashMap&lt;BuildingType,Integer&gt;</text><rect fill="none" height="6" style="stroke:#C82930;stroke-width:1.0;" width="6" x="820.5" y="291.6563"/><text fill="#000000" font-family="sans-serif" font-size="14" lengthAdjust="spacing" textLength="258.3916" x="832.5" y="298.9531">canBePlacedAtCurrentLocation : Boolean</text><rect fill="none" height="6" style="stroke:#C82930;stroke-width:1.0;" width="6" x="820.5" y="310.2773"/><text fill="#000000" font-family="sans-serif" font-size="14" lengthAdjust="spacing" textLength="203.0957" x="832.5" y="317.5742">buildingFactory : BuildingFactory</text><line style="stroke:#181818;stroke-width:0.5;" x1="813.5" x2="1510.6621" y1="325.0879" y2="325.0879"/><ellipse cx="823.5" cy="339.8984" fill="#84BE84" rx="3" ry="3" style="stroke:#038048;stroke-width:1.0;"/><text fill="#000000" font-family="sans-serif" font-size="14" lengthAdjust="spacing" textLength="673.1621" x="832.5" y="344.1953">BuildingManager(unitScale:Float, renderer:IBuildingRendere, placementManager:BuildingPlacementManger,</text><text fill="#000000" font-family="sans-serif" font-size="14" lengthAdjust="spacing" textLength="642.7559" x="832.5" y="362.8164">timerManager:TimerManager, satisfactionManager:SatisfactionManager, eventManager EventManager)</text><ellipse cx="823.5" cy="377.1406" fill="#84BE84" rx="3" ry="3" style="stroke:#038048;stroke-width:1.0;"/><text fill="#000000" font-family="sans-serif" font-size="14" lengthAdjust="spacing" textLength="164.1924" x="832.5" y="381.4375">initBuildingCounter() : void</text><ellipse cx="823.5" cy="395.7617" fill="#84BE84" rx="3" ry="3" style="stroke:#038048;stroke-width:1.0;"/><text fill="#000000" font-family="sans-serif" font-size="14" lengthAdjust="spacing" textLength="147.8545" x="832.5" y="400.0586">setBuildingState() : void</text><ellipse cx="823.5" cy="414.3828" fill="#84BE84" rx="3" ry="3" style="stroke:#038048;stroke-width:1.0;"/><text fill="#000000" font-family="sans-serif" font-size="14" lengthAdjust="spacing" textLength="110.4893" x="832.5" y="418.6797">resetState() : void</text><ellipse cx="823.5" cy="433.0039" fill="#84BE84" rx="3" ry="3" style="stroke:#038048;stroke-width:1.0;"/><text fill="#000000" font-family="sans-serif" font-size="14" lengthAdjust="spacing" textLength="202.3232" x="832.5" y="437.3008">getBuildingTypeCounts() : String</text><ellipse cx="823.5" cy="451.625" fill="#84BE84" rx="3" ry="3" style="stroke:#038048;stroke-width:1.0;"/><text fill="#000000" font-family="sans-serif" font-size="14" lengthAdjust="spacing" textLength="308.1572" x="832.5" y="455.9219">placeBuilding(row:Integer, column : Integer) : void</text><ellipse cx="823.5" cy="470.2461" fill="#84BE84" rx="3" ry="3" style="stroke:#038048;stroke-width:1.0;"/><text fill="#000000" font-family="sans-serif" font-size="14" lengthAdjust="spacing" textLength="373.5566" x="832.5" y="474.543">chooseLocationOfBuilding(buildingType:BuildingType) : void</text><ellipse cx="823.5" cy="488.8672" fill="#84BE84" rx="3" ry="3" style="stroke:#038048;stroke-width:1.0;"/><text fill="#000000" font-family="sans-serif" font-size="14" lengthAdjust="spacing" textLength="304.2197" x="832.5" y="493.1641">setCamera(camera : OrthographicCamera) : void</text><rect fill="#F24D5C" height="6" style="stroke:#C82930;stroke-width:1.0;" width="6" x="820.5" y="504.4883"/><text fill="#000000" font-family="sans-serif" font-size="14" lengthAdjust="spacing" textLength="200.751" x="832.5" y="511.7852">getWorldCoordinates() : Vector2</text><ellipse cx="823.5" cy="526.1094" fill="#84BE84" rx="3" ry="3" style="stroke:#038048;stroke-width:1.0;"/><text fill="#000000" font-family="sans-serif" font-size="14" lengthAdjust="spacing" textLength="119.8545" x="832.5" y="530.4063">handleInput() : void</text><ellipse cx="823.5" cy="544.7305" fill="#84BE84" rx="3" ry="3" style="stroke:#038048;stroke-width:1.0;"/><text fill="#000000" font-family="sans-serif" font-size="14" lengthAdjust="spacing" textLength="89.4961" x="832.5" y="549.0273">update() : void</text><ellipse cx="823.5" cy="563.3516" fill="#84BE84" rx="3" ry="3" style="stroke:#038048;stroke-width:1.0;"/><text fill="#000000" font-family="sans-serif" font-size="14" lengthAdjust="spacing" textLength="77.7998" x="832.5" y="567.6484">reset() : void</text><ellipse cx="823.5" cy="581.9727" fill="#84BE84" rx="3" ry="3" style="stroke:#038048;stroke-width:1.0;"/><text fill="#000000" font-family="sans-serif" font-size="14" lengthAdjust="spacing" textLength="171.2129" x="832.5" y="586.2695">getBuildingCount() : Integer</text><ellipse cx="823.5" cy="600.5938" fill="#84BE84" rx="3" ry="3" style="stroke:#038048;stroke-width:1.0;"/><text fill="#000000" font-family="sans-serif" font-size="14" lengthAdjust="spacing" textLength="87.1445" x="832.5" y="604.8906">render() : void</text></g><!--class BuildingPlacementManger--><g id="elem_BuildingPlacementManger"><rect codeLine="96" fill="#F1F1F1" height="141.1055" id="BuildingPlacementManger" rx="2.5" ry="2.5" style="stroke:#181818;stroke-width:0.5;" width="478.8535" x="562.5" y="686.5137"/><ellipse cx="715.9634" cy="702.5137" fill="#ADD1B2" rx="11" ry="11" style="stroke:#181818;stroke-width:1.0;"/><path d="M718.729,698.3887 Q718.8853,698.1699 719.0728,698.0605 Q719.2603,697.9512 719.479,697.9512 Q719.854,697.9512 720.0884,698.2168 Q720.3228,698.4668 720.3228,699.0762 L720.3228,700.5293 Q720.3228,701.1387 720.0884,701.4043 Q719.854,701.6699 719.479,701.6699 Q719.1353,701.6699 718.9321,701.4668 Q718.729,701.2793 718.6196,700.7637 Q718.5728,700.4043 718.3853,700.2168 Q718.0571,699.8418 717.4478,699.623 Q716.8384,699.4043 716.2134,699.4043 Q715.4478,699.4043 714.8071,699.7324 Q714.1821,700.0605 713.6821,700.8105 Q713.1978,701.5605 713.1978,702.5918 L713.1978,703.6855 Q713.1978,704.9199 714.0884,705.748 Q714.979,706.5605 716.5728,706.5605 Q717.5103,706.5605 718.1665,706.3105 Q718.5571,706.1543 718.979,705.7168 Q719.2446,705.4512 719.3853,705.373 Q719.5415,705.2949 719.7446,705.2949 Q720.0728,705.2949 720.3228,705.5605 Q720.5884,705.8105 720.5884,706.1543 Q720.5884,706.498 720.2446,706.9043 Q719.7446,707.4824 718.9478,707.8105 Q717.8696,708.2637 716.5728,708.2637 Q715.0571,708.2637 713.854,707.6387 Q712.8696,707.1387 712.1821,706.0762 Q711.4946,704.998 711.4946,703.7168 L711.4946,702.5605 Q711.4946,701.2324 712.104,700.0918 Q712.729,698.9355 713.8228,698.3262 Q714.9165,697.7012 716.1509,697.7012 Q716.8853,697.7012 717.5259,697.873 Q718.1821,698.0293 718.729,698.3887 Z " fill="#000000"/><text fill="#000000" font-family="sans-serif" font-size="14" lengthAdjust="spacing" textLength="163.4268" x="736.4634" y="708.3105">BuildingPlacementManger</text><line style="stroke:#181818;stroke-width:0.5;" x1="563.5" x2="1040.3535" y1="718.5137" y2="718.5137"/><rect fill="none" height="6" style="stroke:#C82930;stroke-width:1.0;" width="6" x="570.5" y="730.3242"/><text fill="#000000" font-family="sans-serif" font-size="14" lengthAdjust="spacing" textLength="201.5303" x="582.5" y="737.6211">terrainLayer : TiledMapTileLayer</text><rect fill="none" height="6" style="stroke:#C82930;stroke-width:1.0;" width="6" x="570.5" y="748.9453"/><text fill="#000000" font-family="sans-serif" font-size="14" lengthAdjust="spacing" textLength="249.04" x="582.5" y="756.2422">placedBuildings : List&lt;AbstractBuilding&gt;</text><rect fill="none" height="6" style="stroke:#C82930;stroke-width:1.0;" width="6" x="570.5" y="767.5664"/><text fill="#000000" font-family="sans-serif" font-size="14" lengthAdjust="spacing" textLength="89.5029" x="582.5" y="774.8633">count : Integer</text><rect fill="none" height="6" style="stroke:#C82930;stroke-width:1.0;" width="6" x="570.5" y="786.1875"/><text fill="#000000" font-family="sans-serif" font-size="14" lengthAdjust="spacing" textLength="122.1445" x="582.5" y="793.4844">currency : Currency</text><line style="stroke:#181818;stroke-width:0.5;" x1="563.5" x2="1040.3535" y1="800.998" y2="800.998"/><ellipse cx="573.5" cy="815.8086" fill="#84BE84" rx="3" ry="3" style="stroke:#038048;stroke-width:1.0;"/><text fill="#000000" font-family="sans-serif" font-size="14" lengthAdjust="spacing" textLength="452.8535" x="582.5" y="820.1055">BuildingPlacementManger(terrainLayer:TerrainLayer, currency:Currency)</text></g><!--class BuildingSprite--><g id="elem_BuildingSprite"><rect codeLine="108" fill="#F1F1F1" height="103.8633" id="BuildingSprite" rx="2.5" ry="2.5" style="stroke:#181818;stroke-width:0.5;" width="154.3994" x="1553" y="1555.5137"/><ellipse cx="1584.2062" cy="1571.5137" fill="#ADD1B2" rx="11" ry="11" style="stroke:#181818;stroke-width:1.0;"/><path d="M1586.9718,1567.3887 Q1587.128,1567.1699 1587.3155,1567.0605 Q1587.503,1566.9512 1587.7218,1566.9512 Q1588.0968,1566.9512 1588.3312,1567.2168 Q1588.5655,1567.4668 1588.5655,1568.0762 L1588.5655,1569.5293 Q1588.5655,1570.1387 1588.3312,1570.4043 Q1588.0968,1570.6699 1587.7218,1570.6699 Q1587.378,1570.6699 1587.1749,1570.4668 Q1586.9718,1570.2793 1586.8624,1569.7637 Q1586.8155,1569.4043 1586.628,1569.2168 Q1586.2999,1568.8418 1585.6905,1568.623 Q1585.0812,1568.4043 1584.4562,1568.4043 Q1583.6905,1568.4043 1583.0499,1568.7324 Q1582.4249,1569.0605 1581.9249,1569.8105 Q1581.4405,1570.5605 1581.4405,1571.5918 L1581.4405,1572.6855 Q1581.4405,1573.9199 1582.3312,1574.748 Q1583.2218,1575.5605 1584.8155,1575.5605 Q1585.753,1575.5605 1586.4093,1575.3105 Q1586.7999,1575.1543 1587.2218,1574.7168 Q1587.4874,1574.4512 1587.628,1574.373 Q1587.7843,1574.2949 1587.9874,1574.2949 Q1588.3155,1574.2949 1588.5655,1574.5605 Q1588.8312,1574.8105 1588.8312,1575.1543 Q1588.8312,1575.498 1588.4874,1575.9043 Q1587.9874,1576.4824 1587.1905,1576.8105 Q1586.1124,1577.2637 1584.8155,1577.2637 Q1583.2999,1577.2637 1582.0968,1576.6387 Q1581.1124,1576.1387 1580.4249,1575.0762 Q1579.7374,1573.998 1579.7374,1572.7168 L1579.7374,1571.5605 Q1579.7374,1570.2324 1580.3468,1569.0918 Q1580.9718,1567.9355 1582.0655,1567.3262 Q1583.1593,1566.7012 1584.3937,1566.7012 Q1585.128,1566.7012 1585.7687,1566.873 Q1586.4249,1567.0293 1586.9718,1567.3887 Z " fill="#000000"/><text fill="#000000" font-family="sans-serif" font-size="14" lengthAdjust="spacing" textLength="86.3857" x="1601.8075" y="1577.3105">BuildingSprite</text><line style="stroke:#181818;stroke-width:0.5;" x1="1554" x2="1706.3994" y1="1587.5137" y2="1587.5137"/><polygon fill="none" points="1564,1598.3242,1560,1604.3242,1568,1604.3242" style="stroke:#1963A0;stroke-width:1.0;"/><text fill="#000000" font-family="sans-serif" font-size="14" lengthAdjust="spacing" textLength="123.7168" x="1573" y="1606.6211">originalWidth : Float</text><polygon fill="none" points="1564,1616.9453,1560,1622.9453,1568,1622.9453" style="stroke:#1963A0;stroke-width:1.0;"/><text fill="#000000" font-family="sans-serif" font-size="14" lengthAdjust="spacing" textLength="128.3994" x="1573" y="1625.2422">originalHeight : Float</text><polygon fill="none" points="1564,1635.5664,1560,1641.5664,1568,1641.5664" style="stroke:#1963A0;stroke-width:1.0;"/><text fill="#000000" font-family="sans-serif" font-size="14" lengthAdjust="spacing" textLength="82.4756" x="1573" y="1643.8633">sprite : Sprite</text><line style="stroke:#181818;stroke-width:0.5;" x1="1554" x2="1706.3994" y1="1651.377" y2="1651.377"/></g><!--class BuildingType--><g id="elem_BuildingType"><rect codeLine="113" fill="#F1F1F1" height="513.5273" id="BuildingType" rx="2.5" ry="2.5" style="stroke:#181818;stroke-width:0.5;" width="732.6035" x="1768.5" y="1350.5137"/><ellipse cx="2090.083" cy="1366.5137" fill="#EB937F" rx="11" ry="11" style="stroke:#181818;stroke-width:1.0;"/><path d="M2088.9424,1367.3105 L2088.9424,1369.8105 L2093.2705,1369.8105 L2093.2705,1368.8887 Q2093.2705,1368.2793 2093.5049,1368.0137 Q2093.7549,1367.748 2094.1299,1367.748 Q2094.5049,1367.748 2094.7393,1368.0137 Q2094.9736,1368.2793 2094.9736,1368.8887 L2094.9736,1371.5137 L2086.9736,1371.5137 Q2086.3486,1371.5137 2086.083,1371.2793 Q2085.833,1371.0449 2085.833,1370.6543 Q2085.833,1370.2793 2086.0986,1370.0449 Q2086.3643,1369.8105 2086.9736,1369.8105 L2087.2393,1369.8105 L2087.2393,1363.1543 L2086.9736,1363.1543 Q2086.3486,1363.1543 2086.083,1362.9199 Q2085.833,1362.6855 2085.833,1362.2949 Q2085.833,1361.9199 2086.083,1361.6855 Q2086.3486,1361.4512 2086.9736,1361.4512 L2094.5986,1361.4512 L2094.5986,1364.0449 Q2094.5986,1364.6543 2094.3643,1364.9199 Q2094.1455,1365.1699 2093.7549,1365.1699 Q2093.3799,1365.1699 2093.1455,1364.9199 Q2092.9111,1364.6543 2092.9111,1364.0449 L2092.9111,1363.1543 L2088.9424,1363.1543 L2088.9424,1365.6074 L2090.4268,1365.6074 Q2090.4268,1364.9512 2090.5518,1364.7637 Q2090.8174,1364.3574 2091.2861,1364.3574 Q2091.6611,1364.3574 2091.8955,1364.623 Q2092.1299,1364.873 2092.1299,1365.4824 L2092.1299,1367.4512 Q2092.1299,1367.998 2092.0049,1368.1855 Q2091.7393,1368.5762 2091.2861,1368.5762 Q2090.8174,1368.5762 2090.5518,1368.1699 Q2090.4268,1367.9824 2090.4268,1367.3105 L2088.9424,1367.3105 Z " fill="#000000"/><text fill="#000000" font-family="sans-serif" font-size="14" lengthAdjust="spacing" textLength="80.9375" x="2110.583" y="1372.3105">BuildingType</text><line style="stroke:#181818;stroke-width:0.5;" x1="1769.5" x2="2500.1035" y1="1382.5137" y2="1382.5137"/><text fill="#000000" font-family="sans-serif" font-size="14" lengthAdjust="spacing" textLength="127.5518" x="1788.5" y="1401.6211">ACCOMMODATION</text><text fill="#000000" font-family="sans-serif" font-size="14" lengthAdjust="spacing" textLength="108.1514" x="1788.5" y="1420.2422">LECTURE_HALL</text><text fill="#000000" font-family="sans-serif" font-size="14" lengthAdjust="spacing" textLength="122.9102" x="1788.5" y="1438.8633">SPORTS_CENTRE</text><text fill="#000000" font-family="sans-serif" font-size="14" lengthAdjust="spacing" textLength="98" x="1788.5" y="1457.4844">FOOD_COURT</text><ellipse cx="1779.5" cy="1471.8086" fill="none" rx="3" ry="3" style="stroke:#038048;stroke-width:1.0;"/><text fill="#000000" font-family="sans-serif" font-size="14" lengthAdjust="spacing" text-decoration="underline" textLength="105.0273" x="1788.5" y="1476.1055">COUNT : Integer</text><rect fill="none" height="6" style="stroke:#C82930;stroke-width:1.0;" width="6" x="1776.5" y="1487.4297"/><text fill="#000000" font-family="sans-serif" font-size="14" lengthAdjust="spacing" textLength="245.9229" x="1788.5" y="1494.7266">buildingAttributes : BuildingAttribute[1,*]</text><rect fill="none" height="6" style="stroke:#C82930;stroke-width:1.0;" width="6" x="1776.5" y="1506.0508"/><text fill="#000000" font-family="sans-serif" font-size="14" lengthAdjust="spacing" textLength="122.1787" x="1788.5" y="1513.3477">atlasRegion : String</text><rect fill="none" height="6" style="stroke:#C82930;stroke-width:1.0;" width="6" x="1776.5" y="1524.6719"/><text fill="#000000" font-family="sans-serif" font-size="14" lengthAdjust="spacing" textLength="87.9375" x="1788.5" y="1531.9688">width : Integer</text><rect fill="none" height="6" style="stroke:#C82930;stroke-width:1.0;" width="6" x="1776.5" y="1543.293"/><text fill="#000000" font-family="sans-serif" font-size="14" lengthAdjust="spacing" textLength="93.3994" x="1788.5" y="1550.5898">height : Integer</text><rect fill="none" height="6" style="stroke:#C82930;stroke-width:1.0;" width="6" x="1776.5" y="1561.9141"/><text fill="#000000" font-family="sans-serif" font-size="14" lengthAdjust="spacing" textLength="70.8135" x="1788.5" y="1569.2109">info : String</text><rect fill="none" height="6" style="stroke:#C82930;stroke-width:1.0;" width="6" x="1776.5" y="1580.5352"/><text fill="#000000" font-family="sans-serif" font-size="14" lengthAdjust="spacing" textLength="83.2617" x="1788.5" y="1587.832">name : String</text><rect fill="none" height="6" style="stroke:#C82930;stroke-width:1.0;" width="6" x="1776.5" y="1599.1563"/><text fill="#000000" font-family="sans-serif" font-size="14" lengthAdjust="spacing" textLength="142.3926" x="1788.5" y="1606.4531">iconStyleName : String</text><rect fill="none" height="6" style="stroke:#C82930;stroke-width:1.0;" width="6" x="1776.5" y="1617.7773"/><text fill="#000000" font-family="sans-serif" font-size="14" lengthAdjust="spacing" textLength="132.3027" x="1788.5" y="1625.0742">buildingCost : Integer</text><rect fill="none" height="6" style="stroke:#C82930;stroke-width:1.0;" width="6" x="1776.5" y="1636.3984"/><text fill="#000000" font-family="sans-serif" font-size="14" lengthAdjust="spacing" textLength="175.0957" x="1788.5" y="1643.6953">currencyGenerated : Integer</text><line style="stroke:#181818;stroke-width:0.5;" x1="1769.5" x2="2500.1035" y1="1651.209" y2="1651.209"/><ellipse cx="1779.5" cy="1666.0195" fill="#84BE84" rx="3" ry="3" style="stroke:#038048;stroke-width:1.0;"/><text fill="#000000" font-family="sans-serif" font-size="14" lengthAdjust="spacing" textLength="515.9492" x="1788.5" y="1670.3164">BuildingType(name:String, buildingAttributes:BuildingAttribute[], atlasRegion:String,</text><text fill="#000000" font-family="sans-serif" font-size="14" lengthAdjust="spacing" textLength="706.6035" x="1788.5" y="1688.9375">width:Integer, height:Integer, info:String, iconStyleName:String, buildingCost : Integer, currencyGenerated:Integer)</text><ellipse cx="1779.5" cy="1703.2617" fill="#84BE84" rx="3" ry="3" style="stroke:#038048;stroke-width:1.0;"/><text fill="#000000" font-family="sans-serif" font-size="14" lengthAdjust="spacing" textLength="259.1367" x="1788.5" y="1707.5586">getBuildingAttributes() : BuildingAttribute[]</text><ellipse cx="1779.5" cy="1721.8828" fill="#84BE84" rx="3" ry="3" style="stroke:#038048;stroke-width:1.0;"/><text fill="#000000" font-family="sans-serif" font-size="14" lengthAdjust="spacing" textLength="152.5166" x="1788.5" y="1726.1797">getAtlasRegion() : String</text><ellipse cx="1779.5" cy="1740.5039" fill="#84BE84" rx="3" ry="3" style="stroke:#038048;stroke-width:1.0;"/><text fill="#000000" font-family="sans-serif" font-size="14" lengthAdjust="spacing" textLength="119.8271" x="1788.5" y="1744.8008">getWidth() : Integer</text><ellipse cx="1779.5" cy="1759.125" fill="#84BE84" rx="3" ry="3" style="stroke:#038048;stroke-width:1.0;"/><text fill="#000000" font-family="sans-serif" font-size="14" lengthAdjust="spacing" textLength="124.5098" x="1788.5" y="1763.4219">getHeight() : Integer</text><ellipse cx="1779.5" cy="1777.7461" fill="#84BE84" rx="3" ry="3" style="stroke:#038048;stroke-width:1.0;"/><text fill="#000000" font-family="sans-serif" font-size="14" lengthAdjust="spacing" textLength="100.3789" x="1788.5" y="1782.043">getInfo() : String</text><ellipse cx="1779.5" cy="1796.3672" fill="#84BE84" rx="3" ry="3" style="stroke:#038048;stroke-width:1.0;"/><text fill="#000000" font-family="sans-serif" font-size="14" lengthAdjust="spacing" textLength="114.3721" x="1788.5" y="1800.6641">getName() : String</text><ellipse cx="1779.5" cy="1814.9883" fill="#84BE84" rx="3" ry="3" style="stroke:#038048;stroke-width:1.0;"/><text fill="#000000" font-family="sans-serif" font-size="14" lengthAdjust="spacing" textLength="171.958" x="1788.5" y="1819.2852">getIconStyleName() : String</text><ellipse cx="1779.5" cy="1833.6094" fill="#84BE84" rx="3" ry="3" style="stroke:#038048;stroke-width:1.0;"/><text fill="#000000" font-family="sans-serif" font-size="14" lengthAdjust="spacing" textLength="162.6406" x="1788.5" y="1837.9063">getBuildingCost() : Integer</text><ellipse cx="1779.5" cy="1852.2305" fill="#84BE84" rx="3" ry="3" style="stroke:#038048;stroke-width:1.0;"/><text fill="#000000" font-family="sans-serif" font-size="14" lengthAdjust="spacing" textLength="206.9922" x="1788.5" y="1856.5273">getCurrencyGenerated() : Integer</text></g><!--class IBuildingPlacementManager--><g id="elem_IBuildingPlacementManager"><rect codeLine="141" fill="#F1F1F1" height="141.1055" id="IBuildingPlacementManager" rx="2.5" ry="2.5" style="stroke:#181818;stroke-width:0.5;" width="564.5488" x="478.5" y="1009.5137"/><ellipse cx="668.9731" cy="1025.5137" fill="#B4A7E5" rx="11" ry="11" style="stroke:#181818;stroke-width:1.0;"/><path d="M669.9263,1022.1543 L669.9263,1028.8105 L671.645,1028.8105 Q672.2544,1028.8105 672.52,1029.0449 Q672.7856,1029.2793 672.7856,1029.6699 Q672.7856,1030.0449 672.52,1030.2793 Q672.2544,1030.5137 671.645,1030.5137 L666.5044,1030.5137 Q665.895,1030.5137 665.6294,1030.2793 Q665.3638,1030.0449 665.3638,1029.6543 Q665.3638,1029.2793 665.6294,1029.0449 Q665.895,1028.8105 666.5044,1028.8105 L668.2231,1028.8105 L668.2231,1022.1543 L666.5044,1022.1543 Q665.895,1022.1543 665.6294,1021.9199 Q665.3638,1021.6855 665.3638,1021.2949 Q665.3638,1020.9199 665.6294,1020.6855 Q665.895,1020.4512 666.5044,1020.4512 L671.645,1020.4512 Q672.2544,1020.4512 672.52,1020.6855 Q672.7856,1020.9199 672.7856,1021.2949 Q672.7856,1021.6855 672.52,1021.9199 Q672.2544,1022.1543 671.645,1022.1543 L669.9263,1022.1543 Z " fill="#000000"/><text fill="#000000" font-family="sans-serif" font-size="14" font-style="italic" lengthAdjust="spacing" textLength="175.1025" x="689.4731" y="1031.3105">IBuildingPlacementManager</text><line style="stroke:#181818;stroke-width:0.5;" x1="479.5" x2="1042.0488" y1="1041.5137" y2="1041.5137"/><line style="stroke:#181818;stroke-width:0.5;" x1="479.5" x2="1042.0488" y1="1049.5137" y2="1049.5137"/><text fill="#000000" font-family="sans-serif" font-size="14" lengthAdjust="spacing" textLength="552.5488" x="484.5" y="1068.6211">canBePlacedAtLocation(column:Integer, row:Integer, building:AbstractBuilding) : Boolean</text><text fill="#000000" font-family="sans-serif" font-size="14" lengthAdjust="spacing" textLength="453.6943" x="484.5" y="1087.2422">placeBuilding(row:Integer,column:Integer,building:AbstractBuilding) : void</text><text fill="#000000" font-family="sans-serif" font-size="14" lengthAdjust="spacing" textLength="279.3779" x="484.5" y="1105.8633">getPlacedBuildings() : List&lt;AbstractBuilding&gt;</text><text fill="#000000" font-family="sans-serif" font-size="14" lengthAdjust="spacing" textLength="121.3994" x="484.5" y="1124.4844">getCount() : Integer</text><text fill="#000000" font-family="sans-serif" font-size="14" lengthAdjust="spacing" textLength="77.7998" x="484.5" y="1143.1055">reset() : void</text></g><!--class BuildingFactory--><g id="elem_BuildingFactory"><rect codeLine="4" fill="#F1F1F1" height="122.4844" id="BuildingFactory" rx="2.5" ry="2.5" style="stroke:#181818;stroke-width:0.5;" width="538.7363" x="1226.5" y="696.0137"/><ellipse cx="1443.3735" cy="712.0137" fill="#ADD1B2" rx="11" ry="11" style="stroke:#181818;stroke-width:1.0;"/><path d="M1446.1392,707.8887 Q1446.2954,707.6699 1446.4829,707.5605 Q1446.6704,707.4512 1446.8892,707.4512 Q1447.2642,707.4512 1447.4985,707.7168 Q1447.7329,707.9668 1447.7329,708.5762 L1447.7329,710.0293 Q1447.7329,710.6387 1447.4985,710.9043 Q1447.2642,711.1699 1446.8892,711.1699 Q1446.5454,711.1699 1446.3423,710.9668 Q1446.1392,710.7793 1446.0298,710.2637 Q1445.9829,709.9043 1445.7954,709.7168 Q1445.4673,709.3418 1444.8579,709.123 Q1444.2485,708.9043 1443.6235,708.9043 Q1442.8579,708.9043 1442.2173,709.2324 Q1441.5923,709.5605 1441.0923,710.3105 Q1440.6079,711.0605 1440.6079,712.0918 L1440.6079,713.1855 Q1440.6079,714.4199 1441.4985,715.248 Q1442.3892,716.0605 1443.9829,716.0605 Q1444.9204,716.0605 1445.5767,715.8105 Q1445.9673,715.6543 1446.3892,715.2168 Q1446.6548,714.9512 1446.7954,714.873 Q1446.9517,714.7949 1447.1548,714.7949 Q1447.4829,714.7949 1447.7329,715.0605 Q1447.9985,715.3105 1447.9985,715.6543 Q1447.9985,715.998 1447.6548,716.4043 Q1447.1548,716.9824 1446.3579,717.3105 Q1445.2798,717.7637 1443.9829,717.7637 Q1442.4673,717.7637 1441.2642,717.1387 Q1440.2798,716.6387 1439.5923,715.5762 Q1438.9048,714.498 1438.9048,713.2168 L1438.9048,712.0605 Q1438.9048,710.7324 1439.5142,709.5918 Q1440.1392,708.4355 1441.2329,707.8262 Q1442.3267,707.2012 1443.561,707.2012 Q1444.2954,707.2012 1444.936,707.373 Q1445.5923,707.5293 1446.1392,707.8887 Z " fill="#000000"/><text fill="#000000" font-family="sans-serif" font-size="14" lengthAdjust="spacing" textLength="96.4893" x="1463.8735" y="717.8105">BuildingFactory</text><line style="stroke:#181818;stroke-width:0.5;" x1="1227.5" x2="1764.2363" y1="728.0137" y2="728.0137"/><rect fill="none" height="6" style="stroke:#C82930;stroke-width:1.0;" width="6" x="1234.5" y="739.8242"/><text fill="#000000" font-family="sans-serif" font-size="14" lengthAdjust="spacing" textLength="225.6406" x="1246.5" y="747.1211">spriteFactory : BuildingSpriteFactory</text><rect fill="none" height="6" style="stroke:#C82930;stroke-width:1.0;" width="6" x="1234.5" y="758.4453"/><text fill="#000000" font-family="sans-serif" font-size="14" lengthAdjust="spacing" textLength="189.0615" x="1246.5" y="765.7422">timerManager : TimerManager</text><line style="stroke:#181818;stroke-width:0.5;" x1="1227.5" x2="1764.2363" y1="773.2559" y2="773.2559"/><ellipse cx="1237.5" cy="788.0664" fill="#84BE84" rx="3" ry="3" style="stroke:#038048;stroke-width:1.0;"/><text fill="#000000" font-family="sans-serif" font-size="14" lengthAdjust="spacing" textLength="512.7363" x="1246.5" y="792.3633">BuildingFactory(spriteFactory:BuildingSpriteFactory, timerManager:TimerManager)</text><ellipse cx="1237.5" cy="806.6875" fill="#84BE84" rx="3" ry="3" style="stroke:#038048;stroke-width:1.0;"/><text fill="#000000" font-family="sans-serif" font-size="14" lengthAdjust="spacing" textLength="375.0947" x="1246.5" y="810.9844">createBuilding(buildingType:BuildingType) : AbstractBuilding</text></g><!--class BuildingSpriteFactory--><g id="elem_BuildingSpriteFactory"><rect codeLine="10" fill="#F1F1F1" height="122.4844" id="BuildingSpriteFactory" rx="2.5" ry="2.5" style="stroke:#181818;stroke-width:0.5;" width="425.1709" x="1325.5" y="1019.0137"/><ellipse cx="1467.3047" cy="1035.0137" fill="#ADD1B2" rx="11" ry="11" style="stroke:#181818;stroke-width:1.0;"/><path d="M1470.0703,1030.8887 Q1470.2266,1030.6699 1470.4141,1030.5605 Q1470.6016,1030.4512 1470.8203,1030.4512 Q1471.1953,1030.4512 1471.4297,1030.7168 Q1471.6641,1030.9668 1471.6641,1031.5762 L1471.6641,1033.0293 Q1471.6641,1033.6387 1471.4297,1033.9043 Q1471.1953,1034.1699 1470.8203,1034.1699 Q1470.4766,1034.1699 1470.2734,1033.9668 Q1470.0703,1033.7793 1469.9609,1033.2637 Q1469.9141,1032.9043 1469.7266,1032.7168 Q1469.3984,1032.3418 1468.7891,1032.123 Q1468.1797,1031.9043 1467.5547,1031.9043 Q1466.7891,1031.9043 1466.1484,1032.2324 Q1465.5234,1032.5605 1465.0234,1033.3105 Q1464.5391,1034.0605 1464.5391,1035.0918 L1464.5391,1036.1855 Q1464.5391,1037.4199 1465.4297,1038.248 Q1466.3203,1039.0605 1467.9141,1039.0605 Q1468.8516,1039.0605 1469.5078,1038.8105 Q1469.8984,1038.6543 1470.3203,1038.2168 Q1470.5859,1037.9512 1470.7266,1037.873 Q1470.8828,1037.7949 1471.0859,1037.7949 Q1471.4141,1037.7949 1471.6641,1038.0605 Q1471.9297,1038.3105 1471.9297,1038.6543 Q1471.9297,1038.998 1471.5859,1039.4043 Q1471.0859,1039.9824 1470.2891,1040.3105 Q1469.2109,1040.7637 1467.9141,1040.7637 Q1466.3984,1040.7637 1465.1953,1040.1387 Q1464.2109,1039.6387 1463.5234,1038.5762 Q1462.8359,1037.498 1462.8359,1036.2168 L1462.8359,1035.0605 Q1462.8359,1033.7324 1463.4453,1032.5918 Q1464.0703,1031.4355 1465.1641,1030.8262 Q1466.2578,1030.2012 1467.4922,1030.2012 Q1468.2266,1030.2012 1468.8672,1030.373 Q1469.5234,1030.5293 1470.0703,1030.8887 Z " fill="#000000"/><text fill="#000000" font-family="sans-serif" font-size="14" lengthAdjust="spacing" textLength="133.0615" x="1487.8047" y="1040.8105">BuildingSpriteFactory</text><line style="stroke:#181818;stroke-width:0.5;" x1="1326.5" x2="1749.6709" y1="1051.0137" y2="1051.0137"/><rect fill="none" height="6" style="stroke:#C82930;stroke-width:1.0;" width="6" x="1333.5" y="1062.8242"/><text fill="#000000" font-family="sans-serif" font-size="14" lengthAdjust="spacing" textLength="164.1787" x="1345.5" y="1070.1211">textureAtlas : TextureAtlas</text><rect fill="none" height="6" style="stroke:#C82930;stroke-width:1.0;" width="6" x="1333.5" y="1081.4453"/><text fill="#000000" font-family="sans-serif" font-size="14" lengthAdjust="spacing" textLength="100.3857" x="1345.5" y="1088.7422">unitScale : Float</text><line style="stroke:#181818;stroke-width:0.5;" x1="1326.5" x2="1749.6709" y1="1096.2559" y2="1096.2559"/><ellipse cx="1336.5" cy="1111.0664" fill="#84BE84" rx="3" ry="3" style="stroke:#038048;stroke-width:1.0;"/><text fill="#000000" font-family="sans-serif" font-size="14" lengthAdjust="spacing" textLength="399.1709" x="1345.5" y="1115.3633">BuildingSpriteFactory(textureAtlas:TextureAtlas, unitScale:Float)</text><ellipse cx="1336.5" cy="1129.6875" fill="#84BE84" rx="3" ry="3" style="stroke:#038048;stroke-width:1.0;"/><text fill="#000000" font-family="sans-serif" font-size="14" lengthAdjust="spacing" textLength="277.8125" x="1345.5" y="1133.9844">getSprite(atlasRegion:String) : BuildingSprite</text></g><!--class BuildingState--><g id="elem_BuildingState"><rect codeLine="16" fill="#F1F1F1" height="122.4844" id="BuildingState" rx="2.5" ry="2.5" style="stroke:#181818;stroke-width:0.5;" width="115.4619" x="1076.5" y="696.0137"/><ellipse cx="1091.9315" cy="712.0137" fill="#EB937F" rx="11" ry="11" style="stroke:#181818;stroke-width:1.0;"/><path d="M1090.7909,712.8105 L1090.7909,715.3105 L1095.119,715.3105 L1095.119,714.3887 Q1095.119,713.7793 1095.3534,713.5137 Q1095.6034,713.248 1095.9784,713.248 Q1096.3534,713.248 1096.5878,713.5137 Q1096.8222,713.7793 1096.8222,714.3887 L1096.8222,717.0137 L1088.8222,717.0137 Q1088.1972,717.0137 1087.9315,716.7793 Q1087.6815,716.5449 1087.6815,716.1543 Q1087.6815,715.7793 1087.9472,715.5449 Q1088.2128,715.3105 1088.8222,715.3105 L1089.0878,715.3105 L1089.0878,708.6543 L1088.8222,708.6543 Q1088.1972,708.6543 1087.9315,708.4199 Q1087.6815,708.1855 1087.6815,707.7949 Q1087.6815,707.4199 1087.9315,707.1855 Q1088.1972,706.9512 1088.8222,706.9512 L1096.4472,706.9512 L1096.4472,709.5449 Q1096.4472,710.1543 1096.2128,710.4199 Q1095.994,710.6699 1095.6034,710.6699 Q1095.2284,710.6699 1094.994,710.4199 Q1094.7597,710.1543 1094.7597,709.5449 L1094.7597,708.6543 L1090.7909,708.6543 L1090.7909,711.1074 L1092.2753,711.1074 Q1092.2753,710.4512 1092.4003,710.2637 Q1092.6659,709.8574 1093.1347,709.8574 Q1093.5097,709.8574 1093.744,710.123 Q1093.9784,710.373 1093.9784,710.9824 L1093.9784,712.9512 Q1093.9784,713.498 1093.8534,713.6855 Q1093.5878,714.0762 1093.1347,714.0762 Q1092.6659,714.0762 1092.4003,713.6699 Q1092.2753,713.4824 1092.2753,712.8105 L1090.7909,712.8105 Z " fill="#000000"/><text fill="#000000" font-family="sans-serif" font-size="14" lengthAdjust="spacing" textLength="82.5029" x="1106.0274" y="717.8105">BuildingState</text><line style="stroke:#181818;stroke-width:0.5;" x1="1077.5" x2="1190.9619" y1="728.0137" y2="728.0137"/><text fill="#000000" font-family="sans-serif" font-size="14" lengthAdjust="spacing" textLength="103.4619" x="1082.5" y="747.1211">NOT_BUILDING</text><text fill="#000000" font-family="sans-serif" font-size="14" lengthAdjust="spacing" textLength="66.124" x="1082.5" y="765.7422">BUILDING</text><text fill="#000000" font-family="sans-serif" font-size="14" lengthAdjust="spacing" textLength="70.0137" x="1082.5" y="784.3633">DELETING</text><text fill="#000000" font-family="sans-serif" font-size="14" lengthAdjust="spacing" textLength="56.7793" x="1082.5" y="802.9844">MOVING</text><line style="stroke:#181818;stroke-width:0.5;" x1="1077.5" x2="1190.9619" y1="810.498" y2="810.498"/></g><!--class Accommodation--><g id="elem_Accommodation"><rect codeLine="24" fill="#F1F1F1" height="66.6211" id="Accommodation" rx="2.5" ry="2.5" style="stroke:#181818;stroke-width:0.5;" width="260.2129" x="1822" y="723.5137"/><ellipse cx="1897.667" cy="739.5137" fill="#ADD1B2" rx="11" ry="11" style="stroke:#181818;stroke-width:1.0;"/><path d="M1900.4326,735.3887 Q1900.5889,735.1699 1900.7764,735.0605 Q1900.9639,734.9512 1901.1826,734.9512 Q1901.5576,734.9512 1901.792,735.2168 Q1902.0264,735.4668 1902.0264,736.0762 L1902.0264,737.5293 Q1902.0264,738.1387 1901.792,738.4043 Q1901.5576,738.6699 1901.1826,738.6699 Q1900.8389,738.6699 1900.6357,738.4668 Q1900.4326,738.2793 1900.3232,737.7637 Q1900.2764,737.4043 1900.0889,737.2168 Q1899.7607,736.8418 1899.1514,736.623 Q1898.542,736.4043 1897.917,736.4043 Q1897.1514,736.4043 1896.5107,736.7324 Q1895.8857,737.0605 1895.3857,737.8105 Q1894.9014,738.5605 1894.9014,739.5918 L1894.9014,740.6855 Q1894.9014,741.9199 1895.792,742.748 Q1896.6826,743.5605 1898.2764,743.5605 Q1899.2139,743.5605 1899.8701,743.3105 Q1900.2607,743.1543 1900.6826,742.7168 Q1900.9482,742.4512 1901.0889,742.373 Q1901.2451,742.2949 1901.4482,742.2949 Q1901.7764,742.2949 1902.0264,742.5605 Q1902.292,742.8105 1902.292,743.1543 Q1902.292,743.498 1901.9482,743.9043 Q1901.4482,744.4824 1900.6514,744.8105 Q1899.5732,745.2637 1898.2764,745.2637 Q1896.7607,745.2637 1895.5576,744.6387 Q1894.5732,744.1387 1893.8857,743.0762 Q1893.1982,741.998 1893.1982,740.7168 L1893.1982,739.5605 Q1893.1982,738.2324 1893.8076,737.0918 Q1894.4326,735.9355 1895.5264,735.3262 Q1896.6201,734.7012 1897.8545,734.7012 Q1898.5889,734.7012 1899.2295,734.873 Q1899.8857,735.0293 1900.4326,735.3887 Z " fill="#000000"/><text fill="#000000" font-family="sans-serif" font-size="14" lengthAdjust="spacing" textLength="100.3789" x="1918.167" y="745.3105">Accommodation</text><line style="stroke:#181818;stroke-width:0.5;" x1="1823" x2="2081.2129" y1="755.5137" y2="755.5137"/><line style="stroke:#181818;stroke-width:0.5;" x1="1823" x2="2081.2129" y1="763.5137" y2="763.5137"/><ellipse cx="1833" cy="778.3242" fill="#84BE84" rx="3" ry="3" style="stroke:#038048;stroke-width:1.0;"/><text fill="#000000" font-family="sans-serif" font-size="14" lengthAdjust="spacing" textLength="234.2129" x="1842" y="782.6211">Accommodation(sprite:BuildingSprite)</text></g><!--class FoodCourt--><g id="elem_FoodCourt"><rect codeLine="27" fill="#F1F1F1" height="66.6211" id="FoodCourt" rx="2.5" ry="2.5" style="stroke:#181818;stroke-width:0.5;" width="225.9785" x="2117" y="723.5137"/><ellipse cx="2192.667" cy="739.5137" fill="#ADD1B2" rx="11" ry="11" style="stroke:#181818;stroke-width:1.0;"/><path d="M2195.4326,735.3887 Q2195.5889,735.1699 2195.7764,735.0605 Q2195.9639,734.9512 2196.1826,734.9512 Q2196.5576,734.9512 2196.792,735.2168 Q2197.0264,735.4668 2197.0264,736.0762 L2197.0264,737.5293 Q2197.0264,738.1387 2196.792,738.4043 Q2196.5576,738.6699 2196.1826,738.6699 Q2195.8389,738.6699 2195.6357,738.4668 Q2195.4326,738.2793 2195.3232,737.7637 Q2195.2764,737.4043 2195.0889,737.2168 Q2194.7607,736.8418 2194.1514,736.623 Q2193.542,736.4043 2192.917,736.4043 Q2192.1514,736.4043 2191.5107,736.7324 Q2190.8857,737.0605 2190.3857,737.8105 Q2189.9014,738.5605 2189.9014,739.5918 L2189.9014,740.6855 Q2189.9014,741.9199 2190.792,742.748 Q2191.6826,743.5605 2193.2764,743.5605 Q2194.2139,743.5605 2194.8701,743.3105 Q2195.2607,743.1543 2195.6826,742.7168 Q2195.9482,742.4512 2196.0889,742.373 Q2196.2451,742.2949 2196.4482,742.2949 Q2196.7764,742.2949 2197.0264,742.5605 Q2197.292,742.8105 2197.292,743.1543 Q2197.292,743.498 2196.9482,743.9043 Q2196.4482,744.4824 2195.6514,744.8105 Q2194.5732,745.2637 2193.2764,745.2637 Q2191.7607,745.2637 2190.5576,744.6387 Q2189.5732,744.1387 2188.8857,743.0762 Q2188.1982,741.998 2188.1982,740.7168 L2188.1982,739.5605 Q2188.1982,738.2324 2188.8076,737.0918 Q2189.4326,735.9355 2190.5264,735.3262 Q2191.6201,734.7012 2192.8545,734.7012 Q2193.5889,734.7012 2194.2295,734.873 Q2194.8857,735.0293 2195.4326,735.3887 Z " fill="#000000"/><text fill="#000000" font-family="sans-serif" font-size="14" lengthAdjust="spacing" textLength="66.1445" x="2213.167" y="745.3105">FoodCourt</text><line style="stroke:#181818;stroke-width:0.5;" x1="2118" x2="2341.9785" y1="755.5137" y2="755.5137"/><line style="stroke:#181818;stroke-width:0.5;" x1="2118" x2="2341.9785" y1="763.5137" y2="763.5137"/><ellipse cx="2128" cy="778.3242" fill="#84BE84" rx="3" ry="3" style="stroke:#038048;stroke-width:1.0;"/><text fill="#000000" font-family="sans-serif" font-size="14" lengthAdjust="spacing" textLength="199.9785" x="2137" y="782.6211">FoodCourt(sprite:BuildingSprite)</text></g><!--class LectureHall--><g id="elem_LectureHall"><rect codeLine="30" fill="#F1F1F1" height="66.6211" id="LectureHall" rx="2.5" ry="2.5" style="stroke:#181818;stroke-width:0.5;" width="230.6475" x="2378.5" y="723.5137"/><ellipse cx="2454.167" cy="739.5137" fill="#ADD1B2" rx="11" ry="11" style="stroke:#181818;stroke-width:1.0;"/><path d="M2456.9326,735.3887 Q2457.0889,735.1699 2457.2764,735.0605 Q2457.4639,734.9512 2457.6826,734.9512 Q2458.0576,734.9512 2458.292,735.2168 Q2458.5264,735.4668 2458.5264,736.0762 L2458.5264,737.5293 Q2458.5264,738.1387 2458.292,738.4043 Q2458.0576,738.6699 2457.6826,738.6699 Q2457.3389,738.6699 2457.1357,738.4668 Q2456.9326,738.2793 2456.8232,737.7637 Q2456.7764,737.4043 2456.5889,737.2168 Q2456.2607,736.8418 2455.6514,736.623 Q2455.042,736.4043 2454.417,736.4043 Q2453.6514,736.4043 2453.0107,736.7324 Q2452.3857,737.0605 2451.8857,737.8105 Q2451.4014,738.5605 2451.4014,739.5918 L2451.4014,740.6855 Q2451.4014,741.9199 2452.292,742.748 Q2453.1826,743.5605 2454.7764,743.5605 Q2455.7139,743.5605 2456.3701,743.3105 Q2456.7607,743.1543 2457.1826,742.7168 Q2457.4482,742.4512 2457.5889,742.373 Q2457.7451,742.2949 2457.9482,742.2949 Q2458.2764,742.2949 2458.5264,742.5605 Q2458.792,742.8105 2458.792,743.1543 Q2458.792,743.498 2458.4482,743.9043 Q2457.9482,744.4824 2457.1514,744.8105 Q2456.0732,745.2637 2454.7764,745.2637 Q2453.2607,745.2637 2452.0576,744.6387 Q2451.0732,744.1387 2450.3857,743.0762 Q2449.6982,741.998 2449.6982,740.7168 L2449.6982,739.5605 Q2449.6982,738.2324 2450.3076,737.0918 Q2450.9326,735.9355 2452.0264,735.3262 Q2453.1201,734.7012 2454.3545,734.7012 Q2455.0889,734.7012 2455.7295,734.873 Q2456.3857,735.0293 2456.9326,735.3887 Z " fill="#000000"/><text fill="#000000" font-family="sans-serif" font-size="14" lengthAdjust="spacing" textLength="70.8135" x="2474.667" y="745.3105">LectureHall</text><line style="stroke:#181818;stroke-width:0.5;" x1="2379.5" x2="2608.1475" y1="755.5137" y2="755.5137"/><line style="stroke:#181818;stroke-width:0.5;" x1="2379.5" x2="2608.1475" y1="763.5137" y2="763.5137"/><ellipse cx="2389.5" cy="778.3242" fill="#84BE84" rx="3" ry="3" style="stroke:#038048;stroke-width:1.0;"/><text fill="#000000" font-family="sans-serif" font-size="14" lengthAdjust="spacing" textLength="204.6475" x="2398.5" y="782.6211">LectureHall(sprite:BuildingSprite)</text></g><!--class SportsCentre--><g id="elem_SportsCentre"><rect codeLine="33" fill="#F1F1F1" height="66.6211" id="SportsCentre" rx="2.5" ry="2.5" style="stroke:#181818;stroke-width:0.5;" width="242.3164" x="2645" y="723.5137"/><ellipse cx="2720.667" cy="739.5137" fill="#ADD1B2" rx="11" ry="11" style="stroke:#181818;stroke-width:1.0;"/><path d="M2723.4326,735.3887 Q2723.5889,735.1699 2723.7764,735.0605 Q2723.9639,734.9512 2724.1826,734.9512 Q2724.5576,734.9512 2724.792,735.2168 Q2725.0264,735.4668 2725.0264,736.0762 L2725.0264,737.5293 Q2725.0264,738.1387 2724.792,738.4043 Q2724.5576,738.6699 2724.1826,738.6699 Q2723.8389,738.6699 2723.6357,738.4668 Q2723.4326,738.2793 2723.3232,737.7637 Q2723.2764,737.4043 2723.0889,737.2168 Q2722.7607,736.8418 2722.1514,736.623 Q2721.542,736.4043 2720.917,736.4043 Q2720.1514,736.4043 2719.5107,736.7324 Q2718.8857,737.0605 2718.3857,737.8105 Q2717.9014,738.5605 2717.9014,739.5918 L2717.9014,740.6855 Q2717.9014,741.9199 2718.792,742.748 Q2719.6826,743.5605 2721.2764,743.5605 Q2722.2139,743.5605 2722.8701,743.3105 Q2723.2607,743.1543 2723.6826,742.7168 Q2723.9482,742.4512 2724.0889,742.373 Q2724.2451,742.2949 2724.4482,742.2949 Q2724.7764,742.2949 2725.0264,742.5605 Q2725.292,742.8105 2725.292,743.1543 Q2725.292,743.498 2724.9482,743.9043 Q2724.4482,744.4824 2723.6514,744.8105 Q2722.5732,745.2637 2721.2764,745.2637 Q2719.7607,745.2637 2718.5576,744.6387 Q2717.5732,744.1387 2716.8857,743.0762 Q2716.1982,741.998 2716.1982,740.7168 L2716.1982,739.5605 Q2716.1982,738.2324 2716.8076,737.0918 Q2717.4326,735.9355 2718.5264,735.3262 Q2719.6201,734.7012 2720.8545,734.7012 Q2721.5889,734.7012 2722.2295,734.873 Q2722.8857,735.0293 2723.4326,735.3887 Z " fill="#000000"/><text fill="#000000" font-family="sans-serif" font-size="14" lengthAdjust="spacing" textLength="82.4824" x="2741.167" y="745.3105">SportsCentre</text><line style="stroke:#181818;stroke-width:0.5;" x1="2646" x2="2886.3164" y1="755.5137" y2="755.5137"/><line style="stroke:#181818;stroke-width:0.5;" x1="2646" x2="2886.3164" y1="763.5137" y2="763.5137"/><ellipse cx="2656" cy="778.3242" fill="#84BE84" rx="3" ry="3" style="stroke:#038048;stroke-width:1.0;"/><text fill="#000000" font-family="sans-serif" font-size="14" lengthAdjust="spacing" textLength="216.3164" x="2665" y="782.6211">SportsCentre(sprite:BuildingSprite)</text></g><!--class Constants--><g id="elem_Constants"><rect codeLine="150" fill="#F1F1F1" height="48" id="Constants" rx="2.5" ry="2.5" style="stroke:#181818;stroke-width:0.5;" width="95.0342" x="174.5" y="1056.0137"/><ellipse cx="189.5" cy="1072.0137" fill="#ADD1B2" rx="11" ry="11" style="stroke:#181818;stroke-width:1.0;"/><path d="M192.2656,1067.8887 Q192.4219,1067.6699 192.6094,1067.5605 Q192.7969,1067.4512 193.0156,1067.4512 Q193.3906,1067.4512 193.625,1067.7168 Q193.8594,1067.9668 193.8594,1068.5762 L193.8594,1070.0293 Q193.8594,1070.6387 193.625,1070.9043 Q193.3906,1071.1699 193.0156,1071.1699 Q192.6719,1071.1699 192.4688,1070.9668 Q192.2656,1070.7793 192.1563,1070.2637 Q192.1094,1069.9043 191.9219,1069.7168 Q191.5938,1069.3418 190.9844,1069.123 Q190.375,1068.9043 189.75,1068.9043 Q188.9844,1068.9043 188.3438,1069.2324 Q187.7188,1069.5605 187.2188,1070.3105 Q186.7344,1071.0605 186.7344,1072.0918 L186.7344,1073.1855 Q186.7344,1074.4199 187.625,1075.248 Q188.5156,1076.0605 190.1094,1076.0605 Q191.0469,1076.0605 191.7031,1075.8105 Q192.0938,1075.6543 192.5156,1075.2168 Q192.7813,1074.9512 192.9219,1074.873 Q193.0781,1074.7949 193.2813,1074.7949 Q193.6094,1074.7949 193.8594,1075.0605 Q194.125,1075.3105 194.125,1075.6543 Q194.125,1075.998 193.7813,1076.4043 Q193.2813,1076.9824 192.4844,1077.3105 Q191.4063,1077.7637 190.1094,1077.7637 Q188.5938,1077.7637 187.3906,1077.1387 Q186.4063,1076.6387 185.7188,1075.5762 Q185.0313,1074.498 185.0313,1073.2168 L185.0313,1072.0605 Q185.0313,1070.7324 185.6406,1069.5918 Q186.2656,1068.4355 187.3594,1067.8262 Q188.4531,1067.2012 189.6875,1067.2012 Q190.4219,1067.2012 191.0625,1067.373 Q191.7188,1067.5293 192.2656,1067.8887 Z " fill="#000000"/><text fill="#000000" font-family="sans-serif" font-size="14" lengthAdjust="spacing" textLength="63.0342" x="203.5" y="1077.8105">Constants</text><line style="stroke:#181818;stroke-width:0.5;" x1="175.5" x2="268.5342" y1="1088.0137" y2="1088.0137"/><line style="stroke:#181818;stroke-width:0.5;" x1="175.5" x2="268.5342" y1="1096.0137" y2="1096.0137"/></g><!--class Currency--><g id="elem_Currency"><rect codeLine="155" fill="#F1F1F1" height="234.2109" id="Currency" rx="2.5" ry="2.5" style="stroke:#181818;stroke-width:0.5;" width="398.7363" x="22.5" y="1490.5137"/><ellipse cx="189.2217" cy="1506.5137" fill="#ADD1B2" rx="11" ry="11" style="stroke:#181818;stroke-width:1.0;"/><path d="M191.9873,1502.3887 Q192.1436,1502.1699 192.3311,1502.0605 Q192.5186,1501.9512 192.7373,1501.9512 Q193.1123,1501.9512 193.3467,1502.2168 Q193.5811,1502.4668 193.5811,1503.0762 L193.5811,1504.5293 Q193.5811,1505.1387 193.3467,1505.4043 Q193.1123,1505.6699 192.7373,1505.6699 Q192.3936,1505.6699 192.1904,1505.4668 Q191.9873,1505.2793 191.8779,1504.7637 Q191.8311,1504.4043 191.6436,1504.2168 Q191.3154,1503.8418 190.7061,1503.623 Q190.0967,1503.4043 189.4717,1503.4043 Q188.7061,1503.4043 188.0654,1503.7324 Q187.4404,1504.0605 186.9404,1504.8105 Q186.4561,1505.5605 186.4561,1506.5918 L186.4561,1507.6855 Q186.4561,1508.9199 187.3467,1509.748 Q188.2373,1510.5605 189.8311,1510.5605 Q190.7686,1510.5605 191.4248,1510.3105 Q191.8154,1510.1543 192.2373,1509.7168 Q192.5029,1509.4512 192.6436,1509.373 Q192.7998,1509.2949 193.0029,1509.2949 Q193.3311,1509.2949 193.5811,1509.5605 Q193.8467,1509.8105 193.8467,1510.1543 Q193.8467,1510.498 193.5029,1510.9043 Q193.0029,1511.4824 192.2061,1511.8105 Q191.1279,1512.2637 189.8311,1512.2637 Q188.3154,1512.2637 187.1123,1511.6387 Q186.1279,1511.1387 185.4404,1510.0762 Q184.7529,1508.998 184.7529,1507.7168 L184.7529,1506.5605 Q184.7529,1505.2324 185.3623,1504.0918 Q185.9873,1502.9355 187.0811,1502.3262 Q188.1748,1501.7012 189.4092,1501.7012 Q190.1436,1501.7012 190.7842,1501.873 Q191.4404,1502.0293 191.9873,1502.3887 Z " fill="#000000"/><text fill="#000000" font-family="sans-serif" font-size="14" lengthAdjust="spacing" textLength="56.793" x="209.7217" y="1512.3105">Currency</text><line style="stroke:#181818;stroke-width:0.5;" x1="23.5" x2="420.2363" y1="1522.5137" y2="1522.5137"/><rect fill="none" height="6" style="stroke:#C82930;stroke-width:1.0;" width="6" x="30.5" y="1534.3242"/><text fill="#000000" font-family="sans-serif" font-size="14" lengthAdjust="spacing" textLength="138.5098" x="42.5" y="1541.6211">totalCurrency : Integer</text><rect fill="none" height="6" style="stroke:#C82930;stroke-width:1.0;" width="6" x="30.5" y="1552.9453"/><text fill="#000000" font-family="sans-serif" font-size="14" lengthAdjust="spacing" textLength="178.2061" x="42.5" y="1560.2422">currencyPerSecond : Integer</text><rect fill="none" height="6" style="stroke:#C82930;stroke-width:1.0;" width="6" x="30.5" y="1571.5664"/><text fill="#000000" font-family="sans-serif" font-size="14" lengthAdjust="spacing" textLength="140.7861" x="42.5" y="1578.8633">currencyTimer : ITimer</text><line style="stroke:#181818;stroke-width:0.5;" x1="23.5" x2="420.2363" y1="1586.377" y2="1586.377"/><ellipse cx="33.5" cy="1601.1875" fill="#84BE84" rx="3" ry="3" style="stroke:#038048;stroke-width:1.0;"/><text fill="#000000" font-family="sans-serif" font-size="14" lengthAdjust="spacing" textLength="66.1172" x="42.5" y="1605.4844">Currency()</text><ellipse cx="33.5" cy="1619.8086" fill="#84BE84" rx="3" ry="3" style="stroke:#038048;stroke-width:1.0;"/><text fill="#000000" font-family="sans-serif" font-size="14" lengthAdjust="spacing" textLength="140.834" x="42.5" y="1624.1055">getCurrency() : Integer</text><ellipse cx="33.5" cy="1638.4297" fill="#84BE84" rx="3" ry="3" style="stroke:#038048;stroke-width:1.0;"/><text fill="#000000" font-family="sans-serif" font-size="14" lengthAdjust="spacing" textLength="210.1025" x="42.5" y="1642.7266">getCurrencyPerSecond() : Integer</text><ellipse cx="33.5" cy="1657.0508" fill="#84BE84" rx="3" ry="3" style="stroke:#038048;stroke-width:1.0;"/><text fill="#000000" font-family="sans-serif" font-size="14" lengthAdjust="spacing" textLength="182.8818" x="42.5" y="1661.3477">deduct(amount:Integer) : void</text><ellipse cx="33.5" cy="1675.6719" fill="#84BE84" rx="3" ry="3" style="stroke:#038048;stroke-width:1.0;"/><text fill="#000000" font-family="sans-serif" font-size="14" lengthAdjust="spacing" textLength="349.4121" x="42.5" y="1679.9688">addCurrencyPerSecond(building:AbstractBuilding) : void</text><ellipse cx="33.5" cy="1694.293" fill="#84BE84" rx="3" ry="3" style="stroke:#038048;stroke-width:1.0;"/><text fill="#000000" font-family="sans-serif" font-size="14" lengthAdjust="spacing" textLength="329.1982" x="42.5" y="1698.5898">enoughCurrency(building:AbstractBuilding) : Boolean</text><ellipse cx="33.5" cy="1712.9141" fill="#84BE84" rx="3" ry="3" style="stroke:#038048;stroke-width:1.0;"/><text fill="#000000" font-family="sans-serif" font-size="14" lengthAdjust="spacing" textLength="372.7363" x="42.5" y="1717.2109">removeCurrencyPerSecond(building:AbstractBuilding) : void</text></g><!--class CurrencyTimer--><g id="elem_CurrencyTimer"><rect codeLine="167" fill="#F1F1F1" height="85.2422" id="CurrencyTimer" rx="2.5" ry="2.5" style="stroke:#181818;stroke-width:0.5;" width="174.627" x="134.5" y="1945.5137"/><ellipse cx="172.0277" cy="1961.5137" fill="#ADD1B2" rx="11" ry="11" style="stroke:#181818;stroke-width:1.0;"/><path d="M174.7933,1957.3887 Q174.9496,1957.1699 175.1371,1957.0605 Q175.3246,1956.9512 175.5433,1956.9512 Q175.9183,1956.9512 176.1527,1957.2168 Q176.3871,1957.4668 176.3871,1958.0762 L176.3871,1959.5293 Q176.3871,1960.1387 176.1527,1960.4043 Q175.9183,1960.6699 175.5433,1960.6699 Q175.1996,1960.6699 174.9964,1960.4668 Q174.7933,1960.2793 174.6839,1959.7637 Q174.6371,1959.4043 174.4496,1959.2168 Q174.1214,1958.8418 173.5121,1958.623 Q172.9027,1958.4043 172.2777,1958.4043 Q171.5121,1958.4043 170.8714,1958.7324 Q170.2464,1959.0605 169.7464,1959.8105 Q169.2621,1960.5605 169.2621,1961.5918 L169.2621,1962.6855 Q169.2621,1963.9199 170.1527,1964.748 Q171.0433,1965.5605 172.6371,1965.5605 Q173.5746,1965.5605 174.2308,1965.3105 Q174.6214,1965.1543 175.0433,1964.7168 Q175.3089,1964.4512 175.4496,1964.373 Q175.6058,1964.2949 175.8089,1964.2949 Q176.1371,1964.2949 176.3871,1964.5605 Q176.6527,1964.8105 176.6527,1965.1543 Q176.6527,1965.498 176.3089,1965.9043 Q175.8089,1966.4824 175.0121,1966.8105 Q173.9339,1967.2637 172.6371,1967.2637 Q171.1214,1967.2637 169.9183,1966.6387 Q168.9339,1966.1387 168.2464,1965.0762 Q167.5589,1963.998 167.5589,1962.7168 L167.5589,1961.5605 Q167.5589,1960.2324 168.1683,1959.0918 Q168.7933,1957.9355 169.8871,1957.3262 Q170.9808,1956.7012 172.2152,1956.7012 Q172.9496,1956.7012 173.5902,1956.873 Q174.2464,1957.0293 174.7933,1957.3887 Z " fill="#000000"/><text fill="#000000" font-family="sans-serif" font-size="14" lengthAdjust="spacing" textLength="92.5654" x="191.0338" y="1967.3105">CurrencyTimer</text><line style="stroke:#181818;stroke-width:0.5;" x1="135.5" x2="308.127" y1="1977.5137" y2="1977.5137"/><rect fill="none" height="6" style="stroke:#C82930;stroke-width:1.0;" width="6" x="142.5" y="1989.3242"/><text fill="#000000" font-family="sans-serif" font-size="14" lengthAdjust="spacing" textLength="103.4551" x="154.5" y="1996.6211">timerTask : Task</text><rect fill="none" height="6" style="stroke:#C82930;stroke-width:1.0;" width="6" x="142.5" y="2007.9453"/><text fill="#000000" font-family="sans-serif" font-size="14" lengthAdjust="spacing" textLength="148.627" x="154.5" y="2015.2422">timeRemaining : Integer</text><line style="stroke:#181818;stroke-width:0.5;" x1="135.5" x2="308.127" y1="2022.7559" y2="2022.7559"/></g><!--class BuildingTimer--><g id="elem_BuildingTimer"><rect codeLine="173" fill="#F1F1F1" height="141.1055" id="BuildingTimer" rx="2.5" ry="2.5" style="stroke:#181818;stroke-width:0.5;" width="522.4463" x="2967" y="1537.0137"/><ellipse cx="3181.1802" cy="1553.0137" fill="#ADD1B2" rx="11" ry="11" style="stroke:#181818;stroke-width:1.0;"/><path d="M3183.9458,1548.8887 Q3184.1021,1548.6699 3184.2896,1548.5605 Q3184.4771,1548.4512 3184.6958,1548.4512 Q3185.0708,1548.4512 3185.3052,1548.7168 Q3185.5396,1548.9668 3185.5396,1549.5762 L3185.5396,1551.0293 Q3185.5396,1551.6387 3185.3052,1551.9043 Q3185.0708,1552.1699 3184.6958,1552.1699 Q3184.3521,1552.1699 3184.1489,1551.9668 Q3183.9458,1551.7793 3183.8364,1551.2637 Q3183.7896,1550.9043 3183.6021,1550.7168 Q3183.2739,1550.3418 3182.6646,1550.123 Q3182.0552,1549.9043 3181.4302,1549.9043 Q3180.6646,1549.9043 3180.0239,1550.2324 Q3179.3989,1550.5605 3178.8989,1551.3105 Q3178.4146,1552.0605 3178.4146,1553.0918 L3178.4146,1554.1855 Q3178.4146,1555.4199 3179.3052,1556.248 Q3180.1958,1557.0605 3181.7896,1557.0605 Q3182.7271,1557.0605 3183.3833,1556.8105 Q3183.7739,1556.6543 3184.1958,1556.2168 Q3184.4614,1555.9512 3184.6021,1555.873 Q3184.7583,1555.7949 3184.9614,1555.7949 Q3185.2896,1555.7949 3185.5396,1556.0605 Q3185.8052,1556.3105 3185.8052,1556.6543 Q3185.8052,1556.998 3185.4614,1557.4043 Q3184.9614,1557.9824 3184.1646,1558.3105 Q3183.0864,1558.7637 3181.7896,1558.7637 Q3180.2739,1558.7637 3179.0708,1558.1387 Q3178.0864,1557.6387 3177.3989,1556.5762 Q3176.7114,1555.498 3176.7114,1554.2168 L3176.7114,1553.0605 Q3176.7114,1551.7324 3177.3208,1550.5918 Q3177.9458,1549.4355 3179.0396,1548.8262 Q3180.1333,1548.2012 3181.3677,1548.2012 Q3182.1021,1548.2012 3182.7427,1548.373 Q3183.3989,1548.5293 3183.9458,1548.8887 Z " fill="#000000"/><text fill="#000000" font-family="sans-serif" font-size="14" lengthAdjust="spacing" textLength="85.5859" x="3201.6802" y="1558.8105">BuildingTimer</text><line style="stroke:#181818;stroke-width:0.5;" x1="2968" x2="3488.4463" y1="1569.0137" y2="1569.0137"/><rect fill="none" height="6" style="stroke:#C82930;stroke-width:1.0;" width="6" x="2975" y="1580.8242"/><text fill="#000000" font-family="sans-serif" font-size="14" lengthAdjust="spacing" textLength="67.6826" x="2987" y="1588.1211">task : Task</text><rect fill="none" height="6" style="stroke:#C82930;stroke-width:1.0;" width="6" x="2975" y="1599.4453"/><text fill="#000000" font-family="sans-serif" font-size="14" lengthAdjust="spacing" textLength="75.4756" x="2987" y="1606.7422">scale : Float</text><rect fill="none" height="6" style="stroke:#C82930;stroke-width:1.0;" width="6" x="2975" y="1618.0664"/><text fill="#000000" font-family="sans-serif" font-size="14" lengthAdjust="spacing" textLength="141.6338" x="2987" y="1625.3633">expiryHook : Runnable</text><polygon fill="none" points="2978,1634.6875,2982,1638.6875,2978,1642.6875,2974,1638.6875" style="stroke:#B38D22;stroke-width:1.0;"/><text fill="#000000" font-family="sans-serif" font-size="14" lengthAdjust="spacing" textLength="161.8613" x="2987" y="1643.9844">setExpiryHook : Runnable</text><line style="stroke:#181818;stroke-width:0.5;" x1="2968" x2="3488.4463" y1="1651.498" y2="1651.498"/><ellipse cx="2978" cy="1666.3086" fill="#84BE84" rx="3" ry="3" style="stroke:#038048;stroke-width:1.0;"/><text fill="#000000" font-family="sans-serif" font-size="14" lengthAdjust="spacing" textLength="496.4463" x="2987" y="1670.6055">BuildingTimer(callbackOnTick:Consumer&lt;Float&gt;, finishedCalledBack Runnable)</text></g><!--reverse link BuildingFactory to BuildingSpriteFactory--><g id="link_BuildingFactory_BuildingSpriteFactory"><path codeLine="182" d="M1505.4063,829.9123 C1512.9063,887.2523 1522.6,961.3337 1530.12,1018.7637 " fill="none" id="BuildingFactory-backto-BuildingSpriteFactory" style="stroke:#181818;stroke-width:1.0;"/><polygon fill="#181818" points="1503.85,818.0137,1500.6619,824.4818,1505.4063,829.9123,1508.5944,823.4442,1503.85,818.0137" style="stroke:#181818;stroke-width:1.0;"/></g><!--reverse link BuildingFactory to AbstractBuilding--><g id="link_BuildingFactory_AbstractBuilding"><path codeLine="183" d="M1643.4735,823.0192 C1691.0935,844.5592 1733.74,864.5137 1782,888.5137 C1818.01,906.4237 1855.74,925.9437 1892.57,945.4437 " fill="none" id="BuildingFactory-backto-AbstractBuilding" style="stroke:#181818;stroke-width:1.0;"/><polygon fill="#181818" points="1632.54,818.0737,1636.3582,824.191,1643.4735,823.0192,1639.6553,816.902,1632.54,818.0737" style="stroke:#181818;stroke-width:1.0;"/><text fill="#000000" font-family="sans-serif" font-size="13" lengthAdjust="spacing" textLength="5.0591" x="1880.3056" y="955.7309">*</text></g><!--link BuildingSpriteFactory to BuildingSprite--><g id="link_BuildingSpriteFactory_BuildingSprite"><path codeLine="184" d="M1548.51,1141.0437 C1566.75,1245.2637 1603.98,1457.8637 1621.06,1555.4637 " fill="none" id="BuildingSpriteFactory-BuildingSprite" style="stroke:#181818;stroke-width:1.0;"/><text fill="#000000" font-family="sans-serif" font-size="13" lengthAdjust="spacing" textLength="5.0591" x="1614.4999" y="1544.3843">*</text></g><!--reverse link AbstractBuilding to BuildingTimer--><g id="link_AbstractBuilding_BuildingTimer"><path codeLine="185" d="M2388.7094,1141.033 C2550.8894,1185.143 2753.96,1252.2637 2927,1350.5137 C3016.19,1401.1537 3103.86,1479.9537 3161.37,1536.7537 " fill="none" id="AbstractBuilding-backto-BuildingTimer" style="stroke:#181818;stroke-width:1.0;"/><polygon fill="#181818" points="2377.13,1137.8837,2381.8699,1143.3181,2388.7094,1141.033,2383.9695,1135.5986,2377.13,1137.8837" style="stroke:#181818;stroke-width:1.0;"/></g><!--reverse link AbstractBuilding to BuildingType--><g id="link_AbstractBuilding_BuildingType"><path codeLine="186" d="M2135,1283.8437 C2135,1309.3937 2135,1323.9137 2135,1350.3537 " fill="none" id="AbstractBuilding-backto-BuildingType" style="stroke:#181818;stroke-width:1.0;"/><polygon fill="#181818" points="2135,1271.8437,2131,1277.8437,2135,1283.8437,2139,1277.8437,2135,1271.8437" style="stroke:#181818;stroke-width:1.0;"/></g><!--link AbstractBuilding to BuildingSprite--><g id="link_AbstractBuilding_BuildingSprite"><path codeLine="187" d="M1892.84,1222.2437 C1841.76,1259.4937 1791.21,1302.7837 1751,1350.5137 C1698.89,1412.3537 1663.79,1500.4237 1645.35,1555.4837 " fill="none" id="AbstractBuilding-BuildingSprite" style="stroke:#181818;stroke-width:1.0;"/></g><!--link BuildingManager to BuildingPlacementManger--><g id="link_BuildingManager_BuildingPlacementManger"><path codeLine="188" d="M923.13,612.1737 C900.36,639.2137 882.875,659.9744 864.625,681.6444 " fill="none" id="BuildingManager-to-BuildingPlacementManger" style="stroke:#181818;stroke-width:1.0;"/><polygon fill="#181818" points="860.76,686.2337,869.6171,681.9264,863.9808,682.4093,863.498,676.773,860.76,686.2337" style="stroke:#181818;stroke-width:1.0;"/></g><!--link BuildingPlacementManger to AbstractBuilding--><g id="link_BuildingPlacementManger_AbstractBuilding"><path codeLine="189" d="M956.38,827.6337 C989.92,840.0537 1025.65,851.3237 1060,858.5137 C1217.17,891.4337 1627.16,845.9637 1782,888.5137 C1819.1,898.7137 1851.1884,910.8461 1887.2284,927.5861 " fill="none" id="BuildingPlacementManger-to-AbstractBuilding" style="stroke:#181818;stroke-width:1.0;"/><polygon fill="#181818" points="1892.67,930.1137,1886.1926,922.6946,1888.1353,928.0074,1882.8225,929.9501,1892.67,930.1137" style="stroke:#181818;stroke-width:1.0;"/><text fill="#000000" font-family="sans-serif" font-size="13" lengthAdjust="spacing" textLength="5.0591" x="1879.6442" y="921.9463">*</text></g><!--link BuildingManager to BuildingFactory--><g id="link_BuildingManager_BuildingFactory"><path codeLine="190" d="M1383.62,612.1737 C1408,643.3837 1426.946,667.6256 1445.416,691.2656 " fill="none" id="BuildingManager-to-BuildingFactory" style="stroke:#181818;stroke-width:1.0;"/><polygon fill="#181818" points="1449.11,695.9937,1446.721,686.439,1446.0317,692.0537,1440.417,691.3643,1449.11,695.9937" style="stroke:#181818;stroke-width:1.0;"/></g><!--link BuildingPlacementManger to IBuildingPlacementManager--><g id="link_BuildingPlacementManger_IBuildingPlacementManager"><path codeLine="191" d="M793.1,827.6637 C786.23,881.5037 779.03,937.8387 772.16,991.6387 " fill="none" id="BuildingPlacementManger-to-IBuildingPlacementManager" style="stroke:#181818;stroke-width:1.0;stroke-dasharray:1.0,3.0;"/><polygon fill="none" points="769.88,1009.4937,778.1117,992.3987,766.2083,990.8787,769.88,1009.4937" style="stroke:#181818;stroke-width:1.0;"/></g><!--link IBuildingPlacementManager to Currency--><g id="link_IBuildingPlacementManager_Currency"><path codeLine="192" d="M680.01,1150.7337 C618.88,1204.1237 533.6,1280.3037 462,1350.5137 C416.54,1395.0837 372.2876,1441.5222 330.9976,1486.0922 " fill="none" id="IBuildingPlacementManager-to-Currency" style="stroke:#181818;stroke-width:1.0;"/><polygon fill="#181818" points="326.92,1490.4937,335.9707,1486.6098,330.318,1486.8257,330.102,1481.173,326.92,1490.4937" style="stroke:#181818;stroke-width:1.0;"/><text fill="#000000" font-family="sans-serif" font-size="13" lengthAdjust="spacing" textLength="27.46" x="510" y="1316.542">uses</text></g><!--link Accommodation to AbstractBuilding--><g id="link_Accommodation_AbstractBuilding"><path codeLine="193" d="M1970.55,790.5637 C1984.46,814.9437 1995.8255,834.8762 2017.4255,872.7662 " fill="none" id="Accommodation-to-AbstractBuilding" style="stroke:#181818;stroke-width:1.0;"/><polygon fill="none" points="2026.34,888.4037,2022.638,869.7947,2012.213,875.7377,2026.34,888.4037" style="stroke:#181818;stroke-width:1.0;"/></g><!--link FoodCourt to AbstractBuilding--><g id="link_FoodCourt_AbstractBuilding"><path codeLine="194" d="M2220.37,790.5637 C2213.15,814.9437 2207.7266,833.2532 2196.5166,871.1432 " fill="none" id="FoodCourt-to-AbstractBuilding" style="stroke:#181818;stroke-width:1.0;"/><polygon fill="none" points="2191.41,888.4037,2202.2701,872.8454,2190.7631,869.441,2191.41,888.4037" style="stroke:#181818;stroke-width:1.0;"/></g><!--link LectureHall to AbstractBuilding--><g id="link_LectureHall_AbstractBuilding"><path codeLine="195" d="M2457.6,790.5637 C2430.33,814.9437 2403.9689,838.5165 2361.5889,876.4065 " fill="none" id="LectureHall-to-AbstractBuilding" style="stroke:#181818;stroke-width:1.0;"/><polygon fill="none" points="2348.17,888.4037,2365.588,880.8794,2357.5898,871.9335,2348.17,888.4037" style="stroke:#181818;stroke-width:1.0;"/></g><!--link SportsCentre to AbstractBuilding--><g id="link_SportsCentre_AbstractBuilding"><path codeLine="196" d="M2702.02,790.5637 C2625.89,829.2937 2510.3435,888.0724 2393.0835,947.7224 " fill="none" id="SportsCentre-to-AbstractBuilding" style="stroke:#181818;stroke-width:1.0;"/><polygon fill="none" points="2377.04,955.8837,2395.8039,953.0702,2390.363,942.3745,2377.04,955.8837" style="stroke:#181818;stroke-width:1.0;"/></g><!--reverse link Currency to CurrencyTimer--><g id="link_Currency_CurrencyTimer"><path codeLine="198" d="M222,1736.6437 C222,1811.6237 222,1892.6837 222,1945.4137 " fill="none" id="Currency-backto-CurrencyTimer" style="stroke:#181818;stroke-width:1.0;"/><polygon fill="#181818" points="222,1724.6437,218,1730.6437,222,1736.6437,226,1730.6437,222,1724.6437" style="stroke:#181818;stroke-width:1.0;"/><text fill="#000000" font-family="sans-serif" font-size="13" lengthAdjust="spacing" textLength="77.3081" x="223" y="1911.542">Nested Class</text></g><!--reverse link Constants to Currency--><g id="link_Constants_Currency"><path codeLine="199" d="M222,1110.2737 C222,1176.5637 222,1363.8437 222,1490.3837 " fill="none" id="Constants-backto-Currency" style="stroke:#181818;stroke-width:1.0;"/><polygon fill="#181818" points="222,1104.2737,218,1113.2737,222,1109.2737,226,1113.2737,222,1104.2737" style="stroke:#181818;stroke-width:1.0;"/></g><!--SRC=[jLbBR-984BxdLrYpXvW0XzsZ5KK2GoP8129mPWwZKTJO7R36k56xdGpAPd_xLllPJqDcPtD8ugwlgxhUrVO1XJ_G5ZkRF4wYEDs-NJZLpw6YFAEG4Nfi2VmdJ52MEUDgqwq9md-6sO7635TqnsjshCLrVHkBzvZUenJaKzWL28yQkA-SmfLaUaQ90qUKu8dyUxg0a6B4SCt8hKqL70-uOSyVUd3KqIPZ58JKwnAtzmuRIkSpM9BXdoodUCHW5pU9yAY3ypHcwn0b692t2K7CRZL9hYjAyKGP0wVXwHKS3NRQObPoSn7ViiBRcAJUcb4GqzESts4PdERx5it0-Bf15ilWQVmucqzcYyyQqKgOJEVJm4IuNtvHbziplMj94UyFYIaZHc58zdiI8GQgwuVkI_GgKfKGxPqCcLj28f_ab1a4DBHVPJx78NVw7KeI0tk1-gi2rWT2MURZb563M_iY-MCYslzGbOIrKvISbAKEnNmMefG_NXYA6K0C0TnouRL4PCEVPMYSSIBZ848IZ58p9vza73DB6LRhtZ3CASLfUFoCKqmXFo8BiA_gRgzUWwO7h4zRdUVwY45cRtA6omntUOhFuunTbyytseQne5Y1DfuOWBwgNITQLCBjTNbGg50zinivOfO-av9Uw27JCypkqU61P76HmJ-zwbG3vrZ_grjAtC4PVy6yslubuo8m7Kf3FCRi5UFK9Mm7hKdr7zy-8VacKSuTKVJgRX0BTrwfrfZ_pz4l98xiDkFHAHjDYjSsfwIQtBXUJgNfvD4V1RFbGbeT-Vxo_duvqIdpwMpzk9fAQxVBvUJ9Npwk0ZdYKxJ75fzeft8vk6uyckuB89hys-egT-PgC52g1WHeX6cHwhCQkQhMPEGXGI7UGq5h1vfcnuD2Kmk5loCGEEbsJiAYPPog6G4Puu9dTBAQbIM4hSXhTv5XFadoVMe3RSGsBJPv_gpm0yDJ19WbPJkofUYmYqE_M5GABUYQyRaJD6wDjjPNvMtufJHa2P- -sCpQ5jWyPNoOkaFP3dBqMYg7bROtgWvfRU5HLQVOkSxHns3J0DnNuivL1g-1KuUUfmRUm55ZpJC56YzNaaZhC3nm3Axm38uOE5WmjsHx9G5Zq6OiEg2gFtgPojeoLGIJ1KOn0Bi0IeielMujy8K5csv9oMjRuKCb4SpYGfwok8w9vVDvzmQZ-cLkk1rvOzmw18s_4fh084We207JPFQ-iqDfbE1PUiYPnO3v8JfX_jEMBwnkR-DbIEjiR3LP2MUbDaDCKHIdStIihey9ZY2_-TzYpL2VevfpLaynQkTL2m5NwDHu1lHwbZ7dkAA7AvuSxb_j0qHVnSYhEVOkBkN04qjJ7Nzk6RHj44iHNOUaSSoeQzdbcVcXIEhaNJZvKWsM1zaJxKIf-qBRgmVOvJbnQWkmSeYIu-eVGkCjf5FoDOxOpdYrRY1tEDxkc1bZkqTOXYrU8jxEdgZy02QgfxlHV2uHrW_BLR1-ygUBuBo1g_y6uoYBmtS7Q8l0PjTWELawjt4QEGauodacTA-esxI_PZpBX0xOB7xxSt3rNTuel4Km5-lXQ-K8OnBkQXSOgJ5C-HQkzb5p68SaNRDZWXTsp6-zlqcN6s6iRNEtDQkd6_NxmD7VnSZDlx1XMn9AgxNFt4wDJ4bzxIIomct5QfIqtv2qasVIfKHGo70DRVIpDdNU4BcQdVV8CcKx8PrNmuwhHRDVj5yNy3TVbTlA4lE12sOtRB-3AE-r_gUk8ihuZJr5PFknZgBix1vOEhj9-Rj-LGX09hrqAXkDJr9-tsVPcxPRsbudaRPVMoz77y9GuhVZHsVrUS1qZI4aerF0-gNMJ7-RrQ-5kJrhS9uLmSrXxEW8Htd8NBJdll4wft0KHJhZZuLF7wSat-uQ9JuSrZ1pxCaB_Y_dUBTulV23wdg-5g3i1nzvuOzENU4zp9CWnreYvD1biXHvGZ8UmIOzitwC6EAVXvWUxmZXErTvcYBjvPRyjWfO9HiuuJ8Dul27nnCfX_NhWlVDm7a65RCTZdp0GUu3ic4hX-WVa9hJJkbIHYgNTkTgEEpudcL2VxhwPFv0P6JZL3iCdqrK9j9PsXpjXjLlX3IKffTqnlgEFnpUsAvZ4bwX5VjE6i8an6HTZVctY33eWj-7Vz-SUCjcfHP2snAQPxZymYPzkm4GI33gq7o2wS08tr4wKEAt40kim3M7vVxrbPgzm1cVBtsUl2MwxZpEjG2_kFWN]--></g></svg>