<svg xmlns="http://www.w3.org/2000/svg" xmlns:xlink="http://www.w3.org/1999/xlink" contentStyleType="text/css" height="500px" preserveAspectRatio="none" style="width:586px;height:500px;background:#FFFFFF;" version="1.1" viewBox="0 0 586 500" width="586px" zoomAndPan="magnify"><defs/><g><text fill="#000000" font-family="sans-serif" font-size="10" lengthAdjust="spacing" textLength="11.6699" x="2.165" y="24.791">Th</text><text fill="#000000" font-family="sans-serif" font-size="10" lengthAdjust="spacing" textLength="9.4385" x="19.2808" y="24.791">Fr</text><text fill="#000000" font-family="sans-serif" font-size="10" lengthAdjust="spacing" textLength="12.2314" x="33.8843" y="24.791">Sa</text><text fill="#000000" font-family="sans-serif" font-size="10" lengthAdjust="spacing" textLength="12.2314" x="49.8843" y="24.791">Su</text><text fill="#000000" font-family="sans-serif" font-size="10" lengthAdjust="spacing" textLength="13.8916" x="65.0542" y="24.791">Mo</text><text fill="#000000" font-family="sans-serif" font-size="10" lengthAdjust="spacing" textLength="11.6699" x="82.165" y="24.791">Tu</text><text fill="#000000" font-family="sans-serif" font-size="10" lengthAdjust="spacing" textLength="15" x="96.5" y="24.791">We</text><text fill="#000000" font-family="sans-serif" font-size="10" lengthAdjust="spacing" textLength="11.6699" x="114.165" y="24.791">Th</text><text fill="#000000" font-family="sans-serif" font-size="10" lengthAdjust="spacing" textLength="9.4385" x="131.2808" y="24.791">Fr</text><text fill="#000000" font-family="sans-serif" font-size="10" lengthAdjust="spacing" textLength="12.2314" x="145.8843" y="24.791">Sa</text><text fill="#000000" font-family="sans-serif" font-size="10" lengthAdjust="spacing" textLength="12.2314" x="161.8843" y="24.791">Su</text><text fill="#000000" font-family="sans-serif" font-size="10" lengthAdjust="spacing" textLength="13.8916" x="177.0542" y="24.791">Mo</text><text fill="#000000" font-family="sans-serif" font-size="10" lengthAdjust="spacing" textLength="11.6699" x="194.165" y="24.791">Tu</text><text fill="#000000" font-family="sans-serif" font-size="10" lengthAdjust="spacing" textLength="15" x="208.5" y="24.791">We</text><text fill="#000000" font-family="sans-serif" font-size="10" lengthAdjust="spacing" textLength="11.6699" x="226.165" y="24.791">Th</text><text fill="#000000" font-family="sans-serif" font-size="10" lengthAdjust="spacing" textLength="9.4385" x="243.2808" y="24.791">Fr</text><text fill="#000000" font-family="sans-serif" font-size="10" lengthAdjust="spacing" textLength="12.2314" x="257.8843" y="24.791">Sa</text><text fill="#000000" font-family="sans-serif" font-size="10" lengthAdjust="spacing" textLength="12.2314" x="273.8843" y="24.791">Su</text><text fill="#000000" font-family="sans-serif" font-size="10" lengthAdjust="spacing" textLength="13.8916" x="289.0542" y="24.791">Mo</text><text fill="#000000" font-family="sans-serif" font-size="10" lengthAdjust="spacing" textLength="11.6699" x="306.165" y="24.791">Tu</text><text fill="#000000" font-family="sans-serif" font-size="10" lengthAdjust="spacing" textLength="15" x="320.5" y="24.791">We</text><text fill="#000000" font-family="sans-serif" font-size="10" lengthAdjust="spacing" textLength="11.6699" x="338.165" y="24.791">Th</text><text fill="#000000" font-family="sans-serif" font-size="10" lengthAdjust="spacing" textLength="9.4385" x="355.2808" y="24.791">Fr</text><text fill="#000000" font-family="sans-serif" font-size="10" lengthAdjust="spacing" textLength="12.2314" x="369.8843" y="24.791">Sa</text><text fill="#000000" font-family="sans-serif" font-size="10" lengthAdjust="spacing" textLength="12.2314" x="385.8843" y="24.791">Su</text><text fill="#000000" font-family="sans-serif" font-size="10" lengthAdjust="spacing" textLength="13.8916" x="401.0542" y="24.791">Mo</text><text fill="#000000" font-family="sans-serif" font-size="10" lengthAdjust="spacing" textLength="11.6699" x="418.165" y="24.791">Tu</text><text fill="#000000" font-family="sans-serif" font-size="10" lengthAdjust="spacing" textLength="15" x="432.5" y="24.791">We</text><text fill="#000000" font-family="sans-serif" font-size="10" lengthAdjust="spacing" textLength="11.6699" x="450.165" y="24.791">Th</text><text fill="#000000" font-family="sans-serif" font-size="10" lengthAdjust="spacing" textLength="9.4385" x="467.2808" y="24.791">Fr</text><text fill="#000000" font-family="sans-serif" font-size="10" lengthAdjust="spacing" textLength="12.2314" x="481.8843" y="24.791">Sa</text><text fill="#000000" font-family="sans-serif" font-size="10" lengthAdjust="spacing" textLength="12.2314" x="497.8843" y="24.791">Su</text><text fill="#000000" font-family="sans-serif" font-size="10" lengthAdjust="spacing" textLength="5.5615" x="5.2192" y="36.791">3</text><text fill="#000000" font-family="sans-serif" font-size="10" lengthAdjust="spacing" textLength="5.5615" x="21.2192" y="36.791">4</text><text fill="#000000" font-family="sans-serif" font-size="10" lengthAdjust="spacing" textLength="5.5615" x="37.2192" y="36.791">5</text><text fill="#000000" font-family="sans-serif" font-size="10" lengthAdjust="spacing" textLength="5.5615" x="53.2192" y="36.791">6</text><text fill="#000000" font-family="sans-serif" font-size="10" lengthAdjust="spacing" textLength="5.5615" x="69.2192" y="36.791">7</text><text fill="#000000" font-family="sans-serif" font-size="10" lengthAdjust="spacing" textLength="5.5615" x="85.2192" y="36.791">8</text><text fill="#000000" font-family="sans-serif" font-size="10" lengthAdjust="spacing" textLength="5.5615" x="101.2192" y="36.791">9</text><text fill="#000000" font-family="sans-serif" font-size="10" lengthAdjust="spacing" textLength="11.123" x="114.4385" y="36.791">10</text><text fill="#000000" font-family="sans-serif" font-size="10" lengthAdjust="spacing" textLength="11.123" x="130.4385" y="36.791">11</text><text fill="#000000" font-family="sans-serif" font-size="10" lengthAdjust="spacing" textLength="11.123" x="146.4385" y="36.791">12</text><text fill="#000000" font-family="sans-serif" font-size="10" lengthAdjust="spacing" textLength="11.123" x="162.4385" y="36.791">13</text><text fill="#000000" font-family="sans-serif" font-size="10" lengthAdjust="spacing" textLength="11.123" x="178.4385" y="36.791">14</text><text fill="#000000" font-family="sans-serif" font-size="10" lengthAdjust="spacing" textLength="11.123" x="194.4385" y="36.791">15</text><text fill="#000000" font-family="sans-serif" font-size="10" lengthAdjust="spacing" textLength="11.123" x="210.4385" y="36.791">16</text><text fill="#000000" font-family="sans-serif" font-size="10" lengthAdjust="spacing" textLength="11.123" x="226.4385" y="36.791">17</text><text fill="#000000" font-family="sans-serif" font-size="10" lengthAdjust="spacing" textLength="11.123" x="242.4385" y="36.791">18</text><text fill="#000000" font-family="sans-serif" font-size="10" lengthAdjust="spacing" textLength="11.123" x="258.4385" y="36.791">19</text><text fill="#000000" font-family="sans-serif" font-size="10" lengthAdjust="spacing" textLength="11.123" x="274.4385" y="36.791">20</text><text fill="#000000" font-family="sans-serif" font-size="10" lengthAdjust="spacing" textLength="11.123" x="290.4385" y="36.791">21</text><text fill="#000000" font-family="sans-serif" font-size="10" lengthAdjust="spacing" textLength="11.123" x="306.4385" y="36.791">22</text><text fill="#000000" font-family="sans-serif" font-size="10" lengthAdjust="spacing" textLength="11.123" x="322.4385" y="36.791">23</text><text fill="#000000" font-family="sans-serif" font-size="10" lengthAdjust="spacing" textLength="11.123" x="338.4385" y="36.791">24</text><text fill="#000000" font-family="sans-serif" font-size="10" lengthAdjust="spacing" textLength="11.123" x="354.4385" y="36.791">25</text><text fill="#000000" font-family="sans-serif" font-size="10" lengthAdjust="spacing" textLength="11.123" x="370.4385" y="36.791">26</text><text fill="#000000" font-family="sans-serif" font-size="10" lengthAdjust="spacing" textLength="11.123" x="386.4385" y="36.791">27</text><text fill="#000000" font-family="sans-serif" font-size="10" lengthAdjust="spacing" textLength="11.123" x="402.4385" y="36.791">28</text><text fill="#000000" font-family="sans-serif" font-size="10" lengthAdjust="spacing" textLength="11.123" x="418.4385" y="36.791">29</text><text fill="#000000" font-family="sans-serif" font-size="10" lengthAdjust="spacing" textLength="11.123" x="434.4385" y="36.791">30</text><text fill="#000000" font-family="sans-serif" font-size="10" lengthAdjust="spacing" textLength="11.123" x="450.4385" y="36.791">31</text><text fill="#000000" font-family="sans-serif" font-size="10" lengthAdjust="spacing" textLength="5.5615" x="469.2192" y="36.791">1</text><text fill="#000000" font-family="sans-serif" font-size="10" lengthAdjust="spacing" textLength="5.5615" x="485.2192" y="36.791">2</text><text fill="#000000" font-family="sans-serif" font-size="10" lengthAdjust="spacing" textLength="5.5615" x="501.2192" y="36.791">3</text><text fill="#000000" font-family="sans-serif" font-size="12" font-weight="bold" lengthAdjust="spacing" textLength="76.0371" x="193.9814" y="12.9492">October 2024</text><text fill="#000000" font-family="sans-serif" font-size="12" font-weight="bold" lengthAdjust="spacing" textLength="22.6699" x="476.665" y="12.9492">Nov</text><line style="stroke:#C0C0C0;stroke-width:1.0;" x1="0" x2="0" y1="39" y2="456.9863"/><line style="stroke:#C0C0C0;stroke-width:1.0;" x1="16" x2="16" y1="39" y2="456.9863"/><line style="stroke:#C0C0C0;stroke-width:1.0;" x1="32" x2="32" y1="39" y2="456.9863"/><line style="stroke:#C0C0C0;stroke-width:1.0;" x1="48" x2="48" y1="39" y2="456.9863"/><line style="stroke:#C0C0C0;stroke-width:1.0;" x1="64" x2="64" y1="39" y2="456.9863"/><line style="stroke:#C0C0C0;stroke-width:1.0;" x1="80" x2="80" y1="39" y2="456.9863"/><line style="stroke:#C0C0C0;stroke-width:1.0;" x1="96" x2="96" y1="39" y2="456.9863"/><line style="stroke:#C0C0C0;stroke-width:1.0;" x1="112" x2="112" y1="39" y2="456.9863"/><line style="stroke:#C0C0C0;stroke-width:1.0;" x1="128" x2="128" y1="39" y2="456.9863"/><line style="stroke:#C0C0C0;stroke-width:1.0;" x1="144" x2="144" y1="39" y2="456.9863"/><line style="stroke:#C0C0C0;stroke-width:1.0;" x1="160" x2="160" y1="39" y2="456.9863"/><line style="stroke:#C0C0C0;stroke-width:1.0;" x1="176" x2="176" y1="39" y2="456.9863"/><line style="stroke:#C0C0C0;stroke-width:1.0;" x1="192" x2="192" y1="39" y2="456.9863"/><line style="stroke:#C0C0C0;stroke-width:1.0;" x1="208" x2="208" y1="39" y2="456.9863"/><line style="stroke:#C0C0C0;stroke-width:1.0;" x1="224" x2="224" y1="39" y2="456.9863"/><line style="stroke:#C0C0C0;stroke-width:1.0;" x1="240" x2="240" y1="39" y2="456.9863"/><line style="stroke:#C0C0C0;stroke-width:1.0;" x1="256" x2="256" y1="39" y2="456.9863"/><line style="stroke:#C0C0C0;stroke-width:1.0;" x1="272" x2="272" y1="39" y2="456.9863"/><line style="stroke:#C0C0C0;stroke-width:1.0;" x1="288" x2="288" y1="39" y2="456.9863"/><line style="stroke:#C0C0C0;stroke-width:1.0;" x1="304" x2="304" y1="39" y2="456.9863"/><line style="stroke:#C0C0C0;stroke-width:1.0;" x1="320" x2="320" y1="39" y2="456.9863"/><line style="stroke:#C0C0C0;stroke-width:1.0;" x1="336" x2="336" y1="39" y2="456.9863"/><line style="stroke:#C0C0C0;stroke-width:1.0;" x1="352" x2="352" y1="39" y2="456.9863"/><line style="stroke:#C0C0C0;stroke-width:1.0;" x1="368" x2="368" y1="39" y2="456.9863"/><line style="stroke:#C0C0C0;stroke-width:1.0;" x1="384" x2="384" y1="39" y2="456.9863"/><line style="stroke:#C0C0C0;stroke-width:1.0;" x1="400" x2="400" y1="39" y2="456.9863"/><line style="stroke:#C0C0C0;stroke-width:1.0;" x1="416" x2="416" y1="39" y2="456.9863"/><line style="stroke:#C0C0C0;stroke-width:1.0;" x1="432" x2="432" y1="39" y2="456.9863"/><line style="stroke:#C0C0C0;stroke-width:1.0;" x1="448" x2="448" y1="39" y2="456.9863"/><line style="stroke:#C0C0C0;stroke-width:1.0;" x1="464" x2="464" y1="39" y2="456.9863"/><line style="stroke:#C0C0C0;stroke-width:1.0;" x1="480" x2="480" y1="39" y2="456.9863"/><line style="stroke:#C0C0C0;stroke-width:1.0;" x1="496" x2="496" y1="39" y2="456.9863"/><line style="stroke:#C0C0C0;stroke-width:1.0;" x1="512" x2="512" y1="39" y2="456.9863"/><line style="stroke:#C0C0C0;stroke-width:1.0;" x1="0" x2="512" y1="39" y2="39"/><line style="stroke:#C0C0C0;stroke-width:1.0;" x1="0" x2="512" y1="456.9863" y2="456.9863"/><line style="stroke:#181818;stroke-width:1.5;" x1="327" x2="327" y1="399.0938" y2="410.4092"/><line style="stroke:#181818;stroke-width:1.5;" x1="327" x2="335" y1="410.4092" y2="410.4092"/><polygon fill="#181818" points="331,406.4092,331,410.4092,331,414.4092,335,410.4092" style="stroke:#181818;stroke-width:1.5;"/><line style="stroke:#181818;stroke-width:1.5;" x1="455" x2="455" y1="417.7246" y2="429.04"/><line style="stroke:#181818;stroke-width:1.5;" x1="455" x2="463" y1="429.04" y2="429.04"/><polygon fill="#181818" points="459,425.04,459,429.04,459,433.04,463,429.04" style="stroke:#181818;stroke-width:1.5;"/><line style="stroke:#181818;stroke-width:1.5;" x1="-1" x2="-9" y1="136.208" y2="136.208"/><line style="stroke:#181818;stroke-width:1.5;" x1="-9" x2="-9" y1="136.208" y2="154.8389"/><line style="stroke:#181818;stroke-width:1.5;" x1="-9" x2="-1" y1="154.8389" y2="154.8389"/><polygon fill="#181818" points="-5,150.8389,-5,154.8389,-5,158.8389,-1,154.8389" style="stroke:#181818;stroke-width:1.5;"/><line style="stroke:#181818;stroke-width:1.5;" x1="39" x2="39" y1="162.1543" y2="173.4697"/><line style="stroke:#181818;stroke-width:1.5;" x1="39" x2="47" y1="173.4697" y2="173.4697"/><polygon fill="#181818" points="43,169.4697,43,173.4697,43,177.4697,47,173.4697" style="stroke:#181818;stroke-width:1.5;"/><line style="stroke:#181818;stroke-width:1.5;" x1="55" x2="55" y1="180.7852" y2="192.1006"/><line style="stroke:#181818;stroke-width:1.5;" x1="55" x2="63" y1="192.1006" y2="192.1006"/><polygon fill="#181818" points="59,188.1006,59,192.1006,59,196.1006,63,192.1006" style="stroke:#181818;stroke-width:1.5;"/><line style="stroke:#181818;stroke-width:1.5;" x1="119" x2="119" y1="199.416" y2="210.7314"/><line style="stroke:#181818;stroke-width:1.5;" x1="119" x2="127" y1="210.7314" y2="210.7314"/><polygon fill="#181818" points="123,206.7314,123,210.7314,123,214.7314,127,210.7314" style="stroke:#181818;stroke-width:1.5;"/><line style="stroke:#181818;stroke-width:1.5;" x1="183" x2="183" y1="218.0469" y2="229.3623"/><line style="stroke:#181818;stroke-width:1.5;" x1="183" x2="191" y1="229.3623" y2="229.3623"/><polygon fill="#181818" points="187,225.3623,187,229.3623,187,233.3623,191,229.3623" style="stroke:#181818;stroke-width:1.5;"/><line style="stroke:#181818;stroke-width:1.5;" x1="199" x2="199" y1="236.6777" y2="247.9932"/><line style="stroke:#181818;stroke-width:1.5;" x1="199" x2="207" y1="247.9932" y2="247.9932"/><polygon fill="#181818" points="203,243.9932,203,247.9932,203,251.9932,207,247.9932" style="stroke:#181818;stroke-width:1.5;"/><line style="stroke:#181818;stroke-width:1.0;" x1="0" x2="5" y1="56.3154" y2="56.3154"/><line style="stroke:#181818;stroke-width:1.0;" x1="98.1338" x2="511" y1="56.3154" y2="56.3154"/><rect fill="#FF7F50" height="14.6309" style="stroke:none;stroke-width:1.0;" width="220" x="2" y="75.6309"/><line style="stroke:#FF7F50;stroke-width:1.0;" x1="2" x2="222" y1="75.6309" y2="75.6309"/><line style="stroke:#FF7F50;stroke-width:1.0;" x1="2" x2="222" y1="90.2617" y2="90.2617"/><line style="stroke:#FF7F50;stroke-width:1.0;" x1="2" x2="2" y1="75.6309" y2="90.2617"/><line style="stroke:#FF7F50;stroke-width:1.0;" x1="222" x2="222" y1="75.6309" y2="90.2617"/><line style="stroke:#181818;stroke-width:1.0;" x1="0" x2="5" y1="109.5771" y2="109.5771"/><line style="stroke:#181818;stroke-width:1.0;" x1="83.4761" x2="511" y1="109.5771" y2="109.5771"/><rect fill="#008000" height="14.6309" style="stroke:none;stroke-width:1.0;" width="220" x="2" y="128.8926"/><line style="stroke:#008000;stroke-width:1.0;" x1="2" x2="222" y1="128.8926" y2="128.8926"/><line style="stroke:#008000;stroke-width:1.0;" x1="2" x2="222" y1="143.5234" y2="143.5234"/><line style="stroke:#008000;stroke-width:1.0;" x1="2" x2="2" y1="128.8926" y2="143.5234"/><line style="stroke:#008000;stroke-width:1.0;" x1="222" x2="222" y1="128.8926" y2="143.5234"/><rect fill="#ADFF2F" height="14.6309" style="stroke:none;stroke-width:1.0;" width="44" x="2" y="147.5234"/><line style="stroke:#ADFF2F;stroke-width:1.0;" x1="2" x2="46" y1="147.5234" y2="147.5234"/><line style="stroke:#ADFF2F;stroke-width:1.0;" x1="2" x2="46" y1="162.1543" y2="162.1543"/><line style="stroke:#ADFF2F;stroke-width:1.0;" x1="2" x2="2" y1="147.5234" y2="162.1543"/><line style="stroke:#ADFF2F;stroke-width:1.0;" x1="46" x2="46" y1="147.5234" y2="162.1543"/><rect fill="#ADFF2F" height="14.6309" style="stroke:none;stroke-width:1.0;" width="12" x="50" y="166.1543"/><line style="stroke:#ADFF2F;stroke-width:1.0;" x1="50" x2="62" y1="166.1543" y2="166.1543"/><line style="stroke:#ADFF2F;stroke-width:1.0;" x1="50" x2="62" y1="180.7852" y2="180.7852"/><line style="stroke:#ADFF2F;stroke-width:1.0;" x1="50" x2="50" y1="166.1543" y2="180.7852"/><line style="stroke:#ADFF2F;stroke-width:1.0;" x1="62" x2="62" y1="166.1543" y2="180.7852"/><rect fill="#ADFF2F" height="14.6309" style="stroke:none;stroke-width:1.0;" width="60" x="66" y="184.7852"/><line style="stroke:#ADFF2F;stroke-width:1.0;" x1="66" x2="126" y1="184.7852" y2="184.7852"/><line style="stroke:#ADFF2F;stroke-width:1.0;" x1="66" x2="126" y1="199.416" y2="199.416"/><line style="stroke:#ADFF2F;stroke-width:1.0;" x1="66" x2="66" y1="184.7852" y2="199.416"/><line style="stroke:#ADFF2F;stroke-width:1.0;" x1="126" x2="126" y1="184.7852" y2="199.416"/><rect fill="#ADFF2F" height="14.6309" style="stroke:none;stroke-width:1.0;" width="60" x="130" y="203.416"/><line style="stroke:#ADFF2F;stroke-width:1.0;" x1="130" x2="190" y1="203.416" y2="203.416"/><line style="stroke:#ADFF2F;stroke-width:1.0;" x1="130" x2="190" y1="218.0469" y2="218.0469"/><line style="stroke:#ADFF2F;stroke-width:1.0;" x1="130" x2="130" y1="203.416" y2="218.0469"/><line style="stroke:#ADFF2F;stroke-width:1.0;" x1="190" x2="190" y1="203.416" y2="218.0469"/><rect fill="#ADFF2F" height="14.6309" style="stroke:none;stroke-width:1.0;" width="12" x="194" y="222.0469"/><line style="stroke:#ADFF2F;stroke-width:1.0;" x1="194" x2="206" y1="222.0469" y2="222.0469"/><line style="stroke:#ADFF2F;stroke-width:1.0;" x1="194" x2="206" y1="236.6777" y2="236.6777"/><line style="stroke:#ADFF2F;stroke-width:1.0;" x1="194" x2="194" y1="222.0469" y2="236.6777"/><line style="stroke:#ADFF2F;stroke-width:1.0;" x1="206" x2="206" y1="222.0469" y2="236.6777"/><rect fill="#ADFF2F" height="14.6309" style="stroke:none;stroke-width:1.0;" width="12" x="210" y="240.6777"/><line style="stroke:#ADFF2F;stroke-width:1.0;" x1="210" x2="222" y1="240.6777" y2="240.6777"/><line style="stroke:#ADFF2F;stroke-width:1.0;" x1="210" x2="222" y1="255.3086" y2="255.3086"/><line style="stroke:#ADFF2F;stroke-width:1.0;" x1="210" x2="210" y1="240.6777" y2="255.3086"/><line style="stroke:#ADFF2F;stroke-width:1.0;" x1="222" x2="222" y1="240.6777" y2="255.3086"/><line style="stroke:#181818;stroke-width:1.0;" x1="0" x2="5" y1="274.624" y2="274.624"/><line style="stroke:#181818;stroke-width:1.0;" x1="167.2759" x2="511" y1="274.624" y2="274.624"/><rect fill="#BA55D3" height="14.6309" style="stroke:none;stroke-width:1.0;" width="108" x="226" y="293.9395"/><line style="stroke:#BA55D3;stroke-width:1.0;" x1="226" x2="334" y1="293.9395" y2="293.9395"/><line style="stroke:#BA55D3;stroke-width:1.0;" x1="226" x2="334" y1="308.5703" y2="308.5703"/><line style="stroke:#BA55D3;stroke-width:1.0;" x1="226" x2="226" y1="293.9395" y2="308.5703"/><line style="stroke:#BA55D3;stroke-width:1.0;" x1="334" x2="334" y1="293.9395" y2="308.5703"/><line style="stroke:#181818;stroke-width:1.0;" x1="0" x2="5" y1="327.8857" y2="327.8857"/><line style="stroke:#181818;stroke-width:1.0;" x1="90.2061" x2="511" y1="327.8857" y2="327.8857"/><rect fill="#4682B4" height="14.6309" style="stroke:none;stroke-width:1.0;" width="284" x="226" y="347.2012"/><line style="stroke:#4682B4;stroke-width:1.0;" x1="226" x2="510" y1="347.2012" y2="347.2012"/><line style="stroke:#4682B4;stroke-width:1.0;" x1="226" x2="510" y1="361.832" y2="361.832"/><line style="stroke:#4682B4;stroke-width:1.0;" x1="226" x2="226" y1="347.2012" y2="361.832"/><line style="stroke:#4682B4;stroke-width:1.0;" x1="510" x2="510" y1="347.2012" y2="361.832"/><rect fill="#ADD8E6" height="14.6309" style="stroke:none;stroke-width:1.0;" width="156" x="226" y="365.832"/><line style="stroke:#ADD8E6;stroke-width:1.0;" x1="226" x2="382" y1="365.832" y2="365.832"/><line style="stroke:#ADD8E6;stroke-width:1.0;" x1="226" x2="382" y1="380.4629" y2="380.4629"/><line style="stroke:#ADD8E6;stroke-width:1.0;" x1="226" x2="226" y1="365.832" y2="380.4629"/><line style="stroke:#ADD8E6;stroke-width:1.0;" x1="382" x2="382" y1="365.832" y2="380.4629"/><rect fill="#ADD8E6" height="14.6309" style="stroke:none;stroke-width:1.0;" width="76" x="258" y="384.4629"/><line style="stroke:#ADD8E6;stroke-width:1.0;" x1="258" x2="334" y1="384.4629" y2="384.4629"/><line style="stroke:#ADD8E6;stroke-width:1.0;" x1="258" x2="334" y1="399.0938" y2="399.0938"/><line style="stroke:#ADD8E6;stroke-width:1.0;" x1="258" x2="258" y1="384.4629" y2="399.0938"/><line style="stroke:#ADD8E6;stroke-width:1.0;" x1="334" x2="334" y1="384.4629" y2="399.0938"/><rect fill="#ADD8E6" height="14.6309" style="stroke:none;stroke-width:1.0;" width="124" x="338" y="403.0938"/><line style="stroke:#ADD8E6;stroke-width:1.0;" x1="338" x2="462" y1="403.0938" y2="403.0938"/><line style="stroke:#ADD8E6;stroke-width:1.0;" x1="338" x2="462" y1="417.7246" y2="417.7246"/><line style="stroke:#ADD8E6;stroke-width:1.0;" x1="338" x2="338" y1="403.0938" y2="417.7246"/><line style="stroke:#ADD8E6;stroke-width:1.0;" x1="462" x2="462" y1="403.0938" y2="417.7246"/><rect fill="#ADD8E6" height="14.6309" style="stroke:none;stroke-width:1.0;" width="28" x="466" y="421.7246"/><line style="stroke:#ADD8E6;stroke-width:1.0;" x1="466" x2="494" y1="421.7246" y2="421.7246"/><line style="stroke:#ADD8E6;stroke-width:1.0;" x1="466" x2="494" y1="436.3555" y2="436.3555"/><line style="stroke:#ADD8E6;stroke-width:1.0;" x1="466" x2="466" y1="421.7246" y2="436.3555"/><line style="stroke:#ADD8E6;stroke-width:1.0;" x1="494" x2="494" y1="421.7246" y2="436.3555"/><polygon fill="#000000" points="504,440.3555,509,445.3555,504,450.3555,499,445.3555" style="stroke:#000000;stroke-width:1.0;"/><text fill="#000000" font-family="sans-serif" font-size="11" lengthAdjust="spacing" textLength="83.1338" x="10" y="60.8701">Risk assessment</text><text fill="#000000" font-family="sans-serif" font-size="11" lengthAdjust="spacing" textLength="84.353" x="6" y="87.501">Risk Assessment</text><text fill="#000000" font-family="sans-serif" font-size="11" lengthAdjust="spacing" textLength="68.4761" x="10" y="114.1318">Requirements</text><text fill="#000000" font-family="sans-serif" font-size="11" lengthAdjust="spacing" textLength="117.3906" x="6" y="140.7627">Requirements elicitation</text><text fill="#000000" font-family="sans-serif" font-size="11" lengthAdjust="spacing" textLength="91.0991" x="50" y="159.3936">Questions write up</text><text fill="#000000" font-family="sans-serif" font-size="11" lengthAdjust="spacing" textLength="74.583" x="66" y="178.0244">Client interview</text><text fill="#000000" font-family="sans-serif" font-size="11" lengthAdjust="spacing" textLength="117.3853" x="130" y="196.6553">User requirements table</text><text fill="#000000" font-family="sans-serif" font-size="11" lengthAdjust="spacing" textLength="130.8345" x="194" y="215.2861">System requirements table</text><text fill="#000000" font-family="sans-serif" font-size="11" lengthAdjust="spacing" textLength="144.3105" x="210" y="233.917">Additional client consultations</text><text fill="#000000" font-family="sans-serif" font-size="11" lengthAdjust="spacing" textLength="118.0029" x="226" y="252.5479">Final requirements table</text><text fill="#000000" font-family="sans-serif" font-size="11" lengthAdjust="spacing" textLength="152.2759" x="10" y="279.1787">Method Selection and Planning</text><text fill="#000000" font-family="sans-serif" font-size="11" lengthAdjust="spacing" textLength="152.2759" x="338" y="305.8096">Method Selection and Planning</text><text fill="#000000" font-family="sans-serif" font-size="11" lengthAdjust="spacing" textLength="75.2061" x="10" y="332.4404">Implementation</text><text fill="#000000" font-family="sans-serif" font-size="11" lengthAdjust="spacing" textLength="113.126" x="230" y="359.0713">Prototype development</text><text fill="#000000" font-family="sans-serif" font-size="11" lengthAdjust="spacing" textLength="48.2969" x="230" y="377.7021">UI Design</text><text fill="#000000" font-family="sans-serif" font-size="11" lengthAdjust="spacing" textLength="91.1045" x="338" y="396.333">Game logic design</text><text fill="#000000" font-family="sans-serif" font-size="11" lengthAdjust="spacing" textLength="82.5537" x="342" y="414.9639">Prototype design</text><text fill="#000000" font-family="sans-serif" font-size="11" lengthAdjust="spacing" textLength="82.5483" x="498" y="433.5947">Prototype testing</text><text fill="#000000" font-family="sans-serif" font-size="11" lengthAdjust="spacing" textLength="72.7622" x="512" y="452.2256">Final prototype</text><text fill="#000000" font-family="sans-serif" font-size="10" lengthAdjust="spacing" textLength="11.6699" x="2.165" y="467.7773">Th</text><text fill="#000000" font-family="sans-serif" font-size="10" lengthAdjust="spacing" textLength="9.4385" x="19.2808" y="467.7773">Fr</text><text fill="#000000" font-family="sans-serif" font-size="10" lengthAdjust="spacing" textLength="12.2314" x="33.8843" y="467.7773">Sa</text><text fill="#000000" font-family="sans-serif" font-size="10" lengthAdjust="spacing" textLength="12.2314" x="49.8843" y="467.7773">Su</text><text fill="#000000" font-family="sans-serif" font-size="10" lengthAdjust="spacing" textLength="13.8916" x="65.0542" y="467.7773">Mo</text><text fill="#000000" font-family="sans-serif" font-size="10" lengthAdjust="spacing" textLength="11.6699" x="82.165" y="467.7773">Tu</text><text fill="#000000" font-family="sans-serif" font-size="10" lengthAdjust="spacing" textLength="15" x="96.5" y="467.7773">We</text><text fill="#000000" font-family="sans-serif" font-size="10" lengthAdjust="spacing" textLength="11.6699" x="114.165" y="467.7773">Th</text><text fill="#000000" font-family="sans-serif" font-size="10" lengthAdjust="spacing" textLength="9.4385" x="131.2808" y="467.7773">Fr</text><text fill="#000000" font-family="sans-serif" font-size="10" lengthAdjust="spacing" textLength="12.2314" x="145.8843" y="467.7773">Sa</text><text fill="#000000" font-family="sans-serif" font-size="10" lengthAdjust="spacing" textLength="12.2314" x="161.8843" y="467.7773">Su</text><text fill="#000000" font-family="sans-serif" font-size="10" lengthAdjust="spacing" textLength="13.8916" x="177.0542" y="467.7773">Mo</text><text fill="#000000" font-family="sans-serif" font-size="10" lengthAdjust="spacing" textLength="11.6699" x="194.165" y="467.7773">Tu</text><text fill="#000000" font-family="sans-serif" font-size="10" lengthAdjust="spacing" textLength="15" x="208.5" y="467.7773">We</text><text fill="#000000" font-family="sans-serif" font-size="10" lengthAdjust="spacing" textLength="11.6699" x="226.165" y="467.7773">Th</text><text fill="#000000" font-family="sans-serif" font-size="10" lengthAdjust="spacing" textLength="9.4385" x="243.2808" y="467.7773">Fr</text><text fill="#000000" font-family="sans-serif" font-size="10" lengthAdjust="spacing" textLength="12.2314" x="257.8843" y="467.7773">Sa</text><text fill="#000000" font-family="sans-serif" font-size="10" lengthAdjust="spacing" textLength="12.2314" x="273.8843" y="467.7773">Su</text><text fill="#000000" font-family="sans-serif" font-size="10" lengthAdjust="spacing" textLength="13.8916" x="289.0542" y="467.7773">Mo</text><text fill="#000000" font-family="sans-serif" font-size="10" lengthAdjust="spacing" textLength="11.6699" x="306.165" y="467.7773">Tu</text><text fill="#000000" font-family="sans-serif" font-size="10" lengthAdjust="spacing" textLength="15" x="320.5" y="467.7773">We</text><text fill="#000000" font-family="sans-serif" font-size="10" lengthAdjust="spacing" textLength="11.6699" x="338.165" y="467.7773">Th</text><text fill="#000000" font-family="sans-serif" font-size="10" lengthAdjust="spacing" textLength="9.4385" x="355.2808" y="467.7773">Fr</text><text fill="#000000" font-family="sans-serif" font-size="10" lengthAdjust="spacing" textLength="12.2314" x="369.8843" y="467.7773">Sa</text><text fill="#000000" font-family="sans-serif" font-size="10" lengthAdjust="spacing" textLength="12.2314" x="385.8843" y="467.7773">Su</text><text fill="#000000" font-family="sans-serif" font-size="10" lengthAdjust="spacing" textLength="13.8916" x="401.0542" y="467.7773">Mo</text><text fill="#000000" font-family="sans-serif" font-size="10" lengthAdjust="spacing" textLength="11.6699" x="418.165" y="467.7773">Tu</text><text fill="#000000" font-family="sans-serif" font-size="10" lengthAdjust="spacing" textLength="15" x="432.5" y="467.7773">We</text><text fill="#000000" font-family="sans-serif" font-size="10" lengthAdjust="spacing" textLength="11.6699" x="450.165" y="467.7773">Th</text><text fill="#000000" font-family="sans-serif" font-size="10" lengthAdjust="spacing" textLength="9.4385" x="467.2808" y="467.7773">Fr</text><text fill="#000000" font-family="sans-serif" font-size="10" lengthAdjust="spacing" textLength="12.2314" x="481.8843" y="467.7773">Sa</text><text fill="#000000" font-family="sans-serif" font-size="10" lengthAdjust="spacing" textLength="12.2314" x="497.8843" y="467.7773">Su</text><text fill="#000000" font-family="sans-serif" font-size="10" lengthAdjust="spacing" textLength="5.5615" x="5.2192" y="481.7773">3</text><text fill="#000000" font-family="sans-serif" font-size="10" lengthAdjust="spacing" textLength="5.5615" x="21.2192" y="481.7773">4</text><text fill="#000000" font-family="sans-serif" font-size="10" lengthAdjust="spacing" textLength="5.5615" x="37.2192" y="481.7773">5</text><text fill="#000000" font-family="sans-serif" font-size="10" lengthAdjust="spacing" textLength="5.5615" x="53.2192" y="481.7773">6</text><text fill="#000000" font-family="sans-serif" font-size="10" lengthAdjust="spacing" textLength="5.5615" x="69.2192" y="481.7773">7</text><text fill="#000000" font-family="sans-serif" font-size="10" lengthAdjust="spacing" textLength="5.5615" x="85.2192" y="481.7773">8</text><text fill="#000000" font-family="sans-serif" font-size="10" lengthAdjust="spacing" textLength="5.5615" x="101.2192" y="481.7773">9</text><text fill="#000000" font-family="sans-serif" font-size="10" lengthAdjust="spacing" textLength="11.123" x="114.4385" y="481.7773">10</text><text fill="#000000" font-family="sans-serif" font-size="10" lengthAdjust="spacing" textLength="11.123" x="130.4385" y="481.7773">11</text><text fill="#000000" font-family="sans-serif" font-size="10" lengthAdjust="spacing" textLength="11.123" x="146.4385" y="481.7773">12</text><text fill="#000000" font-family="sans-serif" font-size="10" lengthAdjust="spacing" textLength="11.123" x="162.4385" y="481.7773">13</text><text fill="#000000" font-family="sans-serif" font-size="10" lengthAdjust="spacing" textLength="11.123" x="178.4385" y="481.7773">14</text><text fill="#000000" font-family="sans-serif" font-size="10" lengthAdjust="spacing" textLength="11.123" x="194.4385" y="481.7773">15</text><text fill="#000000" font-family="sans-serif" font-size="10" lengthAdjust="spacing" textLength="11.123" x="210.4385" y="481.7773">16</text><text fill="#000000" font-family="sans-serif" font-size="10" lengthAdjust="spacing" textLength="11.123" x="226.4385" y="481.7773">17</text><text fill="#000000" font-family="sans-serif" font-size="10" lengthAdjust="spacing" textLength="11.123" x="242.4385" y="481.7773">18</text><text fill="#000000" font-family="sans-serif" font-size="10" lengthAdjust="spacing" textLength="11.123" x="258.4385" y="481.7773">19</text><text fill="#000000" font-family="sans-serif" font-size="10" lengthAdjust="spacing" textLength="11.123" x="274.4385" y="481.7773">20</text><text fill="#000000" font-family="sans-serif" font-size="10" lengthAdjust="spacing" textLength="11.123" x="290.4385" y="481.7773">21</text><text fill="#000000" font-family="sans-serif" font-size="10" lengthAdjust="spacing" textLength="11.123" x="306.4385" y="481.7773">22</text><text fill="#000000" font-family="sans-serif" font-size="10" lengthAdjust="spacing" textLength="11.123" x="322.4385" y="481.7773">23</text><text fill="#000000" font-family="sans-serif" font-size="10" lengthAdjust="spacing" textLength="11.123" x="338.4385" y="481.7773">24</text><text fill="#000000" font-family="sans-serif" font-size="10" lengthAdjust="spacing" textLength="11.123" x="354.4385" y="481.7773">25</text><text fill="#000000" font-family="sans-serif" font-size="10" lengthAdjust="spacing" textLength="11.123" x="370.4385" y="481.7773">26</text><text fill="#000000" font-family="sans-serif" font-size="10" lengthAdjust="spacing" textLength="11.123" x="386.4385" y="481.7773">27</text><text fill="#000000" font-family="sans-serif" font-size="10" lengthAdjust="spacing" textLength="11.123" x="402.4385" y="481.7773">28</text><text fill="#000000" font-family="sans-serif" font-size="10" lengthAdjust="spacing" textLength="11.123" x="418.4385" y="481.7773">29</text><text fill="#000000" font-family="sans-serif" font-size="10" lengthAdjust="spacing" textLength="11.123" x="434.4385" y="481.7773">30</text><text fill="#000000" font-family="sans-serif" font-size="10" lengthAdjust="spacing" textLength="11.123" x="450.4385" y="481.7773">31</text><text fill="#000000" font-family="sans-serif" font-size="10" lengthAdjust="spacing" textLength="5.5615" x="469.2192" y="481.7773">1</text><text fill="#000000" font-family="sans-serif" font-size="10" lengthAdjust="spacing" textLength="5.5615" x="485.2192" y="481.7773">2</text><text fill="#000000" font-family="sans-serif" font-size="10" lengthAdjust="spacing" textLength="5.5615" x="501.2192" y="481.7773">3</text><text fill="#000000" font-family="sans-serif" font-size="12" font-weight="bold" lengthAdjust="spacing" textLength="76.0371" x="193.9814" y="496.9355">October 2024</text><text fill="#000000" font-family="sans-serif" font-size="12" font-weight="bold" lengthAdjust="spacing" textLength="22.6699" x="476.665" y="496.9355">Nov</text><!--SRC=[fLN1JkCm4BtdA-Qse5LHawOjwWbA5mHB1Ki1QOLwCCbiwbt7pjfEKV-USP9k7IYei3srdkVt9g_p9aV6Ccqp9gqD0cW-rrhzniH2LJCGTQEu4tOxtTu6qkd03JT_W1c3nkGeBHrjoWzLyVXVSKv0U63TEMZyMtAD1i8OKhOom6GAt42YX2erqdS99qepqTQgRpagyqB8hw3W2RVCSYLhHRsZufb6b1xhZnADOp7mfBb5A8k6Bvp3Xh3tFjzF548zUQmdWZkZkBIebnoV6ix8xz5HxivuPr2lBzSMMFOei27kUSJn1tkThOp5_6tk-3-uZzEKEtUPWAIs926hIr7_SwPHw7_UbbFkkD_iVV1fPXh5ATg5Ic66WY92xLPthmMJaikiFPllGkjUSdz0XniVc-XDljBGRcbkYYalyokTB7ZQwkuyBqJrn9MLxNOerbRPLO6GuXA5AZR9vAsS7ExSnymYYh4eqP_9SvYWuLaJGHxwrDsTgIzvjh0lgCzOZY1KnXDw14_2Jr1_cy9WLmNV8q_0Jz9hTvYjUlX22uWEFwnatQvP3mJtWnLjb-fzKAgEGx4MdCE25GNISgC9gPTxs5hkrPhp16cBac1ru8EYDYXikl8XlJOasWA9sv3U5aY_3OctG0PjIFyLv8X-DQyvbq1xDxs49MhZKX8UE1SEXdipkZp30hf32ADHU3WAXp2UtLOcxGTxq_DRCEHqGjF1ZTNyiNGfsmyks9B1JIajpt44L-JjnUJx-W2-oINNIhgq1HVtqmrW47V6t2bgwWJkfy44Vp5QWtGZKIcDn0ZkRayxXy4bard9CkAcjzI98bwz6i7P-1a0]--></g></svg>