<svg xmlns="http://www.w3.org/2000/svg" xmlns:xlink="http://www.w3.org/1999/xlink" contentStyleType="text/css" height="560px" preserveAspectRatio="none" style="width:1322px;height:560px;background:#FFFFFF;" version="1.1" viewBox="0 0 1322 560" width="1322px" zoomAndPan="magnify"><defs/><g><!--cluster ui--><g id="cluster_ui"><path d="M196.59,6.0137 L290.9689,6.0137 A3.75,3.75 0 0 1 293.4689,8.5137 L300.4689,30.6348 L876.59,30.6348 A2.5,2.5 0 0 1 879.09,33.1348 L879.09,121.5137 A2.5,2.5 0 0 1 876.59,124.0137 L196.59,124.0137 A2.5,2.5 0 0 1 194.09,121.5137 L194.09,8.5137 A2.5,2.5 0 0 1 196.59,6.0137 " fill="none" style="stroke:#000000;stroke-width:1.5;"/><line style="stroke:#000000;stroke-width:1.5;" x1="194.09" x2="300.4689" y1="30.6348" y2="30.6348"/><text fill="#000000" font-family="sans-serif" font-size="14" font-weight="bold" lengthAdjust="spacing" textLength="93.3789" x="198.09" y="23.1211">User Interface</text></g><!--cluster po--><g id="cluster_po"><path d="M290.59,183.0137 L414.5275,183.0137 A3.75,3.75 0 0 1 417.0275,185.5137 L424.0275,207.6348 L728.59,207.6348 A2.5,2.5 0 0 1 731.09,210.1348 L731.09,417.0137 A2.5,2.5 0 0 1 728.59,419.5137 L290.59,419.5137 A2.5,2.5 0 0 1 288.09,417.0137 L288.09,185.5137 A2.5,2.5 0 0 1 290.59,183.0137 " fill="none" style="stroke:#000000;stroke-width:1.5;"/><line style="stroke:#000000;stroke-width:1.5;" x1="288.09" x2="424.0275" y1="207.6348" y2="207.6348"/><text fill="#000000" font-family="sans-serif" font-size="14" font-weight="bold" lengthAdjust="spacing" textLength="122.9375" x="292.09" y="200.1211">Persistent Objects</text></g><!--cluster bd--><g id="cluster_bd"><path d="M873.59,183.0137 L938.3625,183.0137 A3.75,3.75 0 0 1 940.8625,185.5137 L947.8625,207.6348 L1312.59,207.6348 A2.5,2.5 0 0 1 1315.09,210.1348 L1315.09,417.0137 A2.5,2.5 0 0 1 1312.59,419.5137 L873.59,419.5137 A2.5,2.5 0 0 1 871.09,417.0137 L871.09,185.5137 A2.5,2.5 0 0 1 873.59,183.0137 " fill="none" style="stroke:#000000;stroke-width:1.5;"/><line style="stroke:#000000;stroke-width:1.5;" x1="871.09" x2="947.8625" y1="207.6348" y2="207.6348"/><text fill="#000000" font-family="sans-serif" font-size="14" font-weight="bold" lengthAdjust="spacing" textLength="63.7725" x="875.09" y="200.1211">Buildings</text></g><!--entity ts--><g id="elem_ts"><rect fill="#F1F1F1" height="48.6211" rx="2.5" ry="2.5" style="stroke:#181818;stroke-width:0.5;" width="110.8066" x="743.59" y="51.0137"/><rect fill="#F1F1F1" height="10" style="stroke:#181818;stroke-width:0.5;" width="15" x="834.3966" y="56.0137"/><rect fill="#F1F1F1" height="2" style="stroke:#181818;stroke-width:0.5;" width="4" x="832.3966" y="58.0137"/><rect fill="#F1F1F1" height="2" style="stroke:#181818;stroke-width:0.5;" width="4" x="832.3966" y="62.0137"/><text fill="#000000" font-family="sans-serif" font-size="14" lengthAdjust="spacing" textLength="70.8066" x="758.59" y="86.1211">TitleScreen</text></g><!--entity ms--><g id="elem_ms"><rect fill="#F1F1F1" height="48.6211" rx="2.5" ry="2.5" style="stroke:#181818;stroke-width:0.5;" width="111.5928" x="596.09" y="51.0137"/><rect fill="#F1F1F1" height="10" style="stroke:#181818;stroke-width:0.5;" width="15" x="687.6828" y="56.0137"/><rect fill="#F1F1F1" height="2" style="stroke:#181818;stroke-width:0.5;" width="4" x="685.6828" y="58.0137"/><rect fill="#F1F1F1" height="2" style="stroke:#181818;stroke-width:0.5;" width="4" x="685.6828" y="62.0137"/><text fill="#000000" font-family="sans-serif" font-size="14" lengthAdjust="spacing" textLength="71.5928" x="611.09" y="86.1211">MapScreen</text></g><!--entity ss--><g id="elem_ss"><rect fill="#F1F1F1" height="48.6211" rx="2.5" ry="2.5" style="stroke:#181818;stroke-width:0.5;" width="134.9443" x="237.59" y="51.0137"/><rect fill="#F1F1F1" height="10" style="stroke:#181818;stroke-width:0.5;" width="15" x="352.5343" y="56.0137"/><rect fill="#F1F1F1" height="2" style="stroke:#181818;stroke-width:0.5;" width="4" x="350.5343" y="58.0137"/><rect fill="#F1F1F1" height="2" style="stroke:#181818;stroke-width:0.5;" width="4" x="350.5343" y="62.0137"/><text fill="#000000" font-family="sans-serif" font-size="14" lengthAdjust="spacing" textLength="94.9443" x="252.59" y="86.1211">SettingsScreen</text></g><!--entity go--><g id="elem_go"><rect fill="#F1F1F1" height="48.6211" rx="2.5" ry="2.5" style="stroke:#181818;stroke-width:0.5;" width="152.8203" x="407.59" y="51.0137"/><rect fill="#F1F1F1" height="10" style="stroke:#181818;stroke-width:0.5;" width="15" x="540.4103" y="56.0137"/><rect fill="#F1F1F1" height="2" style="stroke:#181818;stroke-width:0.5;" width="4" x="538.4103" y="58.0137"/><rect fill="#F1F1F1" height="2" style="stroke:#181818;stroke-width:0.5;" width="4" x="538.4103" y="62.0137"/><text fill="#000000" font-family="sans-serif" font-size="14" lengthAdjust="spacing" textLength="112.8203" x="422.59" y="86.1211">GameOverScreen</text></g><!--entity st--><g id="elem_st"><rect fill="#F1F1F1" height="48.6211" rx="2.5" ry="2.5" style="stroke:#181818;stroke-width:0.5;" width="110.8203" x="442.59" y="220.0137"/><rect fill="#F1F1F1" height="10" style="stroke:#181818;stroke-width:0.5;" width="15" x="533.4103" y="225.0137"/><rect fill="#F1F1F1" height="2" style="stroke:#181818;stroke-width:0.5;" width="4" x="531.4103" y="227.0137"/><rect fill="#F1F1F1" height="2" style="stroke:#181818;stroke-width:0.5;" width="4" x="531.4103" y="231.0137"/><text fill="#000000" font-family="sans-serif" font-size="14" lengthAdjust="spacing" textLength="70.8203" x="457.59" y="255.1211">Soundtrack</text></g><!--entity gp--><g id="elem_gp"><rect fill="#F1F1F1" height="48.6211" rx="2.5" ry="2.5" style="stroke:#181818;stroke-width:0.5;" width="153.6064" x="304.09" y="354.5137"/><rect fill="#F1F1F1" height="10" style="stroke:#181818;stroke-width:0.5;" width="15" x="437.6964" y="359.5137"/><rect fill="#F1F1F1" height="2" style="stroke:#181818;stroke-width:0.5;" width="4" x="435.6964" y="361.5137"/><rect fill="#F1F1F1" height="2" style="stroke:#181818;stroke-width:0.5;" width="4" x="435.6964" y="365.5137"/><text fill="#000000" font-family="sans-serif" font-size="14" lengthAdjust="spacing" textLength="113.6064" x="319.09" y="389.6211">GamePreferences</text></g><!--entity cs--><g id="elem_cs"><rect fill="#F1F1F1" height="48.6211" rx="2.5" ry="2.5" style="stroke:#181818;stroke-width:0.5;" width="103.0342" x="304.59" y="220.0137"/><rect fill="#F1F1F1" height="10" style="stroke:#181818;stroke-width:0.5;" width="15" x="387.6242" y="225.0137"/><rect fill="#F1F1F1" height="2" style="stroke:#181818;stroke-width:0.5;" width="4" x="385.6242" y="227.0137"/><rect fill="#F1F1F1" height="2" style="stroke:#181818;stroke-width:0.5;" width="4" x="385.6242" y="231.0137"/><text fill="#000000" font-family="sans-serif" font-size="14" lengthAdjust="spacing" textLength="63.0342" x="319.59" y="255.1211">Constants</text></g><!--entity it--><g id="elem_it"><rect fill="#F1F1F1" height="48.6211" rx="2.5" ry="2.5" style="stroke:#181818;stroke-width:0.5;" width="125.5723" x="589.09" y="220.0137"/><rect fill="#F1F1F1" height="10" style="stroke:#181818;stroke-width:0.5;" width="15" x="694.6623" y="225.0137"/><rect fill="#F1F1F1" height="2" style="stroke:#181818;stroke-width:0.5;" width="4" x="692.6623" y="227.0137"/><rect fill="#F1F1F1" height="2" style="stroke:#181818;stroke-width:0.5;" width="4" x="692.6623" y="231.0137"/><text fill="#000000" font-family="sans-serif" font-size="14" lengthAdjust="spacing" textLength="85.5723" x="604.09" y="255.1211">InGameTimer</text></g><!--entity bm--><g id="elem_bm"><rect fill="#F1F1F1" height="48.6211" rx="2.5" ry="2.5" style="stroke:#181818;stroke-width:0.5;" width="145.0684" x="887.59" y="220.0137"/><rect fill="#F1F1F1" height="10" style="stroke:#181818;stroke-width:0.5;" width="15" x="1012.6584" y="225.0137"/><rect fill="#F1F1F1" height="2" style="stroke:#181818;stroke-width:0.5;" width="4" x="1010.6584" y="227.0137"/><rect fill="#F1F1F1" height="2" style="stroke:#181818;stroke-width:0.5;" width="4" x="1010.6584" y="231.0137"/><text fill="#000000" font-family="sans-serif" font-size="14" lengthAdjust="spacing" textLength="105.0684" x="902.59" y="255.1211">BuildingManager</text></g><!--entity br--><g id="elem_br"><rect fill="#F1F1F1" height="48.6211" rx="2.5" ry="2.5" style="stroke:#181818;stroke-width:0.5;" width="148.1787" x="1088.09" y="220.0137"/><rect fill="#F1F1F1" height="10" style="stroke:#181818;stroke-width:0.5;" width="15" x="1216.2687" y="225.0137"/><rect fill="#F1F1F1" height="2" style="stroke:#181818;stroke-width:0.5;" width="4" x="1214.2687" y="227.0137"/><rect fill="#F1F1F1" height="2" style="stroke:#181818;stroke-width:0.5;" width="4" x="1214.2687" y="231.0137"/><text fill="#000000" font-family="sans-serif" font-size="14" lengthAdjust="spacing" textLength="108.1787" x="1103.09" y="255.1211">BuildingRenderer</text></g><!--entity bf--><g id="elem_bf"><rect fill="#F1F1F1" height="48.6211" rx="2.5" ry="2.5" style="stroke:#181818;stroke-width:0.5;" width="136.4893" x="890.09" y="354.5137"/><rect fill="#F1F1F1" height="10" style="stroke:#181818;stroke-width:0.5;" width="15" x="1006.5793" y="359.5137"/><rect fill="#F1F1F1" height="2" style="stroke:#181818;stroke-width:0.5;" width="4" x="1004.5793" y="361.5137"/><rect fill="#F1F1F1" height="2" style="stroke:#181818;stroke-width:0.5;" width="4" x="1004.5793" y="365.5137"/><text fill="#000000" font-family="sans-serif" font-size="14" lengthAdjust="spacing" textLength="96.4893" x="905.09" y="389.6211">BuildingFactory</text></g><!--entity bp--><g id="elem_bp"><rect fill="#F1F1F1" height="48.6211" rx="2.5" ry="2.5" style="stroke:#181818;stroke-width:0.5;" width="211.2129" x="1069.59" y="354.5137"/><rect fill="#F1F1F1" height="10" style="stroke:#181818;stroke-width:0.5;" width="15" x="1260.8029" y="359.5137"/><rect fill="#F1F1F1" height="2" style="stroke:#181818;stroke-width:0.5;" width="4" x="1258.8029" y="361.5137"/><rect fill="#F1F1F1" height="2" style="stroke:#181818;stroke-width:0.5;" width="4" x="1258.8029" y="365.5137"/><text fill="#000000" font-family="sans-serif" font-size="14" lengthAdjust="spacing" textLength="171.2129" x="1084.59" y="389.6211">BuildingPlacementManager</text></g><!--entity pp--><g id="elem_pp"><ellipse cx="381.09" cy="520.0137" fill="#F1F1F1" rx="8" ry="8" style="stroke:#181818;stroke-width:0.5;"/><text fill="#000000" font-family="sans-serif" font-size="14" lengthAdjust="spacing" textLength="117.5029" x="322.3385" y="552.1211">Preferences profile</text></g><!--entity sf--><g id="elem_sf"><ellipse cx="801.09" cy="379.0137" fill="#F1F1F1" rx="8" ry="8" style="stroke:#181818;stroke-width:0.5;"/><text fill="#000000" font-family="sans-serif" font-size="14" lengthAdjust="spacing" textLength="92.6064" x="754.7868" y="411.1211">Soundtrack file</text></g><!--link ui to gp--><g id="link_ui_gp"><path d="M194.0612,77.7334 C193.1389,77.8913 192.1465,78.0663 191.0889,78.2595 C188.9738,78.6458 186.5979,79.1048 184.0008,79.6446 C173.6122,81.8037 159.6831,85.2549 144.7387,90.5187 C114.85,101.0462 80.9,118.8237 63.09,148.0137 C45.89,176.2037 6,180.2137 78.09,269.0137 C133.15,336.8337 227.9265,361.6426 298.0665,371.3326 " fill="none" id="ui-to-gp" style="stroke:#181818;stroke-width:1.0;stroke-dasharray:7.0,7.0;"/><polygon fill="#181818" points="304.01,372.1537,295.6421,366.9596,299.057,371.4694,294.5473,374.8844,304.01,372.1537" style="stroke:#181818;stroke-width:1.0;"/><text fill="#000000" font-family="sans-serif" font-size="13" lengthAdjust="spacing" textLength="90.3335" x="79.09" y="250.042">get preferences</text></g><!--link ss to gp--><g id="link_ss_gp"><path d="M291.02,100.1837 C277.47,120.9137 255.08,150.2637 228.09,167.0137 C215.63,174.7437 205.11,163.4537 196.09,175.0137 C170.38,207.9437 175.36,232.7437 196.09,269.0137 C219.67,310.2837 260.1287,335.1589 300.3387,352.0589 " fill="none" id="ss-to-gp" style="stroke:#181818;stroke-width:1.0;stroke-dasharray:7.0,7.0;"/><polygon fill="#181818" points="305.87,354.3837,299.1229,347.209,301.2606,352.4464,296.0232,354.5841,305.87,354.3837" style="stroke:#181818;stroke-width:1.0;"/><text fill="#000000" font-family="sans-serif" font-size="13" lengthAdjust="spacing" textLength="89.6035" x="197.09" y="250.042">set preferences</text></g><!--link st to gp--><g id="link_st_gp"><path d="M477.17,269.2037 C456.01,293.1737 427.4318,325.5364 406.1918,349.5864 " fill="none" id="st-to-gp" style="stroke:#181818;stroke-width:1.0;stroke-dasharray:7.0,7.0;"/><polygon fill="#181818" points="402.22,354.0837,411.1758,349.9857,405.5298,350.336,405.1795,344.69,402.22,354.0837" style="stroke:#181818;stroke-width:1.0;"/><text fill="#000000" font-family="sans-serif" font-size="13" lengthAdjust="spacing" textLength="63.5908" x="450.09" y="314.042">get volume</text></g><!--link gp to pp--><g id="link_gp_pp"><path d="M381.09,403.5937 C381.09,435.3537 381.09,484.2637 381.09,504.8737 " fill="none" id="gp-to-pp" style="stroke:#181818;stroke-width:1.0;"/><polygon fill="#181818" points="381.09,510.8737,385.09,501.8737,381.09,505.8737,377.09,501.8737,381.09,510.8737" style="stroke:#181818;stroke-width:1.0;"/><text fill="#000000" font-family="sans-serif" font-size="13" lengthAdjust="spacing" textLength="57.0908" x="382.09" y="455.042">load/store</text></g><!--link ui to st--><g id="link_ui_st"><path d="M209.7611,124.0384 C209.8074,124.1407 209.854,124.2429 209.9009,124.3449 C209.9947,124.549 210.0895,124.7525 210.1855,124.9555 C210.5692,125.7673 210.9705,126.5701 211.3902,127.3618 C212.2294,128.9453 213.1419,130.4847 214.1339,131.9649 C216.118,134.9252 218.42,137.6487 221.09,140.0137 C289.95,201.0137 342.73,134.0337 425.09,175.0137 C446.41,185.6237 461.8429,199.9923 475.2829,215.2423 " fill="none" id="ui-to-st" style="stroke:#181818;stroke-width:1.0;stroke-dasharray:7.0,7.0;"/><polygon fill="#181818" points="479.25,219.7437,476.3003,210.3469,475.9441,215.9925,470.2985,215.6364,479.25,219.7437" style="stroke:#181818;stroke-width:1.0;"/><text fill="#000000" font-family="sans-serif" font-size="13" lengthAdjust="spacing" textLength="23.8481" x="402.09" y="163.042">play</text></g><!--link go to st--><g id="link_go_st"><path d="M486.07,100.0837 C488.73,131.8237 492.9283,181.9947 495.5983,213.8147 " fill="none" id="go-to-st" style="stroke:#181818;stroke-width:1.0;stroke-dasharray:7.0,7.0;"/><polygon fill="#181818" points="496.1,219.7937,499.3335,210.4907,495.6819,214.8112,491.3615,211.1597,496.1,219.7937" style="stroke:#181818;stroke-width:1.0;"/><text fill="#000000" font-family="sans-serif" font-size="13" lengthAdjust="spacing" textLength="35.4199" x="492.09" y="163.042">pause</text></g><!--link ms to it--><g id="link_ms_it"><path d="M652.09,100.0837 C652.09,131.8237 652.09,181.9737 652.09,213.7937 " fill="none" id="ms-to-it" style="stroke:#181818;stroke-width:1.0;stroke-dasharray:7.0,7.0;"/><polygon fill="#181818" points="652.09,219.7937,656.09,210.7937,652.09,214.7937,648.09,210.7937,652.09,219.7937" style="stroke:#181818;stroke-width:1.0;"/><text fill="#000000" font-family="sans-serif" font-size="13" lengthAdjust="spacing" textLength="67.9326" x="653.09" y="163.042">update time</text></g><!--link ui to cs--><g id="link_ui_cs"><path d="M193.8303,78.7079 C193.6822,78.7488 193.5323,78.7903 193.3808,78.8323 C188.5307,80.1763 181.9324,82.0799 174.3017,84.478 C159.0403,89.2743 139.6494,96.0487 121.8563,104.2812 C86.27,120.7462 57.075,143.0437 80.09,167.0137 C95.26,182.8137 256.73,166.9437 277.09,175.0137 C300.72,184.3837 318.0711,199.5749 332.6211,215.4149 " fill="none" id="ui-to-cs" style="stroke:#181818;stroke-width:1.0;stroke-dasharray:7.0,7.0;"/><polygon fill="#181818" points="336.68,219.8337,333.5375,210.4996,333.2976,216.1514,327.6458,215.9115,336.68,219.8337" style="stroke:#181818;stroke-width:1.0;"/><text fill="#000000" font-family="sans-serif" font-size="13" lengthAdjust="spacing" textLength="77.3271" x="81.09" y="163.042">get constants</text></g><!--link ms to bm--><g id="link_ms_bm"><path d="M676,100.2037 C689.84,113.0737 708.05,128.6337 726.09,140.0137 C779.16,173.4937 839.2941,199.3949 887.5741,217.8149 " fill="none" id="ms-to-bm" style="stroke:#181818;stroke-width:1.0;stroke-dasharray:7.0,7.0;"/><polygon fill="#181818" points="893.18,219.9537,886.1971,213.0083,888.5085,218.1714,883.3454,220.4828,893.18,219.9537" style="stroke:#181818;stroke-width:1.0;"/><text fill="#000000" font-family="sans-serif" font-size="13" lengthAdjust="spacing" textLength="96.8462" x="769.09" y="163.042">choose buildings</text></g><!--link ms to br--><g id="link_ms_br"><path d="M672.15,100.2737 C685.75,114.5637 705.04,131.5637 726.09,140.0137 C756.66,152.2837 841.33,144.6237 874.09,148.0137 C952.81,156.1637 975.77,147.8337 1050.09,175.0137 C1079.42,185.7337 1104.5276,201.1445 1126.0976,216.3645 " fill="none" id="ms-to-br" style="stroke:#181818;stroke-width:1.0;stroke-dasharray:7.0,7.0;"/><polygon fill="#181818" points="1131,219.8237,1125.9525,211.3666,1126.9146,216.941,1121.3402,217.9032,1131,219.8237" style="stroke:#181818;stroke-width:1.0;"/><text fill="#000000" font-family="sans-serif" font-size="13" lengthAdjust="spacing" textLength="92.5044" x="1026.09" y="163.042">render buildings</text></g><!--link st to sf--><g id="link_st_sf"><path d="M551.91,269.0537 C626.4,301.6237 750.3028,355.7993 786.1528,371.4793 " fill="none" id="st-to-sf" style="stroke:#181818;stroke-width:1.0;"/><polygon fill="#181818" points="791.65,373.8837,785.0071,366.6124,787.069,371.88,781.8013,373.9419,791.65,373.8837" style="stroke:#181818;stroke-width:1.0;"/><text fill="#000000" font-family="sans-serif" font-size="13" lengthAdjust="spacing" textLength="39.73" x="659.09" y="314.042">stream</text></g><!--link bm to bp--><g id="link_bm_bp"><path d="M995.26,269.2037 C1016.94,283.6137 1045.4,302.2337 1071.09,318.0137 C1091.25,330.4037 1108.7675,340.6221 1127.8175,351.4821 " fill="none" id="bm-to-bp" style="stroke:#181818;stroke-width:1.0;stroke-dasharray:7.0,7.0;"/><polygon fill="#181818" points="1133.03,354.4537,1127.1923,346.5214,1128.6863,351.9774,1123.2303,353.4714,1133.03,354.4537" style="stroke:#181818;stroke-width:1.0;"/><text fill="#000000" font-family="sans-serif" font-size="13" lengthAdjust="spacing" textLength="86.0044" x="1072.09" y="314.042">place buildings</text></g><!--link bm to bf--><g id="link_bm_bf"><path d="M936.72,269.0837 C929.65,277.7637 922.77,288.1537 919.09,299.0137 C912.56,318.2837 919.6652,334.1107 931.5352,349.4307 " fill="none" id="bm-to-bf" style="stroke:#181818;stroke-width:1.0;stroke-dasharray:7.0,7.0;"/><polygon fill="#181818" points="935.21,354.1737,932.8597,344.6094,932.1476,350.2212,926.5358,349.5092,935.21,354.1737" style="stroke:#181818;stroke-width:1.0;"/><text fill="#000000" font-family="sans-serif" font-size="13" lengthAdjust="spacing" textLength="91.0571" x="920.09" y="314.042">create buildings</text></g><!--link br to bp--><g id="link_br_bp"><path d="M1164.41,269.2037 C1166.77,293.1737 1169.794,324.0624 1172.154,348.1124 " fill="none" id="br-to-bp" style="stroke:#181818;stroke-width:1.0;stroke-dasharray:7.0,7.0;"/><polygon fill="#181818" points="1172.74,354.0837,1175.8419,344.7361,1172.2517,349.1076,1167.8802,345.5173,1172.74,354.0837" style="stroke:#181818;stroke-width:1.0;"/><text fill="#000000" font-family="sans-serif" font-size="13" lengthAdjust="spacing" textLength="114.918" x="1169.09" y="314.042">get placed buildings</text></g><!--SRC=[VPDDRzf048Rl_XMZd9839A2eH3v45KaJGOE8OiYbwc6z7jDjxTtLVY2Xgl-zipR-8BZbXFoyyywxixC0zKyp_elj42ws5Wqif4EJCuuNm2nu0R-Zemw-ROGhCE46KNuFrDcEhPZkaR974dHEo9tjOTl3pwp4zHvD3-zKY_-q_zgOhsYii0wbWtNw4xcpLLIj-b4JvMNc3DNK3TrfmrU3EHgK76tTKNVyGKdhc7GruRse2nbgDw94Kp7X_fTpxaMHXODNyTAi7wzXAoP9MxkbvJb_GvbHpgF0d0kU67VA76gUd_FNWgwof5cTTD83kKLpyJJXRZgWZSf5KM-3raFgRjJGAcqUHAsQrcWylgSfGmmxT6JQDcWrrdOQ-o-DE_NPgyANs6BwFXhTKqp2XMBPjQNPuCSKP1A3BjYXgrCzmBpjIiewb0Z4wumv12VACqjkZu5uipiV7TAI5Fo7KXOXRHRZJ6H8PAeh7n1Hl70w6YqDo1batRwGUrMlwvFneHwD9fJJKmj76H2PpgYwg62M3GW_KqfV5b542oRTTlK2-_0ibOJ9U7eplHtFBXFc844DDpEOJEF9NJoPmJpPGC1NqULgiG6hlA6m6Jrd8rBlgFugMh8zWpSlmw1ZM6kKoyUlpGVu8lV2A1bMEbg-hph1fzlHN8IEXfB0-ofwn9pvmb45Lo5y3DlDq-WkUc5ov-ajn80oUg3bTUOGm_FyBm00]--></g></svg>