<svg xmlns="http://www.w3.org/2000/svg" xmlns:xlink="http://www.w3.org/1999/xlink" contentStyleType="text/css" height="1020px" preserveAspectRatio="none" style="width:2148px;height:1020px;background:#FFFFFF;" version="1.1" viewBox="0 0 2148 1020" width="2148px" zoomAndPan="magnify"><defs/><g><!--cluster achievements--><g id="cluster_achievements"><path d="M45.5,421.0137 L139.1064,421.0137 A3.75,3.75 0 0 1 141.6064,423.5137 L148.6064,445.6348 L608.5,445.6348 A2.5,2.5 0 0 1 611,448.1348 L611,520.5137 A2.5,2.5 0 0 1 608.5,523.0137 L45.5,523.0137 A2.5,2.5 0 0 1 43,520.5137 L43,423.5137 A2.5,2.5 0 0 1 45.5,421.0137 " fill="none" style="stroke:#000000;stroke-width:1.5;"/><line style="stroke:#000000;stroke-width:1.5;" x1="43" x2="148.6064" y1="445.6348" y2="445.6348"/><text fill="#000000" font-family="sans-serif" font-size="14" font-weight="bold" lengthAdjust="spacing" textLength="92.6064" x="47" y="438.1211">achievements</text></g><!--cluster building--><g id="cluster_building"><path d="M1361.5,421.0137 L1416.9277,421.0137 A3.75,3.75 0 0 1 1419.4277,423.5137 L1426.4277,445.6348 L1781.5,445.6348 A2.5,2.5 0 0 1 1784,448.1348 L1784,857.5137 A2.5,2.5 0 0 1 1781.5,860.0137 L1361.5,860.0137 A2.5,2.5 0 0 1 1359,857.5137 L1359,423.5137 A2.5,2.5 0 0 1 1361.5,421.0137 " fill="none" style="stroke:#000000;stroke-width:1.5;"/><line style="stroke:#000000;stroke-width:1.5;" x1="1359" x2="1426.4277" y1="445.6348" y2="445.6348"/><text fill="#000000" font-family="sans-serif" font-size="14" font-weight="bold" lengthAdjust="spacing" textLength="54.4277" x="1363" y="438.1211">building</text></g><!--cluster Factory--><g id="cluster_Factory"><path d="M1385.5,734.0137 L1437.0723,734.0137 A3.75,3.75 0 0 1 1439.5723,736.5137 L1446.5723,758.6348 L1757.5,758.6348 A2.5,2.5 0 0 1 1760,761.1348 L1760,833.5137 A2.5,2.5 0 0 1 1757.5,836.0137 L1385.5,836.0137 A2.5,2.5 0 0 1 1383,833.5137 L1383,736.5137 A2.5,2.5 0 0 1 1385.5,734.0137 " fill="none" style="stroke:#000000;stroke-width:1.5;"/><line style="stroke:#000000;stroke-width:1.5;" x1="1383" x2="1446.5723" y1="758.6348" y2="758.6348"/><text fill="#000000" font-family="sans-serif" font-size="14" font-weight="bold" lengthAdjust="spacing" textLength="50.5723" x="1387" y="751.1211">Factory</text></g><!--cluster currency--><g id="cluster_currency"><path d="M1164.5,726.0137 L1224.6445,726.0137 A3.75,3.75 0 0 1 1227.1445,728.5137 L1234.1445,750.6348 L1324.5,750.6348 A2.5,2.5 0 0 1 1327,753.1348 L1327,841.5137 A2.5,2.5 0 0 1 1324.5,844.0137 L1164.5,844.0137 A2.5,2.5 0 0 1 1162,841.5137 L1162,728.5137 A2.5,2.5 0 0 1 1164.5,726.0137 " fill="none" style="stroke:#000000;stroke-width:1.5;"/><line style="stroke:#000000;stroke-width:1.5;" x1="1162" x2="1234.1445" y1="750.6348" y2="750.6348"/><text fill="#000000" font-family="sans-serif" font-size="14" font-weight="bold" lengthAdjust="spacing" textLength="59.1445" x="1166" y="743.1211">currency</text></g><!--cluster event--><g id="cluster_event"><path d="M179.5,228.0137 L217.0723,228.0137 A3.75,3.75 0 0 1 219.5723,230.5137 L226.5723,252.6348 L522.5,252.6348 A2.5,2.5 0 0 1 525,255.1348 L525,343.5137 A2.5,2.5 0 0 1 522.5,346.0137 L179.5,346.0137 A2.5,2.5 0 0 1 177,343.5137 L177,230.5137 A2.5,2.5 0 0 1 179.5,228.0137 " fill="none" style="stroke:#000000;stroke-width:1.5;"/><line style="stroke:#000000;stroke-width:1.5;" x1="177" x2="226.5723" y1="252.6348" y2="252.6348"/><text fill="#000000" font-family="sans-serif" font-size="14" font-weight="bold" lengthAdjust="spacing" textLength="36.5723" x="181" y="245.1211">event</text></g><!--cluster render--><g id="cluster_render"><path d="M1195.5,236.0137 L1240.0723,236.0137 A3.75,3.75 0 0 1 1242.5723,238.5137 L1249.5723,260.6348 L1370.5,260.6348 A2.5,2.5 0 0 1 1373,263.1348 L1373,335.5137 A2.5,2.5 0 0 1 1370.5,338.0137 L1195.5,338.0137 A2.5,2.5 0 0 1 1193,335.5137 L1193,238.5137 A2.5,2.5 0 0 1 1195.5,236.0137 " fill="none" style="stroke:#000000;stroke-width:1.5;"/><line style="stroke:#000000;stroke-width:1.5;" x1="1193" x2="1249.5723" y1="260.6348" y2="260.6348"/><text fill="#000000" font-family="sans-serif" font-size="14" font-weight="bold" lengthAdjust="spacing" textLength="43.5723" x="1197" y="253.1211">render</text></g><!--cluster satisfaction--><g id="cluster_satisfaction"><path d="M1943.5,6.0137 L2022.2998,6.0137 A3.75,3.75 0 0 1 2024.7998,8.5137 L2031.7998,30.6348 L2138.5,30.6348 A2.5,2.5 0 0 1 2141,33.1348 L2141,520.5137 A2.5,2.5 0 0 1 2138.5,523.0137 L1943.5,523.0137 A2.5,2.5 0 0 1 1941,520.5137 L1941,8.5137 A2.5,2.5 0 0 1 1943.5,6.0137 " fill="none" style="stroke:#000000;stroke-width:1.5;"/><line style="stroke:#000000;stroke-width:1.5;" x1="1941" x2="2031.7998" y1="30.6348" y2="30.6348"/><text fill="#000000" font-family="sans-serif" font-size="14" font-weight="bold" lengthAdjust="spacing" textLength="77.7998" x="1945" y="23.1211">satisfaction</text></g><!--cluster leaderboard--><g id="cluster_leaderboard"><path d="M1967.5,51.0137 L2048.6377,51.0137 A3.75,3.75 0 0 1 2051.1377,53.5137 L2058.1377,75.6348 L2114.5,75.6348 A2.5,2.5 0 0 1 2117,78.1348 L2117,150.5137 A2.5,2.5 0 0 1 2114.5,153.0137 L1967.5,153.0137 A2.5,2.5 0 0 1 1965,150.5137 L1965,53.5137 A2.5,2.5 0 0 1 1967.5,51.0137 " fill="none" style="stroke:#000000;stroke-width:1.5;"/><line style="stroke:#000000;stroke-width:1.5;" x1="1965" x2="2058.1377" y1="75.6348" y2="75.6348"/><text fill="#000000" font-family="sans-serif" font-size="14" font-weight="bold" lengthAdjust="spacing" textLength="80.1377" x="1969" y="68.1211">leaderboard</text></g><!--cluster screen--><g id="cluster_screen"><path d="M1059.5,43.0137 L1105.6445,43.0137 A3.75,3.75 0 0 1 1108.1445,45.5137 L1115.1445,67.6348 L1739.5,67.6348 A2.5,2.5 0 0 1 1742,70.1348 L1742,158.5137 A2.5,2.5 0 0 1 1739.5,161.0137 L1059.5,161.0137 A2.5,2.5 0 0 1 1057,158.5137 L1057,45.5137 A2.5,2.5 0 0 1 1059.5,43.0137 " fill="none" style="stroke:#000000;stroke-width:1.5;"/><line style="stroke:#000000;stroke-width:1.5;" x1="1057" x2="1115.1445" y1="67.6348" y2="67.6348"/><text fill="#000000" font-family="sans-serif" font-size="14" font-weight="bold" lengthAdjust="spacing" textLength="45.1445" x="1061" y="60.1211">screen</text></g><!--cluster setting--><g id="cluster_setting"><path d="M818.5,911.0137 L865.3896,911.0137 A3.75,3.75 0 0 1 867.8896,913.5137 L874.8896,935.6348 L1138.5,935.6348 A2.5,2.5 0 0 1 1141,938.1348 L1141,1010.5137 A2.5,2.5 0 0 1 1138.5,1013.0137 L818.5,1013.0137 A2.5,2.5 0 0 1 816,1010.5137 L816,913.5137 A2.5,2.5 0 0 1 818.5,911.0137 " fill="none" style="stroke:#000000;stroke-width:1.5;"/><line style="stroke:#000000;stroke-width:1.5;" x1="816" x2="874.8896" y1="935.6348" y2="935.6348"/><text fill="#000000" font-family="sans-serif" font-size="14" font-weight="bold" lengthAdjust="spacing" textLength="45.8896" x="820" y="928.1211">setting</text></g><!--cluster timer--><g id="cluster_timer"><path d="M645.5,413.0137 L680.7344,413.0137 A3.75,3.75 0 0 1 683.2344,415.5137 L690.2344,437.6348 L839.5,437.6348 A2.5,2.5 0 0 1 842,440.1348 L842,528.5137 A2.5,2.5 0 0 1 839.5,531.0137 L645.5,531.0137 A2.5,2.5 0 0 1 643,528.5137 L643,415.5137 A2.5,2.5 0 0 1 645.5,413.0137 " fill="none" style="stroke:#000000;stroke-width:1.5;"/><line style="stroke:#000000;stroke-width:1.5;" x1="643" x2="690.2344" y1="437.6348" y2="437.6348"/><text fill="#000000" font-family="sans-serif" font-size="14" font-weight="bold" lengthAdjust="spacing" textLength="34.2344" x="647" y="430.1211">timer</text></g><!--entity Achievement--><g id="elem_Achievement"><rect fill="#F1F1F1" height="48.6211" rx="2.5" ry="2.5" style="stroke:#181818;stroke-width:0.5;" width="120.9307" x="473.5" y="458.0137"/><rect fill="#F1F1F1" height="10" style="stroke:#181818;stroke-width:0.5;" width="15" x="574.4307" y="463.0137"/><rect fill="#F1F1F1" height="2" style="stroke:#181818;stroke-width:0.5;" width="4" x="572.4307" y="465.0137"/><rect fill="#F1F1F1" height="2" style="stroke:#181818;stroke-width:0.5;" width="4" x="572.4307" y="469.0137"/><text fill="#000000" font-family="sans-serif" font-size="14" lengthAdjust="spacing" textLength="80.9307" x="488.5" y="493.1211">Achievement</text></g><!--entity AchievementFactory--><g id="elem_AchievementFactory"><rect fill="#F1F1F1" height="48.6211" rx="2.5" ry="2.5" style="stroke:#181818;stroke-width:0.5;" width="167.6064" x="270" y="458.0137"/><rect fill="#F1F1F1" height="10" style="stroke:#181818;stroke-width:0.5;" width="15" x="417.6064" y="463.0137"/><rect fill="#F1F1F1" height="2" style="stroke:#181818;stroke-width:0.5;" width="4" x="415.6064" y="465.0137"/><rect fill="#F1F1F1" height="2" style="stroke:#181818;stroke-width:0.5;" width="4" x="415.6064" y="469.0137"/><text fill="#000000" font-family="sans-serif" font-size="14" lengthAdjust="spacing" textLength="127.6064" x="285" y="493.1211">AchievementFactory</text></g><!--entity AchievementManager--><g id="elem_AchievementManager"><rect fill="#F1F1F1" height="48.6211" rx="2.5" ry="2.5" style="stroke:#181818;stroke-width:0.5;" width="176.1855" x="59" y="458.0137"/><rect fill="#F1F1F1" height="10" style="stroke:#181818;stroke-width:0.5;" width="15" x="215.1855" y="463.0137"/><rect fill="#F1F1F1" height="2" style="stroke:#181818;stroke-width:0.5;" width="4" x="213.1855" y="465.0137"/><rect fill="#F1F1F1" height="2" style="stroke:#181818;stroke-width:0.5;" width="4" x="213.1855" y="469.0137"/><text fill="#000000" font-family="sans-serif" font-size="14" lengthAdjust="spacing" textLength="136.1855" x="74" y="493.1211">AchievementManager</text></g><!--entity BuildingManager--><g id="elem_BuildingManager"><rect fill="#F1F1F1" height="48.6211" rx="2.5" ry="2.5" style="stroke:#181818;stroke-width:0.5;" width="145.0684" x="1534.5" y="458.0137"/><rect fill="#F1F1F1" height="10" style="stroke:#181818;stroke-width:0.5;" width="15" x="1659.5684" y="463.0137"/><rect fill="#F1F1F1" height="2" style="stroke:#181818;stroke-width:0.5;" width="4" x="1657.5684" y="465.0137"/><rect fill="#F1F1F1" height="2" style="stroke:#181818;stroke-width:0.5;" width="4" x="1657.5684" y="469.0137"/><text fill="#000000" font-family="sans-serif" font-size="14" lengthAdjust="spacing" textLength="105.0684" x="1549.5" y="493.1211">BuildingManager</text></g><!--entity BuildingPlacementManager--><g id="elem_BuildingPlacementManager"><rect fill="#F1F1F1" height="48.6211" rx="2.5" ry="2.5" style="stroke:#181818;stroke-width:0.5;" width="211.2129" x="1411.5" y="604.0137"/><rect fill="#F1F1F1" height="10" style="stroke:#181818;stroke-width:0.5;" width="15" x="1602.7129" y="609.0137"/><rect fill="#F1F1F1" height="2" style="stroke:#181818;stroke-width:0.5;" width="4" x="1600.7129" y="611.0137"/><rect fill="#F1F1F1" height="2" style="stroke:#181818;stroke-width:0.5;" width="4" x="1600.7129" y="615.0137"/><text fill="#000000" font-family="sans-serif" font-size="14" lengthAdjust="spacing" textLength="171.2129" x="1426.5" y="639.1211">BuildingPlacementManager</text></g><!--entity BuildingFactory--><g id="elem_BuildingFactory"><rect fill="#F1F1F1" height="48.6211" rx="2.5" ry="2.5" style="stroke:#181818;stroke-width:0.5;" width="136.4893" x="1399" y="771.0137"/><rect fill="#F1F1F1" height="10" style="stroke:#181818;stroke-width:0.5;" width="15" x="1515.4893" y="776.0137"/><rect fill="#F1F1F1" height="2" style="stroke:#181818;stroke-width:0.5;" width="4" x="1513.4893" y="778.0137"/><rect fill="#F1F1F1" height="2" style="stroke:#181818;stroke-width:0.5;" width="4" x="1513.4893" y="782.0137"/><text fill="#000000" font-family="sans-serif" font-size="14" lengthAdjust="spacing" textLength="96.4893" x="1414" y="806.1211">BuildingFactory</text></g><!--entity BuildingSpriteFactory--><g id="elem_BuildingSpriteFactory"><rect fill="#F1F1F1" height="48.6211" rx="2.5" ry="2.5" style="stroke:#181818;stroke-width:0.5;" width="173.0615" x="1570.5" y="771.0137"/><rect fill="#F1F1F1" height="10" style="stroke:#181818;stroke-width:0.5;" width="15" x="1723.5615" y="776.0137"/><rect fill="#F1F1F1" height="2" style="stroke:#181818;stroke-width:0.5;" width="4" x="1721.5615" y="778.0137"/><rect fill="#F1F1F1" height="2" style="stroke:#181818;stroke-width:0.5;" width="4" x="1721.5615" y="782.0137"/><text fill="#000000" font-family="sans-serif" font-size="14" lengthAdjust="spacing" textLength="133.0615" x="1585.5" y="806.1211">BuildingSpriteFactory</text></g><!--entity Currency--><g id="elem_Currency"><rect fill="#F1F1F1" height="48.6211" rx="2.5" ry="2.5" style="stroke:#181818;stroke-width:0.5;" width="96.793" x="1205.5" y="771.0137"/><rect fill="#F1F1F1" height="10" style="stroke:#181818;stroke-width:0.5;" width="15" x="1282.293" y="776.0137"/><rect fill="#F1F1F1" height="2" style="stroke:#181818;stroke-width:0.5;" width="4" x="1280.293" y="778.0137"/><rect fill="#F1F1F1" height="2" style="stroke:#181818;stroke-width:0.5;" width="4" x="1280.293" y="782.0137"/><text fill="#000000" font-family="sans-serif" font-size="14" lengthAdjust="spacing" textLength="56.793" x="1220.5" y="806.1211">Currency</text></g><!--entity EventManager--><g id="elem_EventManager"><rect fill="#F1F1F1" height="48.6211" rx="2.5" ry="2.5" style="stroke:#181818;stroke-width:0.5;" width="131.0547" x="369.5" y="273.0137"/><rect fill="#F1F1F1" height="10" style="stroke:#181818;stroke-width:0.5;" width="15" x="480.5547" y="278.0137"/><rect fill="#F1F1F1" height="2" style="stroke:#181818;stroke-width:0.5;" width="4" x="478.5547" y="280.0137"/><rect fill="#F1F1F1" height="2" style="stroke:#181818;stroke-width:0.5;" width="4" x="478.5547" y="284.0137"/><text fill="#000000" font-family="sans-serif" font-size="14" lengthAdjust="spacing" textLength="91.0547" x="384.5" y="308.1211">EventManager</text></g><!--entity GameEvent--><g id="elem_GameEvent"><rect fill="#F1F1F1" height="48.6211" rx="2.5" ry="2.5" style="stroke:#181818;stroke-width:0.5;" width="113.9238" x="220" y="273.0137"/><rect fill="#F1F1F1" height="10" style="stroke:#181818;stroke-width:0.5;" width="15" x="313.9238" y="278.0137"/><rect fill="#F1F1F1" height="2" style="stroke:#181818;stroke-width:0.5;" width="4" x="311.9238" y="280.0137"/><rect fill="#F1F1F1" height="2" style="stroke:#181818;stroke-width:0.5;" width="4" x="311.9238" y="284.0137"/><text fill="#000000" font-family="sans-serif" font-size="14" lengthAdjust="spacing" textLength="73.9238" x="235" y="308.1211">GameEvent</text></g><!--entity BuildingRenderer--><g id="elem_BuildingRenderer"><rect fill="#F1F1F1" height="48.6211" rx="2.5" ry="2.5" style="stroke:#181818;stroke-width:0.5;" width="148.1787" x="1209" y="273.0137"/><rect fill="#F1F1F1" height="10" style="stroke:#181818;stroke-width:0.5;" width="15" x="1337.1787" y="278.0137"/><rect fill="#F1F1F1" height="2" style="stroke:#181818;stroke-width:0.5;" width="4" x="1335.1787" y="280.0137"/><rect fill="#F1F1F1" height="2" style="stroke:#181818;stroke-width:0.5;" width="4" x="1335.1787" y="284.0137"/><text fill="#000000" font-family="sans-serif" font-size="14" lengthAdjust="spacing" textLength="108.1787" x="1224" y="308.1211">BuildingRenderer</text></g><!--entity SatisfactionGraph--><g id="elem_SatisfactionGraph"><rect fill="#F1F1F1" height="48.6211" rx="2.5" ry="2.5" style="stroke:#181818;stroke-width:0.5;" width="151.2822" x="1959.5" y="458.0137"/><rect fill="#F1F1F1" height="10" style="stroke:#181818;stroke-width:0.5;" width="15" x="2090.7822" y="463.0137"/><rect fill="#F1F1F1" height="2" style="stroke:#181818;stroke-width:0.5;" width="4" x="2088.7822" y="465.0137"/><rect fill="#F1F1F1" height="2" style="stroke:#181818;stroke-width:0.5;" width="4" x="2088.7822" y="469.0137"/><text fill="#000000" font-family="sans-serif" font-size="14" lengthAdjust="spacing" textLength="111.2822" x="1974.5" y="493.1211">SatisfactionGraph</text></g><!--entity SatisfactionManager--><g id="elem_SatisfactionManager"><rect fill="#F1F1F1" height="48.6211" rx="2.5" ry="2.5" style="stroke:#181818;stroke-width:0.5;" width="167.627" x="1957" y="273.0137"/><rect fill="#F1F1F1" height="10" style="stroke:#181818;stroke-width:0.5;" width="15" x="2104.627" y="278.0137"/><rect fill="#F1F1F1" height="2" style="stroke:#181818;stroke-width:0.5;" width="4" x="2102.627" y="280.0137"/><rect fill="#F1F1F1" height="2" style="stroke:#181818;stroke-width:0.5;" width="4" x="2102.627" y="284.0137"/><text fill="#000000" font-family="sans-serif" font-size="14" lengthAdjust="spacing" textLength="127.627" x="1972" y="308.1211">SatisfactionManager</text></g><!--entity Leaderboard--><g id="elem_Leaderboard"><rect fill="#F1F1F1" height="48.6211" rx="2.5" ry="2.5" style="stroke:#181818;stroke-width:0.5;" width="119.3994" x="1981.5" y="88.0137"/><rect fill="#F1F1F1" height="10" style="stroke:#181818;stroke-width:0.5;" width="15" x="2080.8994" y="93.0137"/><rect fill="#F1F1F1" height="2" style="stroke:#181818;stroke-width:0.5;" width="4" x="2078.8994" y="95.0137"/><rect fill="#F1F1F1" height="2" style="stroke:#181818;stroke-width:0.5;" width="4" x="2078.8994" y="99.0137"/><text fill="#000000" font-family="sans-serif" font-size="14" lengthAdjust="spacing" textLength="79.3994" x="1996.5" y="123.1211">Leaderboard</text></g><!--entity GameOverScreen--><g id="elem_GameOverScreen"><rect fill="#F1F1F1" height="48.6211" rx="2.5" ry="2.5" style="stroke:#181818;stroke-width:0.5;" width="152.8203" x="1246.5" y="88.0137"/><rect fill="#F1F1F1" height="10" style="stroke:#181818;stroke-width:0.5;" width="15" x="1379.3203" y="93.0137"/><rect fill="#F1F1F1" height="2" style="stroke:#181818;stroke-width:0.5;" width="4" x="1377.3203" y="95.0137"/><rect fill="#F1F1F1" height="2" style="stroke:#181818;stroke-width:0.5;" width="4" x="1377.3203" y="99.0137"/><text fill="#000000" font-family="sans-serif" font-size="14" lengthAdjust="spacing" textLength="112.8203" x="1261.5" y="123.1211">GameOverScreen</text></g><!--entity MapScreen--><g id="elem_MapScreen"><rect fill="#F1F1F1" height="48.6211" rx="2.5" ry="2.5" style="stroke:#181818;stroke-width:0.5;" width="111.5928" x="1435" y="88.0137"/><rect fill="#F1F1F1" height="10" style="stroke:#181818;stroke-width:0.5;" width="15" x="1526.5928" y="93.0137"/><rect fill="#F1F1F1" height="2" style="stroke:#181818;stroke-width:0.5;" width="4" x="1524.5928" y="95.0137"/><rect fill="#F1F1F1" height="2" style="stroke:#181818;stroke-width:0.5;" width="4" x="1524.5928" y="99.0137"/><text fill="#000000" font-family="sans-serif" font-size="14" lengthAdjust="spacing" textLength="71.5928" x="1450" y="123.1211">MapScreen</text></g><!--entity SettingsScreen--><g id="elem_SettingsScreen"><rect fill="#F1F1F1" height="48.6211" rx="2.5" ry="2.5" style="stroke:#181818;stroke-width:0.5;" width="134.9443" x="1582.5" y="88.0137"/><rect fill="#F1F1F1" height="10" style="stroke:#181818;stroke-width:0.5;" width="15" x="1697.4443" y="93.0137"/><rect fill="#F1F1F1" height="2" style="stroke:#181818;stroke-width:0.5;" width="4" x="1695.4443" y="95.0137"/><rect fill="#F1F1F1" height="2" style="stroke:#181818;stroke-width:0.5;" width="4" x="1695.4443" y="99.0137"/><text fill="#000000" font-family="sans-serif" font-size="14" lengthAdjust="spacing" textLength="94.9443" x="1597.5" y="123.1211">SettingsScreen</text></g><!--entity TitleScreen--><g id="elem_TitleScreen"><rect fill="#F1F1F1" height="48.6211" rx="2.5" ry="2.5" style="stroke:#181818;stroke-width:0.5;" width="110.8066" x="1100.5" y="88.0137"/><rect fill="#F1F1F1" height="10" style="stroke:#181818;stroke-width:0.5;" width="15" x="1191.3066" y="93.0137"/><rect fill="#F1F1F1" height="2" style="stroke:#181818;stroke-width:0.5;" width="4" x="1189.3066" y="95.0137"/><rect fill="#F1F1F1" height="2" style="stroke:#181818;stroke-width:0.5;" width="4" x="1189.3066" y="99.0137"/><text fill="#000000" font-family="sans-serif" font-size="14" lengthAdjust="spacing" textLength="70.8066" x="1115.5" y="123.1211">TitleScreen</text></g><!--entity Constants--><g id="elem_Constants"><rect fill="#F1F1F1" height="48.6211" rx="2.5" ry="2.5" style="stroke:#181818;stroke-width:0.5;" width="103.0342" x="832.5" y="948.0137"/><rect fill="#F1F1F1" height="10" style="stroke:#181818;stroke-width:0.5;" width="15" x="915.5342" y="953.0137"/><rect fill="#F1F1F1" height="2" style="stroke:#181818;stroke-width:0.5;" width="4" x="913.5342" y="955.0137"/><rect fill="#F1F1F1" height="2" style="stroke:#181818;stroke-width:0.5;" width="4" x="913.5342" y="959.0137"/><text fill="#000000" font-family="sans-serif" font-size="14" lengthAdjust="spacing" textLength="63.0342" x="847.5" y="983.1211">Constants</text></g><!--entity GamePreferences--><g id="elem_GamePreferences"><rect fill="#F1F1F1" height="48.6211" rx="2.5" ry="2.5" style="stroke:#181818;stroke-width:0.5;" width="153.6064" x="971" y="948.0137"/><rect fill="#F1F1F1" height="10" style="stroke:#181818;stroke-width:0.5;" width="15" x="1104.6064" y="953.0137"/><rect fill="#F1F1F1" height="2" style="stroke:#181818;stroke-width:0.5;" width="4" x="1102.6064" y="955.0137"/><rect fill="#F1F1F1" height="2" style="stroke:#181818;stroke-width:0.5;" width="4" x="1102.6064" y="959.0137"/><text fill="#000000" font-family="sans-serif" font-size="14" lengthAdjust="spacing" textLength="113.6064" x="986" y="983.1211">GamePreferences</text></g><!--entity TimerManager--><g id="elem_TimerManager"><rect fill="#F1F1F1" height="48.6211" rx="2.5" ry="2.5" style="stroke:#181818;stroke-width:0.5;" width="131.0273" x="686.5" y="458.0137"/><rect fill="#F1F1F1" height="10" style="stroke:#181818;stroke-width:0.5;" width="15" x="797.5273" y="463.0137"/><rect fill="#F1F1F1" height="2" style="stroke:#181818;stroke-width:0.5;" width="4" x="795.5273" y="465.0137"/><rect fill="#F1F1F1" height="2" style="stroke:#181818;stroke-width:0.5;" width="4" x="795.5273" y="469.0137"/><text fill="#000000" font-family="sans-serif" font-size="14" lengthAdjust="spacing" textLength="91.0273" x="701.5" y="493.1211">TimerManager</text></g><!--entity GameInputProcessor--><g id="elem_GameInputProcessor"><rect fill="#F1F1F1" height="48.6211" rx="2.5" ry="2.5" style="stroke:#181818;stroke-width:0.5;" width="172.2822" x="1539" y="273.0137"/><rect fill="#F1F1F1" height="10" style="stroke:#181818;stroke-width:0.5;" width="15" x="1691.2822" y="278.0137"/><rect fill="#F1F1F1" height="2" style="stroke:#181818;stroke-width:0.5;" width="4" x="1689.2822" y="280.0137"/><rect fill="#F1F1F1" height="2" style="stroke:#181818;stroke-width:0.5;" width="4" x="1689.2822" y="284.0137"/><text fill="#000000" font-family="sans-serif" font-size="14" lengthAdjust="spacing" textLength="132.2822" x="1554" y="308.1211">GameInputProcessor</text></g><!--entity GameStateManager--><g id="elem_GameStateManager"><rect fill="#F1F1F1" height="48.6211" rx="2.5" ry="2.5" style="stroke:#181818;stroke-width:0.5;" width="166.0684" x="1008" y="273.0137"/><rect fill="#F1F1F1" height="10" style="stroke:#181818;stroke-width:0.5;" width="15" x="1154.0684" y="278.0137"/><rect fill="#F1F1F1" height="2" style="stroke:#181818;stroke-width:0.5;" width="4" x="1152.0684" y="280.0137"/><rect fill="#F1F1F1" height="2" style="stroke:#181818;stroke-width:0.5;" width="4" x="1152.0684" y="284.0137"/><text fill="#000000" font-family="sans-serif" font-size="14" lengthAdjust="spacing" textLength="126.0684" x="1023" y="308.1211">GameStateManager</text></g><!--entity Soundtrack--><g id="elem_Soundtrack"><rect fill="#F1F1F1" height="48.6211" rx="2.5" ry="2.5" style="stroke:#181818;stroke-width:0.5;" width="110.8203" x="1392.5" y="273.0137"/><rect fill="#F1F1F1" height="10" style="stroke:#181818;stroke-width:0.5;" width="15" x="1483.3203" y="278.0137"/><rect fill="#F1F1F1" height="2" style="stroke:#181818;stroke-width:0.5;" width="4" x="1481.3203" y="280.0137"/><rect fill="#F1F1F1" height="2" style="stroke:#181818;stroke-width:0.5;" width="4" x="1481.3203" y="284.0137"/><text fill="#000000" font-family="sans-serif" font-size="14" lengthAdjust="spacing" textLength="70.8203" x="1407.5" y="308.1211">Soundtrack</text></g><!--entity soundtrackfile--><g id="elem_soundtrackfile"><ellipse cx="1108" cy="482.5137" fill="#F1F1F1" rx="8" ry="8" style="stroke:#181818;stroke-width:0.5;"/><text fill="#000000" font-family="sans-serif" font-size="14" lengthAdjust="spacing" textLength="86.3789" x="1064.8105" y="514.6211">soundtrackfile</text></g><!--entity textureatlas--><g id="elem_textureatlas"><ellipse cx="1830" cy="972.5137" fill="#F1F1F1" rx="8" ry="8" style="stroke:#181818;stroke-width:0.5;"/><text fill="#000000" font-family="sans-serif" font-size="14" lengthAdjust="spacing" textLength="72.3721" x="1793.814" y="1004.6211">textureatlas</text></g><!--link screen to GamePreferences--><g id="link_screen_GamePreferences"><path d="M1056.8699,121.0596 C1056.7907,121.136 1056.7111,121.2129 1056.6309,121.2903 C1055.9898,121.9097 1055.3187,122.5628 1054.6202,123.2484 C1049.0316,128.733 1041.6831,136.2974 1033.8413,145.3212 C1018.1575,163.3687 1000.5,187.2537 991,212.0137 C965.75,277.8337 980.11,299.5837 977,370.0137 C967,596.1337 1022.6738,861.3944 1041.0838,941.9844 " fill="none" id="screen-to-GamePreferences" style="stroke:#181818;stroke-width:1.0;stroke-dasharray:7.0,7.0;"/><polygon fill="#181818" points="1042.42,947.8337,1044.3152,938.1689,1041.3065,942.9592,1036.5161,939.9505,1042.42,947.8337" style="stroke:#181818;stroke-width:1.0;"/><text fill="#000000" font-family="sans-serif" font-size="13" lengthAdjust="spacing" textLength="91.7744" x="983" y="570.042">get Preferences</text></g><!--link screen to Constants--><g id="link_screen_Constants"><path d="M1056.9684,116.7946 C1056.814,116.8603 1056.6575,116.9269 1056.4991,116.9945 C1056.1822,117.1298 1055.8574,117.2689 1055.5249,117.4118 C1050.2046,119.6994 1042.9039,122.9776 1034.2972,127.204 C1017.0838,135.6568 994.6463,147.9024 972.38,163.6012 C927.8475,194.9987 884,240.2087 884,296.5137 C884,296.5137 884,296.5137 884,796.5137 C884,850.5937 884,908.0737 884,941.7337 " fill="none" id="screen-to-Constants" style="stroke:#181818;stroke-width:1.0;stroke-dasharray:7.0,7.0;"/><polygon fill="#181818" points="884,947.7337,888,938.7337,884,942.7337,880,938.7337,884,947.7337" style="stroke:#181818;stroke-width:1.0;"/><text fill="#000000" font-family="sans-serif" font-size="13" lengthAdjust="spacing" textLength="77.3271" x="885" y="570.042">get constants</text></g><!--link timer to Constants--><g id="link_timer_Constants"><path d="M664.2628,531.1728 C664.2994,531.2828 664.3361,531.3929 664.3728,531.5029 C664.9604,533.2629 665.5617,535.0208 666.1755,536.7664 C667.4033,540.2576 668.6813,543.6999 670,547.0137 C733.03,705.3637 830.6218,879.2565 867.1618,942.5965 " fill="none" id="timer-to-Constants" style="stroke:#181818;stroke-width:1.0;stroke-dasharray:7.0,7.0;"/><polygon fill="#181818" points="870.16,947.7937,869.1275,937.9991,867.6615,943.4627,862.1979,941.9967,870.16,947.7937" style="stroke:#181818;stroke-width:1.0;"/><text fill="#000000" font-family="sans-serif" font-size="13" lengthAdjust="spacing" textLength="77.3271" x="738" y="698.042">get constants</text></g><!--link currency to Constants--><g id="link_currency_Constants"><path d="M1161.8702,799.4405 C1161.7363,799.4897 1161.6009,799.5395 1161.464,799.5899 C1160.9163,799.7915 1160.3443,800.0026 1159.7488,800.2231 C1158.5577,800.6643 1157.2721,801.1433 1155.897,801.6593 C1153.1467,802.6913 1150.0383,803.8715 1146.6113,805.1935 C1132.9031,810.4815 1114.0975,818.038 1092.7275,827.4549 C1049.9875,846.2887 996.99,872.5637 954,903.0137 C935.68,915.9837 921.7302,929.3946 908.5502,943.6046 " fill="none" id="currency-to-Constants" style="stroke:#181818;stroke-width:1.0;stroke-dasharray:7.0,7.0;"/><polygon fill="#181818" points="904.47,948.0037,913.523,944.1252,907.8702,944.3378,907.6576,938.6849,904.47,948.0037" style="stroke:#181818;stroke-width:1.0;"/><text fill="#000000" font-family="sans-serif" font-size="13" lengthAdjust="spacing" textLength="77.3271" x="993" y="891.042">get constants</text></g><!--link event to Constants--><g id="link_event_Constants"><path d="M176.5915,302.0198 C176.2781,302.156 175.9569,302.2961 175.628,302.4401 C170.3666,304.7441 163.1466,308.0445 154.635,312.2954 C137.6119,320.7971 115.4225,333.1005 93.4025,348.8374 C49.3625,380.3112 6,425.5187 6,481.5137 C6,481.5137 6,481.5137 6,796.5137 C6,966.1237 638.1502,973.7799 826.3502,972.3299 " fill="none" id="event-to-Constants" style="stroke:#181818;stroke-width:1.0;stroke-dasharray:7.0,7.0;"/><polygon fill="#181818" points="832.35,972.2837,823.3194,968.3531,827.3501,972.3222,823.3811,976.3529,832.35,972.2837" style="stroke:#181818;stroke-width:1.0;"/><text fill="#000000" font-family="sans-serif" font-size="13" lengthAdjust="spacing" textLength="77.3271" x="7" y="634.042">get constants</text></g><!--link SettingsScreen to GamePreferences--><g id="link_SettingsScreen_GamePreferences"><path d="M1717.84,127.6037 C1751.28,137.9937 1789.41,155.6037 1813,185.0137 C1844.61,224.4137 1835,246.0037 1835,296.5137 C1835,296.5137 1835,296.5137 1835,796.5137 C1835,841.3737 1846.56,865.2537 1813,895.0137 C1806.59,900.6937 1324.0844,945.9397 1131.1444,963.8297 " fill="none" id="SettingsScreen-to-GamePreferences" style="stroke:#181818;stroke-width:1.0;stroke-dasharray:7.0,7.0;"/><polygon fill="#181818" points="1125.17,964.3837,1134.5009,967.5356,1130.1486,963.922,1133.7623,959.5698,1125.17,964.3837" style="stroke:#181818;stroke-width:1.0;"/><text fill="#000000" font-family="sans-serif" font-size="13" lengthAdjust="spacing" textLength="91.7744" x="1836" y="570.042">get Preferences</text></g><!--link screen to Soundtrack--><g id="link_screen_Soundtrack"><path d="M1072.8324,161.3164 C1072.9261,161.5206 1073.0208,161.7243 1073.1166,161.9274 C1073.4999,162.7399 1073.9006,163.5433 1074.3196,164.3358 C1075.1576,165.9208 1076.0685,167.4622 1077.0587,168.9448 C1079.0391,171.9099 1081.3363,174.6399 1084,177.0137 C1135.22,222.6637 1167.86,196.0037 1236,204.0137 C1266.29,207.5737 1345.56,198.7037 1373,212.0137 C1400,225.1137 1418.2733,247.688 1431.2133,267.798 " fill="none" id="screen-to-Soundtrack" style="stroke:#181818;stroke-width:1.0;stroke-dasharray:7.0,7.0;"/><polygon fill="#181818" points="1434.46,272.8437,1432.9537,263.1107,1431.7544,268.6389,1426.2262,267.4396,1434.46,272.8437" style="stroke:#181818;stroke-width:1.0;"/><text fill="#000000" font-family="sans-serif" font-size="13" lengthAdjust="spacing" textLength="23.8481" x="1237" y="200.042">play</text></g><!--link Soundtrack to GamePreferences--><g id="link_Soundtrack_GamePreferences"><path d="M1424.59,322.2937 C1405.97,341.6937 1379.7,370.1937 1359,397.0137 C1257.4,528.6537 1231.16,562.7037 1154,710.0137 C1109.91,794.2037 1073.6998,895.2825 1057.8098,942.0625 " fill="none" id="Soundtrack-to-GamePreferences" style="stroke:#181818;stroke-width:1.0;stroke-dasharray:7.0,7.0;"/><polygon fill="#181818" points="1055.88,947.7437,1062.5621,940.5084,1057.4881,943.0093,1054.9872,937.9354,1055.88,947.7437" style="stroke:#181818;stroke-width:1.0;"/><text fill="#000000" font-family="sans-serif" font-size="13" lengthAdjust="spacing" textLength="63.5908" x="1213" y="634.042">get volume</text></g><!--link GameOverScreen to Soundtrack--><g id="link_GameOverScreen_Soundtrack"><path d="M1296.66,137.2037 C1277.97,156.8337 1259.1,184.5637 1277,204.0137 C1291.5,219.7637 1353.86,202.4337 1373,212.0137 C1399.84,225.4437 1418.1218,247.9719 1431.1118,267.9719 " fill="none" id="GameOverScreen-to-Soundtrack" style="stroke:#181818;stroke-width:1.0;stroke-dasharray:7.0,7.0;"/><polygon fill="#181818" points="1434.38,273.0037,1432.8323,263.2772,1431.6565,268.8105,1426.1232,267.6347,1434.38,273.0037" style="stroke:#181818;stroke-width:1.0;"/><text fill="#000000" font-family="sans-serif" font-size="13" lengthAdjust="spacing" textLength="35.4199" x="1278" y="200.042">pause</text></g><!--link Soundtrack to soundtrackfile--><g id="link_Soundtrack_soundtrackfile"><path d="M1427.97,322.0937 C1414.17,336.5037 1394.48,353.7137 1373,362.0137 C1349.36,371.1537 1165.29,354.8237 1145,370.0137 C1111.37,395.1937 1107.9198,446.0537 1107.8498,467.2937 " fill="none" id="Soundtrack-to-soundtrackfile" style="stroke:#181818;stroke-width:1.0;"/><polygon fill="#181818" points="1107.83,473.2937,1111.8596,464.3069,1107.8465,468.2937,1103.8597,464.2805,1107.83,473.2937" style="stroke:#181818;stroke-width:1.0;"/><text fill="#000000" font-family="sans-serif" font-size="13" lengthAdjust="spacing" textLength="39.73" x="1146" y="385.042">stream</text></g><!--link MapScreen to GameInputProcessor--><g id="link_MapScreen_GameInputProcessor"><path d="M1514.36,137.2637 C1528.17,150.3137 1546.52,166.0237 1565,177.0137 C1573.58,182.1237 1579.04,177.8537 1586,185.0137 C1609.45,209.1237 1617.9688,242.1702 1621.7088,267.0702 " fill="none" id="MapScreen-to-GameInputProcessor" style="stroke:#181818;stroke-width:1.0;stroke-dasharray:7.0,7.0;"/><polygon fill="#181818" points="1622.6,273.0037,1625.2188,263.5094,1621.8573,268.0591,1617.3076,264.6976,1622.6,273.0037" style="stroke:#181818;stroke-width:1.0;"/><text fill="#000000" font-family="sans-serif" font-size="13" lengthAdjust="spacing" textLength="25.2827" x="1600" y="200.042">start</text></g><!--link MapScreen to GameStateManager--><g id="link_MapScreen_GameStateManager"><path d="M1466.93,137.3837 C1441.79,161.7037 1403.49,196.8137 1385,204.0137 C1345.21,219.5037 1232.86,196.7037 1193,212.0137 C1159.94,224.7137 1133.8303,248.3147 1115.0103,268.6047 " fill="none" id="MapScreen-to-GameStateManager" style="stroke:#181818;stroke-width:1.0;stroke-dasharray:7.0,7.0;"/><polygon fill="#181818" points="1110.93,273.0037,1119.9831,269.1254,1114.3302,269.3378,1114.1178,263.685,1110.93,273.0037" style="stroke:#181818;stroke-width:1.0;"/><text fill="#000000" font-family="sans-serif" font-size="13" lengthAdjust="spacing" textLength="25.2827" x="1413" y="200.042">start</text></g><!--link MapScreen to BuildingRenderer--><g id="link_MapScreen_BuildingRenderer"><path d="M1487.56,137.3237 C1483.16,158.4437 1473.37,188.3137 1452,204.0137 C1438.14,214.2037 1390.69,204.9437 1375,212.0137 C1344.94,225.5537 1322.022,248.2203 1305.202,268.1303 " fill="none" id="MapScreen-to-BuildingRenderer" style="stroke:#181818;stroke-width:1.0;stroke-dasharray:7.0,7.0;"/><polygon fill="#181818" points="1301.33,272.7137,1310.1936,268.42,1304.5567,268.8942,1304.0825,263.2573,1301.33,272.7137" style="stroke:#181818;stroke-width:1.0;"/><text fill="#000000" font-family="sans-serif" font-size="13" lengthAdjust="spacing" textLength="92.5044" x="1469" y="200.042">render buildings</text></g><!--link MapScreen to EventManager--><g id="link_MapScreen_EventManager"><path d="M1470.44,137.1337 C1456.78,151.1737 1437.61,167.9537 1417,177.0137 C1389.54,189.0737 1378.4,175.3737 1350,185.0137 C1334.34,190.3337 1333.9,199.4437 1318,204.0137 C1283.07,214.0637 1027.2,208.8337 991,212.0137 C812.53,227.6937 610.1368,263.2055 506.4768,282.6855 " fill="none" id="MapScreen-to-EventManager" style="stroke:#181818;stroke-width:1.0;stroke-dasharray:7.0,7.0;"/><polygon fill="#181818" points="500.58,283.7937,510.1639,286.0627,505.494,282.8702,508.6864,278.2003,500.58,283.7937" style="stroke:#181818;stroke-width:1.0;"/><text fill="#000000" font-family="sans-serif" font-size="13" lengthAdjust="spacing" textLength="25.2827" x="1351" y="200.042">start</text></g><!--link MapScreen to textureatlas--><g id="link_MapScreen_textureatlas"><path d="M1511.55,137.1537 C1525.2,151.2037 1544.37,167.9937 1565,177.0137 C1593.29,189.3837 1603.72,178.9937 1634,185.0137 C1677.05,193.5737 1694.32,185.1037 1729,212.0137 C1868.42,320.1937 1882.96,384.6537 1929,555.0137 C1973.11,718.2437 1863.7105,915.1289 1838.1205,958.0889 " fill="none" id="MapScreen-to-textureatlas" style="stroke:#181818;stroke-width:1.0;stroke-dasharray:7.0,7.0;"/><polygon fill="#181818" points="1835.05,963.2437,1843.0923,957.5585,1837.6088,958.948,1836.2193,953.4645,1835.05,963.2437" style="stroke:#181818;stroke-width:1.0;"/><text fill="#000000" font-family="sans-serif" font-size="13" lengthAdjust="spacing" textLength="67.9136" x="1934" y="570.042">get UI skins</text></g><!--link BuildingSpriteFactory to textureatlas--><g id="link_BuildingSpriteFactory_textureatlas"><path d="M1680.33,820.1137 C1719.62,859.8637 1792.9211,934.0074 1817.8611,959.2274 " fill="none" id="BuildingSpriteFactory-to-textureatlas" style="stroke:#181818;stroke-width:1.0;stroke-dasharray:7.0,7.0;"/><polygon fill="#181818" points="1822.08,963.4937,1818.5958,954.2817,1818.5643,959.9385,1812.9075,959.9069,1822.08,963.4937" style="stroke:#181818;stroke-width:1.0;"/><text fill="#000000" font-family="sans-serif" font-size="13" lengthAdjust="spacing" textLength="116.3525" x="1754" y="891.042">get building textures</text></g><!--link EventManager to TimerManager--><g id="link_EventManager_TimerManager"><path d="M500.64,314.6837 C553.44,329.9137 627.68,356.5037 683,397.0137 C705.62,413.5737 721.8118,434.2414 734.2718,452.9314 " fill="none" id="EventManager-to-TimerManager" style="stroke:#181818;stroke-width:1.0;stroke-dasharray:7.0,7.0;"/><polygon fill="#181818" points="737.6,457.9237,735.9359,448.2164,734.8265,453.7634,729.2795,452.654,737.6,457.9237" style="stroke:#181818;stroke-width:1.0;"/><text fill="#000000" font-family="sans-serif" font-size="13" lengthAdjust="spacing" textLength="67.1963" x="672" y="385.042">start events</text></g><!--link EventManager to AchievementManager--><g id="link_EventManager_AchievementManager"><path d="M408.45,322.2737 C392.85,335.3237 372.26,351.0437 352,362.0137 C310.97,384.2437 293.81,374.3737 253,397.0137 C222.75,413.7937 196.734,435.1324 176.274,453.6924 " fill="none" id="EventManager-to-AchievementManager" style="stroke:#181818;stroke-width:1.0;stroke-dasharray:7.0,7.0;"/><polygon fill="#181818" points="171.83,457.7237,181.1835,454.6394,175.5333,454.3643,175.8084,448.7141,171.83,457.7237" style="stroke:#181818;stroke-width:1.0;"/></g><!--link GameStateManager to TimerManager--><g id="link_GameStateManager_TimerManager"><path d="M1047.38,322.0637 C982.37,357.1537 866.0695,419.9329 801.0095,455.0629 " fill="none" id="GameStateManager-to-TimerManager" style="stroke:#181818;stroke-width:1.0;stroke-dasharray:7.0,7.0;"/><polygon fill="#181818" points="795.73,457.9137,805.5498,457.1572,800.1296,455.5381,801.7488,450.1179,795.73,457.9137" style="stroke:#181818;stroke-width:1.0;"/><text fill="#000000" font-family="sans-serif" font-size="13" lengthAdjust="spacing" textLength="93.9136" x="952" y="385.042">start game timer</text></g><!--link MapScreen to SatisfactionManager--><g id="link_MapScreen_SatisfactionManager"><path d="M1510.72,137.0237 C1524.33,151.4037 1543.75,168.6037 1565,177.0137 C1602.44,191.8237 1706.56,176.9037 1746,185.0137 C1836.5,203.6237 1930.4375,243.5964 1987.6575,270.4264 " fill="none" id="MapScreen-to-SatisfactionManager" style="stroke:#181818;stroke-width:1.0;stroke-dasharray:7.0,7.0;"/><polygon fill="#181818" points="1993.09,272.9737,1986.6395,265.5312,1988.563,270.851,1983.2432,272.7745,1993.09,272.9737" style="stroke:#181818;stroke-width:1.0;"/><text fill="#000000" font-family="sans-serif" font-size="13" lengthAdjust="spacing" textLength="25.2827" x="1813" y="200.042">start</text></g><!--link SatisfactionManager to SatisfactionGraph--><g id="link_SatisfactionManager_SatisfactionGraph"><path d="M2040.23,322.0637 C2039.08,357.1037 2037.1261,416.6069 2035.9761,451.7669 " fill="none" id="SatisfactionManager-to-SatisfactionGraph" style="stroke:#181818;stroke-width:1.0;stroke-dasharray:7.0,7.0;"/><polygon fill="#181818" points="2035.78,457.7637,2040.0721,448.8992,2035.9435,452.7663,2032.0763,448.6377,2035.78,457.7637" style="stroke:#181818;stroke-width:1.0;"/><text fill="#000000" font-family="sans-serif" font-size="13" lengthAdjust="spacing" textLength="99.728" x="2039" y="385.042">build score graph</text></g><!--link Leaderboard to SatisfactionManager--><g id="link_Leaderboard_SatisfactionManager"><path d="M2041,137.0637 C2041,172.1037 2041,231.6037 2041,266.7637 " fill="none" id="Leaderboard-to-SatisfactionManager" style="stroke:#181818;stroke-width:1.0;stroke-dasharray:7.0,7.0;"/><polygon fill="#181818" points="2041,272.7637,2045,263.7637,2041,267.7637,2037,263.7637,2041,272.7637" style="stroke:#181818;stroke-width:1.0;"/><text fill="#000000" font-family="sans-serif" font-size="13" lengthAdjust="spacing" textLength="91.0508" x="2042" y="200.042">show end score</text></g><!--link GameInputProcessor to BuildingManager--><g id="link_GameInputProcessor_BuildingManager"><path d="M1622.68,322.0637 C1619.24,357.1037 1613.3759,416.6323 1609.9259,451.7923 " fill="none" id="GameInputProcessor-to-BuildingManager" style="stroke:#181818;stroke-width:1.0;stroke-dasharray:7.0,7.0;"/><polygon fill="#181818" points="1609.34,457.7637,1614.1998,449.1973,1609.8283,452.7876,1606.238,448.4161,1609.34,457.7637" style="stroke:#181818;stroke-width:1.0;"/><text fill="#000000" font-family="sans-serif" font-size="13" lengthAdjust="spacing" textLength="90.3462" x="1618" y="385.042">choose building</text></g><!--link BuildingManager to BuildingPlacementManager--><g id="link_BuildingManager_BuildingPlacementManager"><path d="M1592.14,507.2937 C1575.46,533.9737 1551.7503,571.9159 1535.0603,598.6159 " fill="none" id="BuildingManager-to-BuildingPlacementManager" style="stroke:#181818;stroke-width:1.0;stroke-dasharray:7.0,7.0;"/><polygon fill="#181818" points="1531.88,603.7037,1540.0424,598.1922,1534.5303,599.4639,1533.2587,593.9518,1531.88,603.7037" style="stroke:#181818;stroke-width:1.0;"/><text fill="#000000" font-family="sans-serif" font-size="13" lengthAdjust="spacing" textLength="79.5044" x="1563" y="570.042">place building</text></g><!--link BuildingPlacementManager to BuildingFactory--><g id="link_BuildingPlacementManager_BuildingFactory"><path d="M1509.84,653.1537 C1500.33,684.5237 1485.3906,733.8317 1475.8906,765.1717 " fill="none" id="BuildingPlacementManager-to-BuildingFactory" style="stroke:#181818;stroke-width:1.0;stroke-dasharray:7.0,7.0;"/><polygon fill="#181818" points="1474.15,770.9137,1480.5888,763.4611,1475.6005,766.1287,1472.9328,761.1403,1474.15,770.9137" style="stroke:#181818;stroke-width:1.0;"/><text fill="#000000" font-family="sans-serif" font-size="13" lengthAdjust="spacing" textLength="93.958" x="1500" y="698.042">get new building</text></g><!--link BuildingPlacementManager to BuildingSpriteFactory--><g id="link_BuildingPlacementManager_BuildingSpriteFactory"><path d="M1564.62,653.1237 C1577.87,661.2837 1591.49,671.3537 1602,683.0137 C1625.41,708.9837 1639.2443,741.0683 1647.6943,765.2983 " fill="none" id="BuildingPlacementManager-to-BuildingSpriteFactory" style="stroke:#181818;stroke-width:1.0;stroke-dasharray:7.0,7.0;"/><polygon fill="#181818" points="1649.67,770.9637,1650.4833,761.1485,1648.0235,766.2425,1642.9295,763.7828,1649.67,770.9637" style="stroke:#181818;stroke-width:1.0;"/><text fill="#000000" font-family="sans-serif" font-size="13" lengthAdjust="spacing" textLength="80.9326" x="1617" y="698.042">get new sprite</text></g><!--link BuildingPlacementManager to Currency--><g id="link_BuildingPlacementManager_Currency"><path d="M1470.36,653.1237 C1453.34,662.0837 1434.08,672.6437 1417,683.0137 C1370.4,711.3037 1323.6789,743.9574 1291.2689,767.2974 " fill="none" id="BuildingPlacementManager-to-Currency" style="stroke:#181818;stroke-width:1.0;stroke-dasharray:7.0,7.0;"/><polygon fill="#181818" points="1286.4,770.8037,1296.0408,768.7901,1290.4574,767.8818,1291.3658,762.2983,1286.4,770.8037" style="stroke:#181818;stroke-width:1.0;"/><text fill="#000000" font-family="sans-serif" font-size="13" lengthAdjust="spacing" textLength="69.3735" x="1418" y="698.042">check funds</text></g><!--SRC=[dLKzRzim4DtvAmWldMpl6GAqHHi4Q52ZQgV00qEV9S8IAP0dfqQG_zupzKLAj8rqC60-ldkyUpoUFXM8jRjRh-jIQ6ogSYLDjQPVRJHeNEwKoAse66Era0UH0ry8MIWuGaNRRi7V6EVFdqTeErb_5nADFKtX9w59p6xP-oZyqgXoftJUYWvmfx0uWoJofMC5mW6QrLOX17llBDWTJWsmJIdanPHaOoreUUhg_Dej8mvLfB4ZV3k6GWGyY0ey68MGo0vi5zCdyik3amISGENsL8uoUk9B2OBuBqRONU_DZn4QQiy2XGShwc8xHLE5Esa1kXDz4J-FO3CF-lWdKGUh312f0XT0lnMMqAz3uPQwQFqqsY7rdHkysbZOmzbZS54OgeeCUskLwM-Giuzxr7M36siepXc2FPYXG1YOpvbfz0ujIMwPqWYMwWVk1dIlIWWs4FvYOq5WAHnZhI5yjRgV9yhlU0x80oYYZrLsHDa3p9TrazLtuKsYRyMRhEbr_LTHWPd4fEbnYWo-gdaqPLC1c_PLKbWq3cBbvV9-Scd4umxfgYeMDEQOmgGvY4vEM4oJewQvJ9szMgAspvhtSypDewBvS54yxBpEiZ-Ft1sK9idqfBiKr-VIxv50d8DFAtfIVLhSTrCw83N94-vT4S-9p7txprrA3QVHhEJkBAuTTHJb7U1E6WiyFuCi6fFNJopCAwTBRSEJaoRkXY1M5iOu62w0pJbHvEmprBugcLAOSoEfeIVQ5j3m-d6DINUDIivltDGPlfJU2P07lgSNItFq7m00]--></g></svg>