<svg xmlns="http://www.w3.org/2000/svg" xmlns:xlink="http://www.w3.org/1999/xlink" contentStyleType="text/css" height="609px" preserveAspectRatio="none" style="width:1016px;height:609px;background:#FFFFFF;" version="1.1" viewBox="0 0 1016 609" width="1016px" zoomAndPan="magnify"><defs/><g><ellipse cx="201.82" cy="16" fill="#222222" rx="10" ry="10" style="stroke:#222222;stroke-width:1.0;"/><rect fill="#F1F1F1" height="40" rx="12.5" ry="12.5" style="stroke:#181818;stroke-width:0.5;" width="75.3652" x="164.32" y="87"/><text fill="#000000" font-family="sans-serif" font-size="14" lengthAdjust="spacing" textLength="65.3652" x="169.32" y="112.7969">MainMenu</text><rect fill="#F1F1F1" height="40" rx="12.5" ry="12.5" style="stroke:#181818;stroke-width:0.5;" width="50" x="336.82" y="206"/><text fill="#000000" font-family="sans-serif" font-size="14" lengthAdjust="spacing" textLength="27.2344" x="348.2028" y="231.7969">Map</text><rect fill="#F1F1F1" height="40" rx="12.5" ry="12.5" style="stroke:#181818;stroke-width:0.5;" width="95.6064" x="74.82" y="325"/><text fill="#000000" font-family="sans-serif" font-size="14" lengthAdjust="spacing" textLength="85.6064" x="79.82" y="350.7969">SettingsMenu</text><ellipse cx="899.82" cy="583" fill="none" rx="11" ry="11" style="stroke:#222222;stroke-width:1.0;"/><ellipse cx="899.82" cy="583" fill="#222222" rx="6" ry="6" style="stroke:#222222;stroke-width:1.0;"/><rect fill="#F1F1F1" height="40" rx="12.5" ry="12.5" style="stroke:#181818;stroke-width:0.5;" width="84.7168" x="276.32" y="444"/><text fill="#000000" font-family="sans-serif" font-size="14" lengthAdjust="spacing" textLength="74.7168" x="281.32" y="469.7969">PausedMap</text><rect fill="#F1F1F1" height="40" rx="12.5" ry="12.5" style="stroke:#181818;stroke-width:0.5;" width="117.4063" x="261.32" y="563"/><text fill="#000000" font-family="sans-serif" font-size="14" lengthAdjust="spacing" textLength="107.4063" x="266.32" y="588.7969">BuildingSelection</text><rect fill="#F1F1F1" height="40" rx="12.5" ry="12.5" style="stroke:#181818;stroke-width:0.5;" width="113.4824" x="743.32" y="325"/><text fill="#000000" font-family="sans-serif" font-size="14" lengthAdjust="spacing" textLength="103.4824" x="748.32" y="350.7969">GameOverMenu</text><rect fill="#F1F1F1" height="40" rx="12.5" ry="12.5" style="stroke:#181818;stroke-width:0.5;" width="89.3994" x="769.32" y="444"/><text fill="#000000" font-family="sans-serif" font-size="14" lengthAdjust="spacing" textLength="79.3994" x="774.32" y="469.7969">Leaderboard</text><!--link *start* to MainMenu--><g id="link_*start*_MainMenu"><path d="M201.82,26.19 C201.82,40.4 201.82,62.02 201.82,80.74 " fill="none" id="*start*-to-MainMenu" style="stroke:#181818;stroke-width:1.0;"/><polygon fill="#181818" points="201.82,86.74,205.82,77.74,201.82,81.74,197.82,77.74,201.82,86.74" style="stroke:#181818;stroke-width:1.0;"/></g><!--link MainMenu to Map--><g id="link_MainMenu_Map"><path d="M227.89,127.06 C257.9,149.01 302.0471,181.288 331.7171,202.988 " fill="none" id="MainMenu-to-Map" style="stroke:#181818;stroke-width:1.0;"/><polygon fill="#181818" points="336.56,206.53,331.6569,197.9883,332.5242,203.5783,326.9342,204.4456,336.56,206.53" style="stroke:#181818;stroke-width:1.0;"/><text fill="#000000" font-family="sans-serif" font-size="13" lengthAdjust="spacing" textLength="65.0444" x="292.82" y="172.0283">Play button</text></g><!--link MainMenu to SettingsMenu--><g id="link_MainMenu_SettingsMenu"><path d="M188.73,127.05 C168.96,157.09 132.36,218.03 118.82,276 C115.03,292.24 115.6834,305.2951 117.8834,319.0651 " fill="none" id="MainMenu-to-SettingsMenu" style="stroke:#181818;stroke-width:1.0;"/><polygon fill="#181818" points="118.83,324.99,121.36,315.4716,118.0412,320.0526,113.4602,316.7338,118.83,324.99" style="stroke:#181818;stroke-width:1.0;"/><text fill="#000000" font-family="sans-serif" font-size="13" lengthAdjust="spacing" textLength="86.728" x="145.82" y="231.5283">Settings button</text></g><!--link SettingsMenu to MainMenu--><g id="link_SettingsMenu_MainMenu"><path d="M99.96,324.69 C71.15,297.91 27.99,248.03 50.82,206 C74.69,162.06 122.125,136.9526 158.525,122.6626 " fill="none" id="SettingsMenu-to-MainMenu" style="stroke:#181818;stroke-width:1.0;"/><polygon fill="#181818" points="164.11,120.47,154.2707,120.0355,159.4558,122.2972,157.1942,127.4822,164.11,120.47" style="stroke:#181818;stroke-width:1.0;"/><text fill="#000000" font-family="sans-serif" font-size="13" lengthAdjust="spacing" textLength="68.6563" x="51.82" y="231.5283">Back button</text></g><!--link MainMenu to *end*--><g id="link_MainMenu_*end*"><path d="M239.38,109.91 C390.22,118.06 943.82,152.91 943.82,225 C943.82,225 943.82,225 943.82,465 C943.82,507.97 920.7056,549.3881 908.7856,568.2481 " fill="none" id="MainMenu-to-*end*" style="stroke:#181818;stroke-width:1.0;"/><polygon fill="#181818" points="905.58,573.32,913.7696,567.8492,908.2513,569.0934,907.0071,563.5751,905.58,573.32" style="stroke:#181818;stroke-width:1.0;"/><text fill="#000000" font-family="sans-serif" font-size="13" lengthAdjust="spacing" textLength="63.5972" x="944.82" y="350.5283">Quit button</text></g><!--link Map to PausedMap--><g id="link_Map_PausedMap"><path d="M361.38,246.18 C360.18,280.44 355.81,354.15 339.82,414 C337.1,424.19 335.1602,429.5849 331.0502,438.4649 " fill="none" id="Map-to-PausedMap" style="stroke:#181818;stroke-width:1.0;"/><polygon fill="#181818" points="328.53,443.91,335.9403,437.4225,330.6302,439.3724,328.6802,434.0623,328.53,443.91" style="stroke:#181818;stroke-width:1.0;"/><text fill="#000000" font-family="sans-serif" font-size="13" lengthAdjust="spacing" textLength="76.6162" x="356.82" y="350.5283">Pause button</text></g><!--link PausedMap to Map--><g id="link_PausedMap_Map"><path d="M358.15,443.99 C387.2,427.55 424.58,400.79 441.82,365 C462.98,321.09 421.7915,276.2278 391.1415,250.0378 " fill="none" id="PausedMap-to-Map" style="stroke:#181818;stroke-width:1.0;"/><polygon fill="#181818" points="386.58,246.14,390.8238,255.0277,390.3813,249.3881,396.0208,248.9456,386.58,246.14" style="stroke:#181818;stroke-width:1.0;"/><text fill="#000000" font-family="sans-serif" font-size="13" lengthAdjust="spacing" textLength="88.1626" x="447.82" y="350.5283">Resume button</text></g><!--link Map to BuildingSelection--><g id="link_Map_BuildingSelection"><path d="M386.99,231.92 C428.51,241.54 510.2,267.18 544.82,325 C553.96,340.25 549.19,347.77 544.82,365 C523.96,447.31 518.08,477.49 453.82,533 C432.55,551.38 409.5639,561.4234 384.1439,568.7734 " fill="none" id="Map-to-BuildingSelection" style="stroke:#181818;stroke-width:1.0;"/><polygon fill="#181818" points="378.38,570.44,388.1369,571.7827,383.1832,569.0512,385.9148,564.0975,378.38,570.44" style="stroke:#181818;stroke-width:1.0;"/><text fill="#000000" font-family="sans-serif" font-size="13" lengthAdjust="spacing" textLength="101.188" x="537.82" y="410.0283">choose a building</text></g><!--link BuildingSelection to Map--><g id="link_BuildingSelection_Map"><path d="M261,572.26 C169.58,553.64 6,504.67 27.82,395 C40.81,329.7 58.41,303.99 118.82,276 C157.58,258.04 276.3927,239.335 330.4827,231.455 " fill="none" id="BuildingSelection-to-Map" style="stroke:#181818;stroke-width:1.0;"/><polygon fill="#181818" points="336.42,230.59,326.9374,227.9292,331.4722,231.3108,328.0907,235.8457,336.42,230.59" style="stroke:#181818;stroke-width:1.0;"/><text fill="#000000" font-family="sans-serif" font-size="13" lengthAdjust="spacing" textLength="90.3462" x="28.82" y="410.0283">place a building</text></g><!--link Map to SettingsMenu--><g id="link_Map_SettingsMenu"><path d="M336.44,229.16 C283.86,234.14 165.64,248.23 137.82,276 C125.07,288.73 122.1859,303.6709 121.9159,318.9609 " fill="none" id="Map-to-SettingsMenu" style="stroke:#181818;stroke-width:1.0;"/><polygon fill="#181818" points="121.81,324.96,125.9683,316.032,121.8983,319.9608,117.9695,315.8908,121.81,324.96" style="stroke:#181818;stroke-width:1.0;"/><text fill="#000000" font-family="sans-serif" font-size="13" lengthAdjust="spacing" textLength="86.728" x="138.82" y="291.0283">Settings button</text></g><!--link SettingsMenu to Map--><g id="link_SettingsMenu_Map"><path d="M165.78,324.99 C185.42,316.13 208.93,305.29 229.82,295 C246.05,287.01 249.77,284.33 265.82,276 C289.74,263.59 311.7684,252.343 331.1584,242.513 " fill="none" id="SettingsMenu-to-Map" style="stroke:#181818;stroke-width:1.0;"/><polygon fill="#181818" points="336.51,239.8,326.6739,240.3019,332.0504,242.0609,330.2913,247.4373,336.51,239.8" style="stroke:#181818;stroke-width:1.0;"/><text fill="#000000" font-family="sans-serif" font-size="13" lengthAdjust="spacing" textLength="68.6563" x="266.82" y="291.0283">Back button</text></g><!--link Map to GameOverMenu--><g id="link_Map_GameOverMenu"><path d="M386.96,227.86 C476.61,231.2 776.75,244.66 804.82,276 C816.51,289.05 814.9029,304.0464 809.8729,319.1764 " fill="none" id="Map-to-GameOverMenu" style="stroke:#181818;stroke-width:1.0;"/><polygon fill="#181818" points="807.98,324.87,814.615,317.5915,809.5574,320.1253,807.0235,315.0677,807.98,324.87" style="stroke:#181818;stroke-width:1.0;"/><text fill="#000000" font-family="sans-serif" font-size="13" lengthAdjust="spacing" textLength="75.1372" x="812.82" y="291.0283">timer expired</text></g><!--link GameOverMenu to Map--><g id="link_GameOverMenu_Map"><path d="M759.06,324.94 C740.78,316.16 719.04,305.39 699.82,295 C685.27,287.13 683.38,281.63 667.82,276 C568.16,239.93 446.6735,230.6402 393.2035,228.1402 " fill="none" id="GameOverMenu-to-Map" style="stroke:#181818;stroke-width:1.0;"/><polygon fill="#181818" points="387.21,227.86,396.0134,232.276,392.2045,228.0935,396.387,224.2847,387.21,227.86" style="stroke:#181818;stroke-width:1.0;"/><text fill="#000000" font-family="sans-serif" font-size="13" lengthAdjust="spacing" textLength="95.3862" x="700.82" y="291.0283">Try Again button</text></g><!--link SettingsMenu to SettingsMenu--><g id="link_SettingsMenu_SettingsMenu"><path d="M171,334.18 C189.98,333.63 205.82,337.24 205.82,345 C205.82,352.76 195.9775,356.5438 176.9975,355.9938 " fill="none" id="SettingsMenu-to-SettingsMenu" style="stroke:#181818;stroke-width:1.0;"/><polygon fill="#181818" points="171,355.82,179.8804,360.079,175.9979,355.9648,180.1121,352.0824,171,355.82" style="stroke:#181818;stroke-width:1.0;"/><text fill="#000000" font-family="sans-serif" font-size="13" lengthAdjust="spacing" textLength="91.0635" x="211.82" y="350.5283">change settings</text></g><!--link SettingsMenu to PausedMap--><g id="link_SettingsMenu_PausedMap"><path d="M170.9,364.02 C190.94,372.34 214.1,383.04 233.82,395 C257.25,409.21 276.9131,425.1678 293.4531,439.7778 " fill="none" id="SettingsMenu-to-PausedMap" style="stroke:#181818;stroke-width:1.0;"/><polygon fill="#181818" points="297.95,443.75,293.8528,434.7938,294.2026,440.4399,288.5566,440.7897,297.95,443.75" style="stroke:#181818;stroke-width:1.0;"/><text fill="#000000" font-family="sans-serif" font-size="13" lengthAdjust="spacing" textLength="68.6563" x="262.82" y="410.0283">Back button</text></g><!--link PausedMap to SettingsMenu--><g id="link_PausedMap_SettingsMenu"><path d="M275.94,463.36 C234.72,461.29 173.55,451.46 137.82,414 C125.47,401.05 122.5482,386.3479 122.1482,371.1779 " fill="none" id="PausedMap-to-SettingsMenu" style="stroke:#181818;stroke-width:1.0;"/><polygon fill="#181818" points="121.99,365.18,118.2286,374.2823,122.1218,370.1783,126.2258,374.0714,121.99,365.18" style="stroke:#181818;stroke-width:1.0;"/><text fill="#000000" font-family="sans-serif" font-size="13" lengthAdjust="spacing" textLength="86.728" x="138.82" y="410.0283">Settings button</text></g><!--link PausedMap to BuildingSelection--><g id="link_PausedMap_BuildingSelection"><path d="M276.09,483.01 C254.03,495.17 233.82,512.67 244.82,533 C251.63,545.58 258.1411,552.2875 270.2011,559.7675 " fill="none" id="PausedMap-to-BuildingSelection" style="stroke:#181818;stroke-width:1.0;"/><polygon fill="#181818" points="275.3,562.93,269.76,554.787,271.0509,560.2946,265.5433,561.5855,275.3,562.93" style="stroke:#181818;stroke-width:1.0;"/><text fill="#000000" font-family="sans-serif" font-size="13" lengthAdjust="spacing" textLength="101.188" x="245.82" y="529.0283">choose a building</text></g><!--link BuildingSelection to PausedMap--><g id="link_BuildingSelection_PausedMap"><path d="M337.3,562.95 C347.37,549.64 357.08,531.22 351.82,514 C348.53,503.21 345.5682,497.4513 339.1682,488.9113 " fill="none" id="BuildingSelection-to-PausedMap" style="stroke:#181818;stroke-width:1.0;"/><polygon fill="#181818" points="335.57,484.11,337.7664,493.7108,338.5685,488.1111,344.1682,488.9132,335.57,484.11" style="stroke:#181818;stroke-width:1.0;"/><text fill="#000000" font-family="sans-serif" font-size="13" lengthAdjust="spacing" textLength="90.3462" x="354.82" y="529.0283">place a building</text></g><!--link GameOverMenu to Leaderboard--><g id="link_GameOverMenu_Leaderboard"><path d="M796.84,365.18 C795.23,378.88 794.07,397.69 796.82,414 C798.53,424.12 799.9357,429.3501 803.3557,438.2401 " fill="none" id="GameOverMenu-to-Leaderboard" style="stroke:#181818;stroke-width:1.0;"/><polygon fill="#181818" points="805.51,443.84,806.0118,434.0039,803.7148,439.1734,798.5453,436.8763,805.51,443.84" style="stroke:#181818;stroke-width:1.0;"/><text fill="#000000" font-family="sans-serif" font-size="13" lengthAdjust="spacing" textLength="119.228" x="797.82" y="410.0283">Input name for score</text></g><!--link Leaderboard to *end*--><g id="link_Leaderboard_*end*"><path d="M823.99,484.12 C831.76,498.12 843.09,517.33 854.82,533 C866.73,548.9 878.6732,561.3518 888.0332,570.5618 " fill="none" id="Leaderboard-to-*end*" style="stroke:#181818;stroke-width:1.0;"/><polygon fill="#181818" points="892.31,574.77,888.7003,565.6065,888.746,571.2631,883.0894,571.3088,892.31,574.77" style="stroke:#181818;stroke-width:1.0;"/><text fill="#000000" font-family="sans-serif" font-size="13" lengthAdjust="spacing" textLength="61.4263" x="855.82" y="529.0283">Exit button</text></g><!--SRC=[ZPBFJiCm3CRlVGgVaVO2EI0n2I4a9ZR63N7m4jD6j4cKFsXzUz8jJHTQgTmI- -VFpXStKX1GPtmFWXotqdYfLVLnzmcRpJtiKAeTgL2DXnGrm63VOW-du7taY_IHl9UgTfS0ozT5TcZ4u12adzBcajbZS2HIg-7y5zW6sOeeVAIM-31r17cZTIGnijTafbU7kc9FsD7h3zc4UTcH1JeRQKbKXSQ2A6zGrGGkHUTyVZg3BVBliVa2PzQGR4_9JQvDEc_aGaVBnFzCB6jMh9nBfb4Oc1Pv8RpCtdxzhAJueQpyRdjugAEzunGpx8LGa3rfj2BAFYiJFAW8mPUsuBYsLDqYQJaPF9xpRlu2]--></g></svg>