<svg xmlns="http://www.w3.org/2000/svg" xmlns:xlink="http://www.w3.org/1999/xlink" contentStyleType="text/css" height="609px" preserveAspectRatio="none" style="width:989px;height:609px;background:#FFFFFF;" version="1.1" viewBox="0 0 989 609" width="989px" zoomAndPan="magnify"><defs/><g><ellipse cx="306.55" cy="16" fill="#222222" rx="10" ry="10" style="stroke:#222222;stroke-width:1.0;"/><rect fill="#F1F1F1" height="40" rx="12.5" ry="12.5" style="stroke:#181818;stroke-width:0.5;" width="75.3652" x="269.05" y="87"/><text fill="#000000" font-family="sans-serif" font-size="14" lengthAdjust="spacing" textLength="65.3652" x="274.05" y="112.7969">MainMenu</text><rect fill="#F1F1F1" height="40" rx="12.5" ry="12.5" style="stroke:#181818;stroke-width:0.5;" width="50" x="441.55" y="206"/><text fill="#000000" font-family="sans-serif" font-size="14" lengthAdjust="spacing" textLength="27.2344" x="452.9328" y="231.7969">Map</text><rect fill="#F1F1F1" height="40" rx="12.5" ry="12.5" style="stroke:#181818;stroke-width:0.5;" width="95.6064" x="179.55" y="325"/><text fill="#000000" font-family="sans-serif" font-size="14" lengthAdjust="spacing" textLength="85.6064" x="184.55" y="350.7969">SettingsMenu</text><ellipse cx="904.55" cy="464" fill="none" rx="11" ry="11" style="stroke:#222222;stroke-width:1.0;"/><ellipse cx="904.55" cy="464" fill="#222222" rx="6" ry="6" style="stroke:#222222;stroke-width:1.0;"/><rect fill="#F1F1F1" height="40" rx="12.5" ry="12.5" style="stroke:#181818;stroke-width:0.5;" width="84.7168" x="261.05" y="444"/><text fill="#000000" font-family="sans-serif" font-size="14" lengthAdjust="spacing" textLength="74.7168" x="266.05" y="469.7969">PausedMap</text><rect fill="#F1F1F1" height="40" rx="12.5" ry="12.5" style="stroke:#181818;stroke-width:0.5;" width="117.4063" x="430.05" y="563"/><text fill="#000000" font-family="sans-serif" font-size="14" lengthAdjust="spacing" textLength="107.4063" x="435.05" y="588.7969">BuildingSelection</text><rect fill="#F1F1F1" height="40" rx="12.5" ry="12.5" style="stroke:#181818;stroke-width:0.5;" width="113.4824" x="781.05" y="325"/><text fill="#000000" font-family="sans-serif" font-size="14" lengthAdjust="spacing" textLength="103.4824" x="786.05" y="350.7969">GameOverMenu</text><!--link *start* to MainMenu--><g id="link_*start*_MainMenu"><path d="M306.55,26.19 C306.55,40.4 306.55,62.02 306.55,80.74 " fill="none" id="*start*-to-MainMenu" style="stroke:#181818;stroke-width:1.0;"/><polygon fill="#181818" points="306.55,86.74,310.55,77.74,306.55,81.74,302.55,77.74,306.55,86.74" style="stroke:#181818;stroke-width:1.0;"/></g><!--link MainMenu to Map--><g id="link_MainMenu_Map"><path d="M332.62,127.06 C362.63,149.01 406.7771,181.288 436.4471,202.988 " fill="none" id="MainMenu-to-Map" style="stroke:#181818;stroke-width:1.0;"/><polygon fill="#181818" points="441.29,206.53,436.3869,197.9883,437.2542,203.5783,431.6642,204.4456,441.29,206.53" style="stroke:#181818;stroke-width:1.0;"/><text fill="#000000" font-family="sans-serif" font-size="13" lengthAdjust="spacing" textLength="65.0444" x="396.55" y="172.0283">Play button</text></g><!--link MainMenu to SettingsMenu--><g id="link_MainMenu_SettingsMenu"><path d="M268.83,107.15 C203.2,108.03 69.82,120.79 15.55,206 C6,221 6,231 15.55,246 C34.18,275.24 116.8307,307.2048 173.4407,326.4948 " fill="none" id="MainMenu-to-SettingsMenu" style="stroke:#181818;stroke-width:1.0;"/><polygon fill="#181818" points="179.12,328.43,171.8912,321.7409,174.3872,326.8173,169.3108,329.3134,179.12,328.43" style="stroke:#181818;stroke-width:1.0;"/><text fill="#000000" font-family="sans-serif" font-size="13" lengthAdjust="spacing" textLength="86.728" x="16.55" y="231.5283">Settings button</text></g><!--link SettingsMenu to MainMenu--><g id="link_SettingsMenu_MainMenu"><path d="M223.56,324.99 C221.36,311.22 219.76,292.24 223.55,276 C237.09,218.03 270.3915,162.102 290.1615,132.062 " fill="none" id="SettingsMenu-to-MainMenu" style="stroke:#181818;stroke-width:1.0;"/><polygon fill="#181818" points="293.46,127.05,285.1709,132.369,290.7113,131.2266,291.8536,136.767,293.46,127.05" style="stroke:#181818;stroke-width:1.0;"/><text fill="#000000" font-family="sans-serif" font-size="13" lengthAdjust="spacing" textLength="68.6563" x="250.55" y="231.5283">Back button</text></g><!--link MainMenu to *end*--><g id="link_MainMenu_*end*"><path d="M344.41,113.75 C462.4,132.41 820.37,194.77 900.55,276 C944.78,320.81 948.71,353.15 932.55,414 C928.38,429.72 921.4217,440.8463 914.5317,450.1063 " fill="none" id="MainMenu-to-*end*" style="stroke:#181818;stroke-width:1.0;"/><polygon fill="#181818" points="910.95,454.92,919.5316,450.0873,913.9347,450.9086,913.1134,445.3117,910.95,454.92" style="stroke:#181818;stroke-width:1.0;"/><text fill="#000000" font-family="sans-serif" font-size="13" lengthAdjust="spacing" textLength="63.5972" x="917.55" y="291.0283">Quit button</text></g><!--link Map to PausedMap--><g id="link_Map_PausedMap"><path d="M462.36,246.19 C453.28,283.47 428.38,366.23 377.55,414 C365.65,425.19 356.0041,432.3238 342.8241,440.5838 " fill="none" id="Map-to-PausedMap" style="stroke:#181818;stroke-width:1.0;"/><polygon fill="#181818" points="337.74,443.77,347.4903,442.38,341.9767,441.1148,343.242,435.6013,337.74,443.77" style="stroke:#181818;stroke-width:1.0;"/><text fill="#000000" font-family="sans-serif" font-size="13" lengthAdjust="spacing" textLength="76.6162" x="435.55" y="350.5283">Pause button</text></g><!--link PausedMap to Map--><g id="link_PausedMap_Map"><path d="M260.84,455.75 C180.11,440.17 17.82,398.78 71.55,325 C93.94,294.27 352.0299,246.9645 435.4999,232.3545 " fill="none" id="PausedMap-to-Map" style="stroke:#181818;stroke-width:1.0;"/><polygon fill="#181818" points="441.41,231.32,431.8551,228.9316,436.4849,232.1821,433.2344,236.8118,441.41,231.32" style="stroke:#181818;stroke-width:1.0;"/><text fill="#000000" font-family="sans-serif" font-size="13" lengthAdjust="spacing" textLength="88.1626" x="72.55" y="350.5283">Resume button</text></g><!--link Map to BuildingSelection--><g id="link_Map_BuildingSelection"><path d="M491.74,227.54 C526.13,229.7 587.31,238.92 620.55,276 C656.57,316.17 639.19,341.31 644.55,395 C651.33,462.84 625.99,485.02 577.55,533 C565.27,545.16 554.6783,552.4415 539.7083,560.1915 " fill="none" id="Map-to-BuildingSelection" style="stroke:#181818;stroke-width:1.0;"/><polygon fill="#181818" points="534.38,562.95,544.2114,562.3645,538.8203,560.6513,540.5335,555.2601,534.38,562.95" style="stroke:#181818;stroke-width:1.0;"/><text fill="#000000" font-family="sans-serif" font-size="13" lengthAdjust="spacing" textLength="101.188" x="646.55" y="410.0283">choose a building</text></g><!--link BuildingSelection to Map--><g id="link_BuildingSelection_Map"><path d="M507.68,562.75 C514.74,554.34 521.89,543.92 525.55,533 C554.94,445.32 544.77,414.24 520.55,325 C512.51,295.38 497.2508,269.9193 484.1208,250.9993 " fill="none" id="BuildingSelection-to-Map" style="stroke:#181818;stroke-width:1.0;"/><polygon fill="#181818" points="480.7,246.07,482.545,255.7445,483.5507,250.1778,489.1174,251.1834,480.7,246.07" style="stroke:#181818;stroke-width:1.0;"/><text fill="#000000" font-family="sans-serif" font-size="13" lengthAdjust="spacing" textLength="90.3462" x="541.55" y="410.0283">place a building</text></g><!--link Map to SettingsMenu--><g id="link_Map_SettingsMenu"><path d="M441.17,229.16 C388.59,234.14 270.37,248.23 242.55,276 C229.8,288.73 226.9159,303.6709 226.6459,318.9609 " fill="none" id="Map-to-SettingsMenu" style="stroke:#181818;stroke-width:1.0;"/><polygon fill="#181818" points="226.54,324.96,230.6983,316.032,226.6283,319.9608,222.6995,315.8908,226.54,324.96" style="stroke:#181818;stroke-width:1.0;"/><text fill="#000000" font-family="sans-serif" font-size="13" lengthAdjust="spacing" textLength="86.728" x="243.55" y="291.0283">Settings button</text></g><!--link SettingsMenu to Map--><g id="link_SettingsMenu_Map"><path d="M270.51,324.99 C290.15,316.13 313.66,305.29 334.55,295 C350.78,287.01 354.49,284.33 370.55,276 C394.47,263.59 416.4984,252.343 435.8884,242.513 " fill="none" id="SettingsMenu-to-Map" style="stroke:#181818;stroke-width:1.0;"/><polygon fill="#181818" points="441.24,239.8,431.4039,240.3019,436.7804,242.0609,435.0213,247.4373,441.24,239.8" style="stroke:#181818;stroke-width:1.0;"/><text fill="#000000" font-family="sans-serif" font-size="13" lengthAdjust="spacing" textLength="68.6563" x="371.55" y="291.0283">Back button</text></g><!--link Map to GameOverMenu--><g id="link_Map_GameOverMenu"><path d="M491.91,227.92 C560.6,230.85 748.48,241.87 798.55,276 C815.53,287.57 823.9872,303.5157 829.7572,319.2757 " fill="none" id="Map-to-GameOverMenu" style="stroke:#181818;stroke-width:1.0;"/><polygon fill="#181818" points="831.82,324.91,832.482,315.0834,830.101,320.2148,824.9696,317.8338,831.82,324.91" style="stroke:#181818;stroke-width:1.0;"/><text fill="#000000" font-family="sans-serif" font-size="13" lengthAdjust="spacing" textLength="75.1372" x="816.55" y="291.0283">timer expired</text></g><!--link GameOverMenu to Map--><g id="link_GameOverMenu_Map"><path d="M780.76,327.68 C753.82,319.18 721.49,307.88 693.55,295 C678.53,288.08 676.84,282.3 661.55,276 C602.98,251.85 535.3555,238.3236 497.5155,231.9036 " fill="none" id="GameOverMenu-to-Map" style="stroke:#181818;stroke-width:1.0;"/><polygon fill="#181818" points="491.6,230.9,499.8041,236.3491,496.5296,231.7364,501.1423,228.4618,491.6,230.9" style="stroke:#181818;stroke-width:1.0;"/><text fill="#000000" font-family="sans-serif" font-size="13" lengthAdjust="spacing" textLength="95.3862" x="694.55" y="291.0283">Try Again button</text></g><!--link SettingsMenu to SettingsMenu--><g id="link_SettingsMenu_SettingsMenu"><path d="M275.73,334.18 C294.71,333.63 310.55,337.24 310.55,345 C310.55,352.76 300.7075,356.5438 281.7275,355.9938 " fill="none" id="SettingsMenu-to-SettingsMenu" style="stroke:#181818;stroke-width:1.0;"/><polygon fill="#181818" points="275.73,355.82,284.6104,360.079,280.7279,355.9648,284.8421,352.0824,275.73,355.82" style="stroke:#181818;stroke-width:1.0;"/><text fill="#000000" font-family="sans-serif" font-size="13" lengthAdjust="spacing" textLength="91.0635" x="316.55" y="350.5283">change settings</text></g><!--link SettingsMenu to PausedMap--><g id="link_SettingsMenu_PausedMap"><path d="M260.84,365.01 C271.9,372.92 283.25,383.06 290.55,395 C299.59,409.76 302.2038,423.4412 303.0838,437.8312 " fill="none" id="SettingsMenu-to-PausedMap" style="stroke:#181818;stroke-width:1.0;"/><polygon fill="#181818" points="303.45,443.82,306.8932,434.5926,303.1448,438.8293,298.9081,435.0809,303.45,443.82" style="stroke:#181818;stroke-width:1.0;"/><text fill="#000000" font-family="sans-serif" font-size="13" lengthAdjust="spacing" textLength="68.6563" x="300.55" y="410.0283">Back button</text></g><!--link PausedMap to SettingsMenu--><g id="link_PausedMap_SettingsMenu"><path d="M260.98,455.53 C237.08,448.93 209.2,436.65 194.55,414 C184.43,398.35 191.7778,383.6891 203.8178,369.6891 " fill="none" id="PausedMap-to-SettingsMenu" style="stroke:#181818;stroke-width:1.0;"/><polygon fill="#181818" points="207.73,365.14,198.8289,369.3555,204.4698,368.9309,204.8944,374.5718,207.73,365.14" style="stroke:#181818;stroke-width:1.0;"/><text fill="#000000" font-family="sans-serif" font-size="13" lengthAdjust="spacing" textLength="86.728" x="195.55" y="410.0283">Settings button</text></g><!--link PausedMap to BuildingSelection--><g id="link_PausedMap_BuildingSelection"><path d="M336.92,484.14 C352.17,493.03 370.4,503.86 386.55,514 C411.97,529.96 435.3709,545.5825 455.7209,559.4425 " fill="none" id="PausedMap-to-BuildingSelection" style="stroke:#181818;stroke-width:1.0;"/><polygon fill="#181818" points="460.68,562.82,455.4931,554.4477,456.5474,560.0054,450.9897,561.0598,460.68,562.82" style="stroke:#181818;stroke-width:1.0;"/><text fill="#000000" font-family="sans-serif" font-size="13" lengthAdjust="spacing" textLength="101.188" x="415.55" y="529.0283">choose a building</text></g><!--link BuildingSelection to PausedMap--><g id="link_BuildingSelection_PausedMap"><path d="M429.91,575.77 C376.76,568.78 304.15,555.37 286.55,533 C275.57,519.03 279.7477,504.1368 287.8577,489.3968 " fill="none" id="BuildingSelection-to-PausedMap" style="stroke:#181818;stroke-width:1.0;"/><polygon fill="#181818" points="290.75,484.14,282.9069,490.097,288.3397,488.5207,289.9161,493.9535,290.75,484.14" style="stroke:#181818;stroke-width:1.0;"/><text fill="#000000" font-family="sans-serif" font-size="13" lengthAdjust="spacing" textLength="90.3462" x="287.55" y="529.0283">place a building</text></g><!--link GameOverMenu to *end*--><g id="link_GameOverMenu_*end*"><path d="M843.8,365.15 C848.75,379.16 856.36,398.37 865.55,414 C874.92,429.93 884.9863,441.8865 893.4263,451.0965 " fill="none" id="GameOverMenu-to-*end*" style="stroke:#181818;stroke-width:1.0;"/><polygon fill="#181818" points="897.48,455.52,894.3485,446.1823,894.1019,451.8337,888.4504,451.5872,897.48,455.52" style="stroke:#181818;stroke-width:1.0;"/><text fill="#000000" font-family="sans-serif" font-size="13" lengthAdjust="spacing" textLength="61.4263" x="866.55" y="410.0283">Exit button</text></g><!--SRC=[bPDDJy9048Rl-olcA2OO84R87enMb8Wqg7nSZ8Ur7M5ZkzriTmdyUwTI2xM58ASoypupRsUc0DlVKeO866kxWH3Jm4XjPQ9OdeMtytTeDg_15rBvg5oH-0taMGqSdYEnWGzdxHvVaatGMgaMwK-05t-FCfa13YzEsgfC_oYUXKinp2rapuU4dfDHI0qd666GlIK1mJ99Y134R9CLwcJJM_b0n3XUeSdbLiPe0DTQ6WmBSQbcJPDWATG28SsZXxbYL1my4NpzDLMZrwTAYx7MwtTJtzLznTJ5U5pvloMKsHDNKMsHM-IW8n7KDgfdza_h85hQUD5fQZPmkw3r_7LNaTE5SxXVLm_y1bNeueWn-h2KdVaZ82pDlBKlEgtEvKNtR28iZK53gmlj3c_tUBiBtcGAMRh1plp7AQI9CsGybAaraZeGts13iHBmwbHsdXp66jMm__GRW7kraYPHCIhBXdD_9xYwR7eowsZ82SnzriTFuI9BH91aG-4mcpuqUsn4z-l4WcgZOdS9rJKR3WFl6m00]--></g></svg>